<?xml version="1.0" standalone="no"?>
 <!DOCTYPE svg PUBLIC "-//W3C//DTD SVG 1.1//EN" 
 "http://www.w3.org/Graphics/SVG/1.1/DTD/svg11.dtd"> 
<svg
  xmlns:svg="http://www.w3.org/2000/svg"
  xmlns="http://www.w3.org/2000/svg"
  xmlns:xlink="http://www.w3.org/1999/xlink"
  version="1.1"
  width="399.9992mm" height="149.9870mm" viewBox="0.0000 0.0000 399.9992 149.9870">
<title>SVG Image created as Split-KeyBoard-Edge_Cuts.svg date 2026/03/26 01:45:39 </title>
  <desc>Image generated by PCBNEW </desc>
<g style="fill:#000000; fill-opacity:1.0000;stroke:#000000; stroke-opacity:1.0000;
stroke-linecap:round; stroke-linejoin:round;"
 transform="translate(0 0) scale(1 1)">
</g>
<g style="fill:none; 
stroke:#D0D2CD; stroke-width:0.1000; stroke-opacity:1; 
stroke-linecap:round; stroke-linejoin:round;">
<path d="M370.8800 16.2936 A3.0001 3.0001 0.0 0 0 367.8800 13.2936" />
<path d="M32.3800 16.2936
L32.3800 132.7936
" />
<path d="M370.8800 132.7936
L370.8800 16.2936
" />
<path d="M367.8800 135.7936 A3.0000 3.0000 0.0 0 0 370.8800 132.7936" />
<path d="M35.3800 135.7936
L367.8800 135.7936
" />
<path d="M367.8800 13.2936
L35.3800 13.2936
" />
<path d="M35.3800 13.2937 A3.0000 3.0000 0.0 0 0 32.3800 16.2936" />
<path d="M32.3800 132.7937 A3.0001 3.0001 0.0 0 0 35.3800 135.7936" />
</g>
<g style="fill:#D0D2CD; fill-opacity:1.0000; stroke:none;">
<circle cx="371.2621" cy="13.2936" r="0.0100" /> 
<circle cx="13.1021" cy="8.8936" r="0.0100" /> 
<circle cx="368.1021" cy="133.8937" r="0.0100" /> 
<circle cx="357.1200" cy="87.4358" r="0.0100" /> 
</g>
<g style="fill:none; 
stroke:#D0D2CD; stroke-width:0.1000; stroke-opacity:1; 
stroke-linecap:round; stroke-linejoin:round;">
<path d="M71.4463 71.6176
L71.4463 70.2119
" />
<path d="M72.3518 69.4147
L73.9407 69.4147
" />
<path d="M73.9407 72.4147
L72.3518 72.4147
" />
<path d="M74.8462 70.2119
L74.8462 71.6176
" />
<path d="M71.4463 70.2119 A0.5000 0.5000 0.0 0 0 71.3968 69.9950" />
<path d="M72.0995 69.3465 A0.5000 0.5000 0.0 0 0 71.3968 69.9950" />
<path d="M71.3968 71.8345 A0.5000 0.5000 0.0 0 0 71.4463 71.6176" />
<path d="M71.3968 71.8345 A0.5000 0.5000 0.0 0 0 72.0995 72.4830" />
<path d="M72.3518 72.4147 A0.5000 0.5000 0.0 0 0 72.0995 72.4830" />
<path d="M72.0995 69.3465 A0.5000 0.5000 0.0 0 0 72.3518 69.4147" />
<path d="M74.1930 72.4830 A0.5000 0.5000 0.0 0 0 73.9407 72.4147" />
<path d="M73.9407 69.4147 A0.5000 0.5000 0.0 0 0 74.1930 69.3465" />
<path d="M74.8957 69.9950 A0.5000 0.5000 0.0 0 0 74.1930 69.3465" />
<path d="M74.8957 69.9950 A0.5000 0.5000 0.0 0 0 74.8462 70.2119" />
<path d="M74.1930 72.4831 A0.5000 0.5000 0.0 0 0 74.8957 71.8345" />
<path d="M74.8462 71.6176 A0.5000 0.5000 0.0 0 0 74.8957 71.8345" />
<path d="M290.5213 33.5176
L290.5213 32.1119
" />
<path d="M291.4268 31.3148
L293.0157 31.3148
" />
<path d="M293.0157 34.3147
L291.4268 34.3147
" />
<path d="M293.9212 32.1119
L293.9212 33.5176
" />
<path d="M290.5213 32.1119 A0.5000 0.5000 0.0 0 0 290.4718 31.8950" />
<path d="M291.1745 31.2465 A0.5000 0.5000 0.0 0 0 290.4718 31.8950" />
<path d="M290.4718 33.7345 A0.5000 0.5000 0.0 0 0 290.5213 33.5176" />
<path d="M290.4718 33.7345 A0.5000 0.5000 0.0 0 0 291.1745 34.3830" />
<path d="M291.4268 34.3147 A0.5000 0.5000 0.0 0 0 291.1745 34.3830" />
<path d="M291.1745 31.2465 A0.5000 0.5000 0.0 0 0 291.4268 31.3147" />
<path d="M293.2680 34.3830 A0.5000 0.5000 0.0 0 0 293.0157 34.3147" />
<path d="M293.0157 31.3147 A0.5000 0.5000 0.0 0 0 293.2680 31.2465" />
<path d="M293.9707 31.8950 A0.5000 0.5000 0.0 0 0 293.2680 31.2465" />
<path d="M293.9707 31.8950 A0.5000 0.5000 0.0 0 0 293.9212 32.1119" />
<path d="M293.2680 34.3831 A0.5000 0.5000 0.0 0 0 293.9707 33.7345" />
<path d="M293.9212 33.5176 A0.5000 0.5000 0.0 0 0 293.9707 33.7345" />
<path d="M95.2588 90.6676
L95.2588 89.2619
" />
<path d="M96.1643 88.4647
L97.7532 88.4647
" />
<path d="M97.7532 91.4647
L96.1643 91.4647
" />
<path d="M98.6587 89.2619
L98.6587 90.6676
" />
<path d="M95.2588 89.2619 A0.5000 0.5000 0.0 0 0 95.2093 89.0450" />
<path d="M95.9120 88.3965 A0.5000 0.5000 0.0 0 0 95.2093 89.0450" />
<path d="M95.2093 90.8845 A0.5000 0.5000 0.0 0 0 95.2588 90.6676" />
<path d="M95.2093 90.8845 A0.5000 0.5000 0.0 0 0 95.9120 91.5330" />
<path d="M96.1643 91.4647 A0.5000 0.5000 0.0 0 0 95.9120 91.5330" />
<path d="M95.9120 88.3965 A0.5000 0.5000 0.0 0 0 96.1643 88.4647" />
<path d="M98.0055 91.5330 A0.5000 0.5000 0.0 0 0 97.7532 91.4647" />
<path d="M97.7532 88.4647 A0.5000 0.5000 0.0 0 0 98.0055 88.3965" />
<path d="M98.7082 89.0450 A0.5000 0.5000 0.0 0 0 98.0055 88.3965" />
<path d="M98.7082 89.0450 A0.5000 0.5000 0.0 0 0 98.6587 89.2619" />
<path d="M98.0055 91.5331 A0.5000 0.5000 0.0 0 0 98.7082 90.8845" />
<path d="M98.6587 90.6676 A0.5000 0.5000 0.0 0 0 98.7082 90.8845" />
<path d="M200.0338 109.7176
L200.0338 108.3119
" />
<path d="M200.9393 107.5147
L202.5282 107.5147
" />
<path d="M202.5282 110.5147
L200.9393 110.5147
" />
<path d="M203.4337 108.3119
L203.4337 109.7176
" />
<path d="M200.0338 108.3119 A0.5000 0.5000 0.0 0 0 199.9843 108.0950" />
<path d="M200.6870 107.4465 A0.5000 0.5000 0.0 0 0 199.9843 108.0950" />
<path d="M199.9843 109.9345 A0.5000 0.5000 0.0 0 0 200.0338 109.7176" />
<path d="M199.9843 109.9345 A0.5000 0.5000 0.0 0 0 200.6870 110.5830" />
<path d="M200.9393 110.5147 A0.5000 0.5000 0.0 0 0 200.6870 110.5830" />
<path d="M200.6870 107.4465 A0.5000 0.5000 0.0 0 0 200.9393 107.5148" />
<path d="M202.7805 110.5830 A0.5000 0.5000 0.0 0 0 202.5282 110.5147" />
<path d="M202.5282 107.5147 A0.5000 0.5000 0.0 0 0 202.7805 107.4465" />
<path d="M203.4832 108.0950 A0.5000 0.5000 0.0 0 0 202.7805 107.4465" />
<path d="M203.4832 108.0950 A0.5000 0.5000 0.0 0 0 203.4337 108.3119" />
<path d="M202.7805 110.5831 A0.5000 0.5000 0.0 0 0 203.4832 109.9345" />
<path d="M203.4337 109.7176 A0.5000 0.5000 0.0 0 0 203.4832 109.9345" />
<path d="M328.6213 109.7176
L328.6213 108.3119
" />
<path d="M329.5268 107.5147
L331.1157 107.5147
" />
<path d="M331.1157 110.5147
L329.5268 110.5147
" />
<path d="M332.0212 108.3119
L332.0212 109.7176
" />
<path d="M328.6213 108.3119 A0.5000 0.5000 0.0 0 0 328.5718 108.0950" />
<path d="M329.2745 107.4465 A0.5000 0.5000 0.0 0 0 328.5718 108.0950" />
<path d="M328.5718 109.9345 A0.5000 0.5000 0.0 0 0 328.6213 109.7176" />
<path d="M328.5718 109.9345 A0.5000 0.5000 0.0 0 0 329.2745 110.5830" />
<path d="M329.5268 110.5147 A0.5000 0.5000 0.0 0 0 329.2745 110.5830" />
<path d="M329.2745 107.4465 A0.5000 0.5000 0.0 0 0 329.5268 107.5148" />
<path d="M331.3680 110.5830 A0.5000 0.5000 0.0 0 0 331.1157 110.5147" />
<path d="M331.1157 107.5147 A0.5000 0.5000 0.0 0 0 331.3680 107.4465" />
<path d="M332.0707 108.0950 A0.5000 0.5000 0.0 0 0 331.3680 107.4465" />
<path d="M332.0707 108.0950 A0.5000 0.5000 0.0 0 0 332.0212 108.3119" />
<path d="M331.3680 110.5831 A0.5000 0.5000 0.0 0 0 332.0707 109.9345" />
<path d="M332.0212 109.7176 A0.5000 0.5000 0.0 0 0 332.0707 109.9345" />
<path d="M309.5713 109.7176
L309.5713 108.3119
" />
<path d="M310.4768 107.5147
L312.0657 107.5147
" />
<path d="M312.0657 110.5147
L310.4768 110.5147
" />
<path d="M312.9712 108.3119
L312.9712 109.7176
" />
<path d="M309.5713 108.3119 A0.5000 0.5000 0.0 0 0 309.5218 108.0950" />
<path d="M310.2245 107.4465 A0.5000 0.5000 0.0 0 0 309.5218 108.0950" />
<path d="M309.5218 109.9345 A0.5000 0.5000 0.0 0 0 309.5713 109.7176" />
<path d="M309.5218 109.9345 A0.5000 0.5000 0.0 0 0 310.2245 110.5830" />
<path d="M310.4768 110.5147 A0.5000 0.5000 0.0 0 0 310.2245 110.5830" />
<path d="M310.2245 107.4465 A0.5000 0.5000 0.0 0 0 310.4768 107.5148" />
<path d="M312.3180 110.5830 A0.5000 0.5000 0.0 0 0 312.0657 110.5147" />
<path d="M312.0657 107.5147 A0.5000 0.5000 0.0 0 0 312.3180 107.4465" />
<path d="M313.0207 108.0950 A0.5000 0.5000 0.0 0 0 312.3180 107.4465" />
<path d="M313.0207 108.0950 A0.5000 0.5000 0.0 0 0 312.9712 108.3119" />
<path d="M312.3180 110.5831 A0.5000 0.5000 0.0 0 0 313.0207 109.9345" />
<path d="M312.9712 109.7176 A0.5000 0.5000 0.0 0 0 313.0207 109.9345" />
<path d="M328.6213 71.6176
L328.6213 70.2119
" />
<path d="M329.5268 69.4147
L331.1157 69.4147
" />
<path d="M331.1157 72.4147
L329.5268 72.4147
" />
<path d="M332.0212 70.2119
L332.0212 71.6176
" />
<path d="M328.6213 70.2119 A0.5000 0.5000 0.0 0 0 328.5718 69.9950" />
<path d="M329.2745 69.3465 A0.5000 0.5000 0.0 0 0 328.5718 69.9950" />
<path d="M328.5718 71.8345 A0.5000 0.5000 0.0 0 0 328.6213 71.6176" />
<path d="M328.5718 71.8345 A0.5000 0.5000 0.0 0 0 329.2745 72.4830" />
<path d="M329.5268 72.4147 A0.5000 0.5000 0.0 0 0 329.2745 72.4830" />
<path d="M329.2745 69.3465 A0.5000 0.5000 0.0 0 0 329.5268 69.4147" />
<path d="M331.3680 72.4830 A0.5000 0.5000 0.0 0 0 331.1157 72.4147" />
<path d="M331.1157 69.4147 A0.5000 0.5000 0.0 0 0 331.3680 69.3465" />
<path d="M332.0707 69.9950 A0.5000 0.5000 0.0 0 0 331.3680 69.3465" />
<path d="M332.0707 69.9950 A0.5000 0.5000 0.0 0 0 332.0212 70.2119" />
<path d="M331.3680 72.4831 A0.5000 0.5000 0.0 0 0 332.0707 71.8345" />
<path d="M332.0212 71.6176 A0.5000 0.5000 0.0 0 0 332.0707 71.8345" />
<path d="M128.5963 71.6176
L128.5963 70.2119
" />
<path d="M129.5018 69.4147
L131.0907 69.4147
" />
<path d="M131.0907 72.4147
L129.5018 72.4147
" />
<path d="M131.9962 70.2119
L131.9962 71.6176
" />
<path d="M128.5963 70.2119 A0.5000 0.5000 0.0 0 0 128.5468 69.9950" />
<path d="M129.2495 69.3465 A0.5000 0.5000 0.0 0 0 128.5468 69.9950" />
<path d="M128.5468 71.8345 A0.5000 0.5000 0.0 0 0 128.5963 71.6176" />
<path d="M128.5468 71.8345 A0.5000 0.5000 0.0 0 0 129.2495 72.4830" />
<path d="M129.5018 72.4147 A0.5000 0.5000 0.0 0 0 129.2495 72.4830" />
<path d="M129.2495 69.3465 A0.5000 0.5000 0.0 0 0 129.5018 69.4147" />
<path d="M131.3430 72.4830 A0.5000 0.5000 0.0 0 0 131.0907 72.4147" />
<path d="M131.0907 69.4147 A0.5000 0.5000 0.0 0 0 131.3430 69.3465" />
<path d="M132.0457 69.9950 A0.5000 0.5000 0.0 0 0 131.3430 69.3465" />
<path d="M132.0457 69.9950 A0.5000 0.5000 0.0 0 0 131.9962 70.2119" />
<path d="M131.3430 72.4831 A0.5000 0.5000 0.0 0 0 132.0457 71.8345" />
<path d="M131.9962 71.6176 A0.5000 0.5000 0.0 0 0 132.0457 71.8345" />
<path d="M242.8963 71.6176
L242.8963 70.2119
" />
<path d="M243.8018 69.4147
L245.3907 69.4147
" />
<path d="M245.3907 72.4147
L243.8018 72.4147
" />
<path d="M246.2962 70.2119
L246.2962 71.6176
" />
<path d="M242.8963 70.2119 A0.5000 0.5000 0.0 0 0 242.8468 69.9950" />
<path d="M243.5495 69.3465 A0.5000 0.5000 0.0 0 0 242.8468 69.9950" />
<path d="M242.8468 71.8345 A0.5000 0.5000 0.0 0 0 242.8963 71.6176" />
<path d="M242.8468 71.8345 A0.5000 0.5000 0.0 0 0 243.5495 72.4830" />
<path d="M243.8018 72.4147 A0.5000 0.5000 0.0 0 0 243.5495 72.4830" />
<path d="M243.5495 69.3465 A0.5000 0.5000 0.0 0 0 243.8018 69.4147" />
<path d="M245.6430 72.4830 A0.5000 0.5000 0.0 0 0 245.3907 72.4147" />
<path d="M245.3907 69.4147 A0.5000 0.5000 0.0 0 0 245.6430 69.3465" />
<path d="M246.3457 69.9950 A0.5000 0.5000 0.0 0 0 245.6430 69.3465" />
<path d="M246.3457 69.9950 A0.5000 0.5000 0.0 0 0 246.2962 70.2119" />
<path d="M245.6430 72.4831 A0.5000 0.5000 0.0 0 0 246.3457 71.8345" />
<path d="M246.2962 71.6176 A0.5000 0.5000 0.0 0 0 246.3457 71.8345" />
<path d="M280.9963 71.6176
L280.9963 70.2119
" />
<path d="M281.9018 69.4147
L283.4907 69.4147
" />
<path d="M283.4907 72.4147
L281.9018 72.4147
" />
<path d="M284.3962 70.2119
L284.3962 71.6176
" />
<path d="M280.9963 70.2119 A0.5000 0.5000 0.0 0 0 280.9468 69.9950" />
<path d="M281.6495 69.3465 A0.5000 0.5000 0.0 0 0 280.9468 69.9950" />
<path d="M280.9468 71.8345 A0.5000 0.5000 0.0 0 0 280.9963 71.6176" />
<path d="M280.9468 71.8345 A0.5000 0.5000 0.0 0 0 281.6495 72.4830" />
<path d="M281.9018 72.4147 A0.5000 0.5000 0.0 0 0 281.6495 72.4830" />
<path d="M281.6495 69.3465 A0.5000 0.5000 0.0 0 0 281.9018 69.4147" />
<path d="M283.7430 72.4830 A0.5000 0.5000 0.0 0 0 283.4907 72.4147" />
<path d="M283.4907 69.4147 A0.5000 0.5000 0.0 0 0 283.7430 69.3465" />
<path d="M284.4457 69.9950 A0.5000 0.5000 0.0 0 0 283.7430 69.3465" />
<path d="M284.4457 69.9950 A0.5000 0.5000 0.0 0 0 284.3962 70.2119" />
<path d="M283.7430 72.4831 A0.5000 0.5000 0.0 0 0 284.4457 71.8345" />
<path d="M284.3962 71.6176 A0.5000 0.5000 0.0 0 0 284.4457 71.8345" />
<path d="M309.5713 128.7676
L309.5713 127.3619
" />
<path d="M310.4768 126.5647
L312.0657 126.5647
" />
<path d="M312.0657 129.5647
L310.4768 129.5647
" />
<path d="M312.9712 127.3619
L312.9712 128.7676
" />
<path d="M309.5713 127.3619 A0.5000 0.5000 0.0 0 0 309.5218 127.1450" />
<path d="M310.2245 126.4965 A0.5000 0.5000 0.0 0 0 309.5218 127.1450" />
<path d="M309.5218 128.9845 A0.5000 0.5000 0.0 0 0 309.5713 128.7676" />
<path d="M309.5218 128.9845 A0.5000 0.5000 0.0 0 0 310.2245 129.6330" />
<path d="M310.4768 129.5647 A0.5000 0.5000 0.0 0 0 310.2245 129.6330" />
<path d="M310.2245 126.4965 A0.5000 0.5000 0.0 0 0 310.4768 126.5648" />
<path d="M312.3180 129.6330 A0.5000 0.5000 0.0 0 0 312.0657 129.5648" />
<path d="M312.0657 126.5647 A0.5000 0.5000 0.0 0 0 312.3180 126.4965" />
<path d="M313.0207 127.1450 A0.5000 0.5000 0.0 0 0 312.3180 126.4965" />
<path d="M313.0207 127.1450 A0.5000 0.5000 0.0 0 0 312.9712 127.3619" />
<path d="M312.3180 129.6331 A0.5000 0.5000 0.0 0 0 313.0207 128.9845" />
<path d="M312.9712 128.7676 A0.5000 0.5000 0.0 0 0 313.0207 128.9845" />
<path d="M176.2213 52.5676
L176.2213 51.1619
" />
<path d="M177.1268 50.3648
L178.7157 50.3648
" />
<path d="M178.7157 53.3647
L177.1268 53.3647
" />
<path d="M179.6212 51.1619
L179.6212 52.5676
" />
<path d="M176.2213 51.1619 A0.5000 0.5000 0.0 0 0 176.1718 50.9450" />
<path d="M176.8745 50.2965 A0.5000 0.5000 0.0 0 0 176.1718 50.9450" />
<path d="M176.1718 52.7845 A0.5000 0.5000 0.0 0 0 176.2213 52.5676" />
<path d="M176.1718 52.7845 A0.5000 0.5000 0.0 0 0 176.8745 53.4330" />
<path d="M177.1268 53.3647 A0.5000 0.5000 0.0 0 0 176.8745 53.4330" />
<path d="M176.8745 50.2965 A0.5000 0.5000 0.0 0 0 177.1268 50.3647" />
<path d="M178.9680 53.4330 A0.5000 0.5000 0.0 0 0 178.7157 53.3647" />
<path d="M178.7157 50.3647 A0.5000 0.5000 0.0 0 0 178.9680 50.2965" />
<path d="M179.6707 50.9450 A0.5000 0.5000 0.0 0 0 178.9680 50.2965" />
<path d="M179.6707 50.9450 A0.5000 0.5000 0.0 0 0 179.6212 51.1619" />
<path d="M178.9680 53.4331 A0.5000 0.5000 0.0 0 0 179.6707 52.7845" />
<path d="M179.6212 52.5676 A0.5000 0.5000 0.0 0 0 179.6707 52.7845" />
<path d="M100.0213 33.5176
L100.0213 32.1119
" />
<path d="M100.9268 31.3148
L102.5157 31.3148
" />
<path d="M102.5157 34.3147
L100.9268 34.3147
" />
<path d="M103.4212 32.1119
L103.4212 33.5176
" />
<path d="M100.0213 32.1119 A0.5000 0.5000 0.0 0 0 99.9718 31.8950" />
<path d="M100.6745 31.2465 A0.5000 0.5000 0.0 0 0 99.9718 31.8950" />
<path d="M99.9718 33.7345 A0.5000 0.5000 0.0 0 0 100.0213 33.5176" />
<path d="M99.9718 33.7345 A0.5000 0.5000 0.0 0 0 100.6745 34.3830" />
<path d="M100.9268 34.3147 A0.5000 0.5000 0.0 0 0 100.6745 34.3830" />
<path d="M100.6745 31.2465 A0.5000 0.5000 0.0 0 0 100.9268 31.3147" />
<path d="M102.7680 34.3830 A0.5000 0.5000 0.0 0 0 102.5157 34.3147" />
<path d="M102.5157 31.3147 A0.5000 0.5000 0.0 0 0 102.7680 31.2465" />
<path d="M103.4707 31.8950 A0.5000 0.5000 0.0 0 0 102.7680 31.2465" />
<path d="M103.4707 31.8950 A0.5000 0.5000 0.0 0 0 103.4212 32.1119" />
<path d="M102.7680 34.3831 A0.5000 0.5000 0.0 0 0 103.4707 33.7345" />
<path d="M103.4212 33.5176 A0.5000 0.5000 0.0 0 0 103.4707 33.7345" />
<path d="M257.1838 109.7176
L257.1838 108.3119
" />
<path d="M258.0893 107.5147
L259.6782 107.5147
" />
<path d="M259.6782 110.5147
L258.0893 110.5147
" />
<path d="M260.5837 108.3119
L260.5837 109.7176
" />
<path d="M257.1838 108.3119 A0.5000 0.5000 0.0 0 0 257.1343 108.0950" />
<path d="M257.8370 107.4465 A0.5000 0.5000 0.0 0 0 257.1343 108.0950" />
<path d="M257.1343 109.9345 A0.5000 0.5000 0.0 0 0 257.1838 109.7176" />
<path d="M257.1343 109.9345 A0.5000 0.5000 0.0 0 0 257.8370 110.5830" />
<path d="M258.0893 110.5147 A0.5000 0.5000 0.0 0 0 257.8370 110.5830" />
<path d="M257.8370 107.4465 A0.5000 0.5000 0.0 0 0 258.0893 107.5148" />
<path d="M259.9305 110.5830 A0.5000 0.5000 0.0 0 0 259.6782 110.5147" />
<path d="M259.6782 107.5147 A0.5000 0.5000 0.0 0 0 259.9305 107.4465" />
<path d="M260.6332 108.0950 A0.5000 0.5000 0.0 0 0 259.9305 107.4465" />
<path d="M260.6332 108.0950 A0.5000 0.5000 0.0 0 0 260.5837 108.3119" />
<path d="M259.9305 110.5831 A0.5000 0.5000 0.0 0 0 260.6332 109.9345" />
<path d="M260.5837 109.7176 A0.5000 0.5000 0.0 0 0 260.6332 109.9345" />
<path d="M328.6213 128.7676
L328.6213 127.3619
" />
<path d="M329.5268 126.5647
L331.1157 126.5647
" />
<path d="M331.1157 129.5647
L329.5268 129.5647
" />
<path d="M332.0212 127.3619
L332.0212 128.7676
" />
<path d="M328.6213 127.3619 A0.5000 0.5000 0.0 0 0 328.5718 127.1450" />
<path d="M329.2745 126.4965 A0.5000 0.5000 0.0 0 0 328.5718 127.1450" />
<path d="M328.5718 128.9845 A0.5000 0.5000 0.0 0 0 328.6213 128.7676" />
<path d="M328.5718 128.9845 A0.5000 0.5000 0.0 0 0 329.2745 129.6330" />
<path d="M329.5268 129.5647 A0.5000 0.5000 0.0 0 0 329.2745 129.6330" />
<path d="M329.2745 126.4965 A0.5000 0.5000 0.0 0 0 329.5268 126.5648" />
<path d="M331.3680 129.6330 A0.5000 0.5000 0.0 0 0 331.1157 129.5648" />
<path d="M331.1157 126.5647 A0.5000 0.5000 0.0 0 0 331.3680 126.4965" />
<path d="M332.0707 127.1450 A0.5000 0.5000 0.0 0 0 331.3680 126.4965" />
<path d="M332.0707 127.1450 A0.5000 0.5000 0.0 0 0 332.0212 127.3619" />
<path d="M331.3680 129.6331 A0.5000 0.5000 0.0 0 0 332.0707 128.9845" />
<path d="M332.0212 128.7676 A0.5000 0.5000 0.0 0 0 332.0707 128.9845" />
<path d="M61.9213 52.5676
L61.9213 51.1619
" />
<path d="M62.8268 50.3648
L64.4157 50.3648
" />
<path d="M64.4157 53.3647
L62.8268 53.3647
" />
<path d="M65.3212 51.1619
L65.3212 52.5676
" />
<path d="M61.9213 51.1619 A0.5000 0.5000 0.0 0 0 61.8718 50.9450" />
<path d="M62.5745 50.2965 A0.5000 0.5000 0.0 0 0 61.8718 50.9450" />
<path d="M61.8718 52.7845 A0.5000 0.5000 0.0 0 0 61.9213 52.5676" />
<path d="M61.8718 52.7845 A0.5000 0.5000 0.0 0 0 62.5745 53.4330" />
<path d="M62.8268 53.3647 A0.5000 0.5000 0.0 0 0 62.5745 53.4330" />
<path d="M62.5745 50.2965 A0.5000 0.5000 0.0 0 0 62.8268 50.3647" />
<path d="M64.6680 53.4330 A0.5000 0.5000 0.0 0 0 64.4157 53.3647" />
<path d="M64.4157 50.3647 A0.5000 0.5000 0.0 0 0 64.6680 50.2965" />
<path d="M65.3707 50.9450 A0.5000 0.5000 0.0 0 0 64.6680 50.2965" />
<path d="M65.3707 50.9450 A0.5000 0.5000 0.0 0 0 65.3212 51.1619" />
<path d="M64.6680 53.4331 A0.5000 0.5000 0.0 0 0 65.3707 52.7845" />
<path d="M65.3212 52.5676 A0.5000 0.5000 0.0 0 0 65.3707 52.7845" />
<path d="M104.7838 109.7176
L104.7838 108.3119
" />
<path d="M105.6893 107.5147
L107.2782 107.5147
" />
<path d="M107.2782 110.5147
L105.6893 110.5147
" />
<path d="M108.1837 108.3119
L108.1837 109.7176
" />
<path d="M104.7838 108.3119 A0.5000 0.5000 0.0 0 0 104.7343 108.0950" />
<path d="M105.4370 107.4465 A0.5000 0.5000 0.0 0 0 104.7343 108.0950" />
<path d="M104.7343 109.9345 A0.5000 0.5000 0.0 0 0 104.7838 109.7176" />
<path d="M104.7343 109.9345 A0.5000 0.5000 0.0 0 0 105.4370 110.5830" />
<path d="M105.6893 110.5147 A0.5000 0.5000 0.0 0 0 105.4370 110.5830" />
<path d="M105.4370 107.4465 A0.5000 0.5000 0.0 0 0 105.6893 107.5148" />
<path d="M107.5305 110.5830 A0.5000 0.5000 0.0 0 0 107.2782 110.5147" />
<path d="M107.2782 107.5147 A0.5000 0.5000 0.0 0 0 107.5305 107.4465" />
<path d="M108.2332 108.0950 A0.5000 0.5000 0.0 0 0 107.5305 107.4465" />
<path d="M108.2332 108.0950 A0.5000 0.5000 0.0 0 0 108.1837 108.3119" />
<path d="M107.5305 110.5831 A0.5000 0.5000 0.0 0 0 108.2332 109.9345" />
<path d="M108.1837 109.7176 A0.5000 0.5000 0.0 0 0 108.2332 109.9345" />
<path d="M50.0150 90.6676
L50.0150 89.2619
" />
<path d="M50.9205 88.4647
L52.5095 88.4647
" />
<path d="M52.5095 91.4647
L50.9205 91.4647
" />
<path d="M53.4150 89.2619
L53.4150 90.6676
" />
<path d="M50.0150 89.2619 A0.5000 0.5000 0.0 0 0 49.9655 89.0450" />
<path d="M50.6683 88.3965 A0.5000 0.5000 0.0 0 0 49.9655 89.0450" />
<path d="M49.9655 90.8845 A0.5000 0.5000 0.0 0 0 50.0150 90.6676" />
<path d="M49.9655 90.8845 A0.5000 0.5000 0.0 0 0 50.6683 91.5330" />
<path d="M50.9205 91.4647 A0.5000 0.5000 0.0 0 0 50.6683 91.5330" />
<path d="M50.6683 88.3965 A0.5000 0.5000 0.0 0 0 50.9205 88.4647" />
<path d="M52.7617 91.5330 A0.5000 0.5000 0.0 0 0 52.5095 91.4647" />
<path d="M52.5095 88.4647 A0.5000 0.5000 0.0 0 0 52.7617 88.3965" />
<path d="M53.4645 89.0450 A0.5000 0.5000 0.0 0 0 52.7617 88.3965" />
<path d="M53.4645 89.0450 A0.5000 0.5000 0.0 0 0 53.4150 89.2619" />
<path d="M52.7617 91.5331 A0.5000 0.5000 0.0 0 0 53.4645 90.8845" />
<path d="M53.4150 90.6676 A0.5000 0.5000 0.0 0 0 53.4645 90.8845" />
<path d="M195.2713 33.5176
L195.2713 32.1119
" />
<path d="M196.1768 31.3148
L197.7657 31.3148
" />
<path d="M197.7657 34.3147
L196.1768 34.3147
" />
<path d="M198.6712 32.1119
L198.6712 33.5176
" />
<path d="M195.2713 32.1119 A0.5000 0.5000 0.0 0 0 195.2218 31.8950" />
<path d="M195.9245 31.2465 A0.5000 0.5000 0.0 0 0 195.2218 31.8950" />
<path d="M195.2218 33.7345 A0.5000 0.5000 0.0 0 0 195.2713 33.5176" />
<path d="M195.2218 33.7345 A0.5000 0.5000 0.0 0 0 195.9245 34.3830" />
<path d="M196.1768 34.3147 A0.5000 0.5000 0.0 0 0 195.9245 34.3830" />
<path d="M195.9245 31.2465 A0.5000 0.5000 0.0 0 0 196.1768 31.3147" />
<path d="M198.0180 34.3830 A0.5000 0.5000 0.0 0 0 197.7657 34.3147" />
<path d="M197.7657 31.3147 A0.5000 0.5000 0.0 0 0 198.0180 31.2465" />
<path d="M198.7207 31.8950 A0.5000 0.5000 0.0 0 0 198.0180 31.2465" />
<path d="M198.7207 31.8950 A0.5000 0.5000 0.0 0 0 198.6712 32.1119" />
<path d="M198.0180 34.3831 A0.5000 0.5000 0.0 0 0 198.7207 33.7345" />
<path d="M198.6712 33.5176 A0.5000 0.5000 0.0 0 0 198.7207 33.7345" />
<path d="M176.2213 33.5176
L176.2213 32.1119
" />
<path d="M177.1268 31.3148
L178.7157 31.3148
" />
<path d="M178.7157 34.3147
L177.1268 34.3147
" />
<path d="M179.6212 32.1119
L179.6212 33.5176
" />
<path d="M176.2213 32.1119 A0.5000 0.5000 0.0 0 0 176.1718 31.8950" />
<path d="M176.8745 31.2465 A0.5000 0.5000 0.0 0 0 176.1718 31.8950" />
<path d="M176.1718 33.7345 A0.5000 0.5000 0.0 0 0 176.2213 33.5176" />
<path d="M176.1718 33.7345 A0.5000 0.5000 0.0 0 0 176.8745 34.3830" />
<path d="M177.1268 34.3147 A0.5000 0.5000 0.0 0 0 176.8745 34.3830" />
<path d="M176.8745 31.2465 A0.5000 0.5000 0.0 0 0 177.1268 31.3147" />
<path d="M178.9680 34.3830 A0.5000 0.5000 0.0 0 0 178.7157 34.3147" />
<path d="M178.7157 31.3147 A0.5000 0.5000 0.0 0 0 178.9680 31.2465" />
<path d="M179.6707 31.8950 A0.5000 0.5000 0.0 0 0 178.9680 31.2465" />
<path d="M179.6707 31.8950 A0.5000 0.5000 0.0 0 0 179.6212 32.1119" />
<path d="M178.9680 34.3831 A0.5000 0.5000 0.0 0 0 179.6707 33.7345" />
<path d="M179.6212 33.5176 A0.5000 0.5000 0.0 0 0 179.6707 33.7345" />
<path d="M271.4713 33.5176
L271.4713 32.1119
" />
<path d="M272.3768 31.3148
L273.9657 31.3148
" />
<path d="M273.9657 34.3147
L272.3768 34.3147
" />
<path d="M274.8712 32.1119
L274.8712 33.5176
" />
<path d="M271.4713 32.1119 A0.5000 0.5000 0.0 0 0 271.4218 31.8950" />
<path d="M272.1245 31.2465 A0.5000 0.5000 0.0 0 0 271.4218 31.8950" />
<path d="M271.4218 33.7345 A0.5000 0.5000 0.0 0 0 271.4713 33.5176" />
<path d="M271.4218 33.7345 A0.5000 0.5000 0.0 0 0 272.1245 34.3830" />
<path d="M272.3768 34.3147 A0.5000 0.5000 0.0 0 0 272.1245 34.3830" />
<path d="M272.1245 31.2465 A0.5000 0.5000 0.0 0 0 272.3768 31.3147" />
<path d="M274.2180 34.3830 A0.5000 0.5000 0.0 0 0 273.9657 34.3147" />
<path d="M273.9657 31.3147 A0.5000 0.5000 0.0 0 0 274.2180 31.2465" />
<path d="M274.9207 31.8950 A0.5000 0.5000 0.0 0 0 274.2180 31.2465" />
<path d="M274.9207 31.8950 A0.5000 0.5000 0.0 0 0 274.8712 32.1119" />
<path d="M274.2180 34.3831 A0.5000 0.5000 0.0 0 0 274.9207 33.7345" />
<path d="M274.8712 33.5176 A0.5000 0.5000 0.0 0 0 274.9207 33.7345" />
<path d="M61.9414 33.5570
L61.9414 32.1513
" />
<path d="M62.8469 31.3541
L64.4358 31.3541
" />
<path d="M64.4358 34.3541
L62.8469 34.3541
" />
<path d="M65.3413 32.1513
L65.3413 33.5570
" />
<path d="M61.9414 32.1513 A0.5000 0.5000 0.0 0 0 61.8919 31.9344" />
<path d="M62.5946 31.2859 A0.5000 0.5000 0.0 0 0 61.8919 31.9344" />
<path d="M61.8919 33.7739 A0.5000 0.5000 0.0 0 0 61.9414 33.5570" />
<path d="M61.8919 33.7739 A0.5000 0.5000 0.0 0 0 62.5946 34.4224" />
<path d="M62.8469 34.3541 A0.5000 0.5000 0.0 0 0 62.5946 34.4224" />
<path d="M62.5946 31.2859 A0.5000 0.5000 0.0 0 0 62.8469 31.3541" />
<path d="M64.6881 34.4224 A0.5000 0.5000 0.0 0 0 64.4358 34.3541" />
<path d="M64.4358 31.3541 A0.5000 0.5000 0.0 0 0 64.6881 31.2859" />
<path d="M65.3908 31.9344 A0.5000 0.5000 0.0 0 0 64.6881 31.2859" />
<path d="M65.3908 31.9344 A0.5000 0.5000 0.0 0 0 65.3413 32.1513" />
<path d="M64.6881 34.4225 A0.5000 0.5000 0.0 0 0 65.3908 33.7739" />
<path d="M65.3413 33.5570 A0.5000 0.5000 0.0 0 0 65.3908 33.7739" />
<path d="M185.7463 71.6176
L185.7463 70.2119
" />
<path d="M186.6518 69.4147
L188.2407 69.4147
" />
<path d="M188.2407 72.4147
L186.6518 72.4147
" />
<path d="M189.1462 70.2119
L189.1462 71.6176
" />
<path d="M185.7463 70.2119 A0.5000 0.5000 0.0 0 0 185.6968 69.9950" />
<path d="M186.3995 69.3465 A0.5000 0.5000 0.0 0 0 185.6968 69.9950" />
<path d="M185.6968 71.8345 A0.5000 0.5000 0.0 0 0 185.7463 71.6176" />
<path d="M185.6968 71.8345 A0.5000 0.5000 0.0 0 0 186.3995 72.4830" />
<path d="M186.6518 72.4147 A0.5000 0.5000 0.0 0 0 186.3995 72.4830" />
<path d="M186.3995 69.3465 A0.5000 0.5000 0.0 0 0 186.6518 69.4147" />
<path d="M188.4930 72.4830 A0.5000 0.5000 0.0 0 0 188.2407 72.4147" />
<path d="M188.2407 69.4147 A0.5000 0.5000 0.0 0 0 188.4930 69.3465" />
<path d="M189.1957 69.9950 A0.5000 0.5000 0.0 0 0 188.4930 69.3465" />
<path d="M189.1957 69.9950 A0.5000 0.5000 0.0 0 0 189.1462 70.2119" />
<path d="M188.4930 72.4831 A0.5000 0.5000 0.0 0 0 189.1957 71.8345" />
<path d="M189.1462 71.6176 A0.5000 0.5000 0.0 0 0 189.1957 71.8345" />
<path d="M138.1213 33.5176
L138.1213 32.1119
" />
<path d="M139.0268 31.3148
L140.6157 31.3148
" />
<path d="M140.6157 34.3147
L139.0268 34.3147
" />
<path d="M141.5212 32.1119
L141.5212 33.5176
" />
<path d="M138.1213 32.1119 A0.5000 0.5000 0.0 0 0 138.0718 31.8950" />
<path d="M138.7745 31.2465 A0.5000 0.5000 0.0 0 0 138.0718 31.8950" />
<path d="M138.0718 33.7345 A0.5000 0.5000 0.0 0 0 138.1213 33.5176" />
<path d="M138.0718 33.7345 A0.5000 0.5000 0.0 0 0 138.7745 34.3830" />
<path d="M139.0268 34.3147 A0.5000 0.5000 0.0 0 0 138.7745 34.3830" />
<path d="M138.7745 31.2465 A0.5000 0.5000 0.0 0 0 139.0268 31.3147" />
<path d="M140.8680 34.3830 A0.5000 0.5000 0.0 0 0 140.6157 34.3147" />
<path d="M140.6157 31.3147 A0.5000 0.5000 0.0 0 0 140.8680 31.2465" />
<path d="M141.5707 31.8950 A0.5000 0.5000 0.0 0 0 140.8680 31.2465" />
<path d="M141.5707 31.8950 A0.5000 0.5000 0.0 0 0 141.5212 32.1119" />
<path d="M140.8680 34.3831 A0.5000 0.5000 0.0 0 0 141.5707 33.7345" />
<path d="M141.5212 33.5176 A0.5000 0.5000 0.0 0 0 141.5707 33.7345" />
<path d="M119.0713 33.5176
L119.0713 32.1119
" />
<path d="M119.9768 31.3148
L121.5657 31.3148
" />
<path d="M121.5657 34.3147
L119.9768 34.3147
" />
<path d="M122.4712 32.1119
L122.4712 33.5176
" />
<path d="M119.0713 32.1119 A0.5000 0.5000 0.0 0 0 119.0218 31.8950" />
<path d="M119.7245 31.2465 A0.5000 0.5000 0.0 0 0 119.0218 31.8950" />
<path d="M119.0218 33.7345 A0.5000 0.5000 0.0 0 0 119.0713 33.5176" />
<path d="M119.0218 33.7345 A0.5000 0.5000 0.0 0 0 119.7245 34.3830" />
<path d="M119.9768 34.3147 A0.5000 0.5000 0.0 0 0 119.7245 34.3830" />
<path d="M119.7245 31.2465 A0.5000 0.5000 0.0 0 0 119.9768 31.3147" />
<path d="M121.8180 34.3830 A0.5000 0.5000 0.0 0 0 121.5657 34.3147" />
<path d="M121.5657 31.3147 A0.5000 0.5000 0.0 0 0 121.8180 31.2465" />
<path d="M122.5207 31.8950 A0.5000 0.5000 0.0 0 0 121.8180 31.2465" />
<path d="M122.5207 31.8950 A0.5000 0.5000 0.0 0 0 122.4712 32.1119" />
<path d="M121.8180 34.3831 A0.5000 0.5000 0.0 0 0 122.5207 33.7345" />
<path d="M122.4712 33.5176 A0.5000 0.5000 0.0 0 0 122.5207 33.7345" />
<path d="M297.6650 90.6676
L297.6650 89.2619
" />
<path d="M298.5705 88.4647
L300.1595 88.4647
" />
<path d="M300.1595 91.4647
L298.5705 91.4647
" />
<path d="M301.0650 89.2619
L301.0650 90.6676
" />
<path d="M297.6650 89.2619 A0.5000 0.5000 0.0 0 0 297.6155 89.0450" />
<path d="M298.3183 88.3965 A0.5000 0.5000 0.0 0 0 297.6155 89.0450" />
<path d="M297.6155 90.8845 A0.5000 0.5000 0.0 0 0 297.6650 90.6676" />
<path d="M297.6155 90.8845 A0.5000 0.5000 0.0 0 0 298.3183 91.5330" />
<path d="M298.5705 91.4647 A0.5000 0.5000 0.0 0 0 298.3183 91.5330" />
<path d="M298.3183 88.3965 A0.5000 0.5000 0.0 0 0 298.5705 88.4647" />
<path d="M300.4117 91.5330 A0.5000 0.5000 0.0 0 0 300.1595 91.4647" />
<path d="M300.1595 88.4647 A0.5000 0.5000 0.0 0 0 300.4117 88.3965" />
<path d="M301.1145 89.0450 A0.5000 0.5000 0.0 0 0 300.4117 88.3965" />
<path d="M301.1145 89.0450 A0.5000 0.5000 0.0 0 0 301.0650 89.2619" />
<path d="M300.4117 91.5331 A0.5000 0.5000 0.0 0 0 301.1145 90.8845" />
<path d="M301.0650 90.6676 A0.5000 0.5000 0.0 0 0 301.1145 90.8845" />
<path d="M164.3150 128.7676
L164.3150 127.3619
" />
<path d="M165.2205 126.5647
L166.8095 126.5647
" />
<path d="M166.8095 129.5647
L165.2205 129.5647
" />
<path d="M167.7150 127.3619
L167.7150 128.7676
" />
<path d="M164.3150 127.3619 A0.5000 0.5000 0.0 0 0 164.2655 127.1450" />
<path d="M164.9683 126.4965 A0.5000 0.5000 0.0 0 0 164.2655 127.1450" />
<path d="M164.2655 128.9845 A0.5000 0.5000 0.0 0 0 164.3150 128.7676" />
<path d="M164.2655 128.9845 A0.5000 0.5000 0.0 0 0 164.9683 129.6330" />
<path d="M165.2205 129.5647 A0.5000 0.5000 0.0 0 0 164.9683 129.6330" />
<path d="M164.9683 126.4965 A0.5000 0.5000 0.0 0 0 165.2205 126.5648" />
<path d="M167.0617 129.6330 A0.5000 0.5000 0.0 0 0 166.8095 129.5648" />
<path d="M166.8095 126.5647 A0.5000 0.5000 0.0 0 0 167.0617 126.4965" />
<path d="M167.7645 127.1450 A0.5000 0.5000 0.0 0 0 167.0617 126.4965" />
<path d="M167.7645 127.1450 A0.5000 0.5000 0.0 0 0 167.7150 127.3619" />
<path d="M167.0617 129.6331 A0.5000 0.5000 0.0 0 0 167.7645 128.9845" />
<path d="M167.7150 128.7676 A0.5000 0.5000 0.0 0 0 167.7645 128.9845" />
<path d="M47.6338 71.6176
L47.6338 70.2119
" />
<path d="M48.5393 69.4147
L50.1282 69.4147
" />
<path d="M50.1282 72.4147
L48.5393 72.4147
" />
<path d="M51.0337 70.2119
L51.0337 71.6176
" />
<path d="M47.6338 70.2119 A0.5000 0.5000 0.0 0 0 47.5843 69.9950" />
<path d="M48.2870 69.3465 A0.5000 0.5000 0.0 0 0 47.5843 69.9950" />
<path d="M47.5843 71.8345 A0.5000 0.5000 0.0 0 0 47.6338 71.6176" />
<path d="M47.5843 71.8345 A0.5000 0.5000 0.0 0 0 48.2870 72.4830" />
<path d="M48.5393 72.4147 A0.5000 0.5000 0.0 0 0 48.2870 72.4830" />
<path d="M48.2870 69.3465 A0.5000 0.5000 0.0 0 0 48.5393 69.4147" />
<path d="M50.3805 72.4830 A0.5000 0.5000 0.0 0 0 50.1282 72.4147" />
<path d="M50.1282 69.4147 A0.5000 0.5000 0.0 0 0 50.3805 69.3465" />
<path d="M51.0832 69.9950 A0.5000 0.5000 0.0 0 0 50.3805 69.3465" />
<path d="M51.0832 69.9950 A0.5000 0.5000 0.0 0 0 51.0337 70.2119" />
<path d="M50.3805 72.4831 A0.5000 0.5000 0.0 0 0 51.0832 71.8345" />
<path d="M51.0337 71.6176 A0.5000 0.5000 0.0 0 0 51.0832 71.8345" />
<path d="M147.6463 71.6176
L147.6463 70.2119
" />
<path d="M148.5518 69.4147
L150.1407 69.4147
" />
<path d="M150.1407 72.4147
L148.5518 72.4147
" />
<path d="M151.0462 70.2119
L151.0462 71.6176
" />
<path d="M147.6463 70.2119 A0.5000 0.5000 0.0 0 0 147.5968 69.9950" />
<path d="M148.2995 69.3465 A0.5000 0.5000 0.0 0 0 147.5968 69.9950" />
<path d="M147.5968 71.8345 A0.5000 0.5000 0.0 0 0 147.6463 71.6176" />
<path d="M147.5968 71.8345 A0.5000 0.5000 0.0 0 0 148.2995 72.4830" />
<path d="M148.5518 72.4147 A0.5000 0.5000 0.0 0 0 148.2995 72.4830" />
<path d="M148.2995 69.3465 A0.5000 0.5000 0.0 0 0 148.5518 69.4147" />
<path d="M150.3930 72.4830 A0.5000 0.5000 0.0 0 0 150.1407 72.4147" />
<path d="M150.1407 69.4147 A0.5000 0.5000 0.0 0 0 150.3930 69.3465" />
<path d="M151.0957 69.9950 A0.5000 0.5000 0.0 0 0 150.3930 69.3465" />
<path d="M151.0957 69.9950 A0.5000 0.5000 0.0 0 0 151.0462 70.2119" />
<path d="M150.3930 72.4831 A0.5000 0.5000 0.0 0 0 151.0957 71.8345" />
<path d="M151.0462 71.6176 A0.5000 0.5000 0.0 0 0 151.0957 71.8345" />
<path d="M157.1713 33.5176
L157.1713 32.1119
" />
<path d="M158.0768 31.3148
L159.6657 31.3148
" />
<path d="M159.6657 34.3147
L158.0768 34.3147
" />
<path d="M160.5712 32.1119
L160.5712 33.5176
" />
<path d="M157.1713 32.1119 A0.5000 0.5000 0.0 0 0 157.1218 31.8950" />
<path d="M157.8245 31.2465 A0.5000 0.5000 0.0 0 0 157.1218 31.8950" />
<path d="M157.1218 33.7345 A0.5000 0.5000 0.0 0 0 157.1713 33.5176" />
<path d="M157.1218 33.7345 A0.5000 0.5000 0.0 0 0 157.8245 34.3830" />
<path d="M158.0768 34.3147 A0.5000 0.5000 0.0 0 0 157.8245 34.3830" />
<path d="M157.8245 31.2465 A0.5000 0.5000 0.0 0 0 158.0768 31.3147" />
<path d="M159.9180 34.3830 A0.5000 0.5000 0.0 0 0 159.6657 34.3147" />
<path d="M159.6657 31.3147 A0.5000 0.5000 0.0 0 0 159.9180 31.2465" />
<path d="M160.6207 31.8950 A0.5000 0.5000 0.0 0 0 159.9180 31.2465" />
<path d="M160.6207 31.8950 A0.5000 0.5000 0.0 0 0 160.5712 32.1119" />
<path d="M159.9180 34.3831 A0.5000 0.5000 0.0 0 0 160.6207 33.7345" />
<path d="M160.5712 33.5176 A0.5000 0.5000 0.0 0 0 160.6207 33.7345" />
<path d="M328.6213 52.5676
L328.6213 51.1619
" />
<path d="M329.5268 50.3648
L331.1157 50.3648
" />
<path d="M331.1157 53.3647
L329.5268 53.3647
" />
<path d="M332.0212 51.1619
L332.0212 52.5676
" />
<path d="M328.6213 51.1619 A0.5000 0.5000 0.0 0 0 328.5718 50.9450" />
<path d="M329.2745 50.2965 A0.5000 0.5000 0.0 0 0 328.5718 50.9450" />
<path d="M328.5718 52.7845 A0.5000 0.5000 0.0 0 0 328.6213 52.5676" />
<path d="M328.5718 52.7845 A0.5000 0.5000 0.0 0 0 329.2745 53.4330" />
<path d="M329.5268 53.3647 A0.5000 0.5000 0.0 0 0 329.2745 53.4330" />
<path d="M329.2745 50.2965 A0.5000 0.5000 0.0 0 0 329.5268 50.3647" />
<path d="M331.3680 53.4330 A0.5000 0.5000 0.0 0 0 331.1157 53.3647" />
<path d="M331.1157 50.3647 A0.5000 0.5000 0.0 0 0 331.3680 50.2965" />
<path d="M332.0707 50.9450 A0.5000 0.5000 0.0 0 0 331.3680 50.2965" />
<path d="M332.0707 50.9450 A0.5000 0.5000 0.0 0 0 332.0212 51.1619" />
<path d="M331.3680 53.4331 A0.5000 0.5000 0.0 0 0 332.0707 52.7845" />
<path d="M332.0212 52.5676 A0.5000 0.5000 0.0 0 0 332.0707 52.7845" />
<path d="M261.9463 71.6176
L261.9463 70.2119
" />
<path d="M262.8518 69.4147
L264.4407 69.4147
" />
<path d="M264.4407 72.4147
L262.8518 72.4147
" />
<path d="M265.3462 70.2119
L265.3462 71.6176
" />
<path d="M261.9463 70.2119 A0.5000 0.5000 0.0 0 0 261.8968 69.9950" />
<path d="M262.5995 69.3465 A0.5000 0.5000 0.0 0 0 261.8968 69.9950" />
<path d="M261.8968 71.8345 A0.5000 0.5000 0.0 0 0 261.9463 71.6176" />
<path d="M261.8968 71.8345 A0.5000 0.5000 0.0 0 0 262.5995 72.4830" />
<path d="M262.8518 72.4147 A0.5000 0.5000 0.0 0 0 262.5995 72.4830" />
<path d="M262.5995 69.3465 A0.5000 0.5000 0.0 0 0 262.8518 69.4147" />
<path d="M264.6930 72.4830 A0.5000 0.5000 0.0 0 0 264.4407 72.4147" />
<path d="M264.4407 69.4147 A0.5000 0.5000 0.0 0 0 264.6930 69.3465" />
<path d="M265.3957 69.9950 A0.5000 0.5000 0.0 0 0 264.6930 69.3465" />
<path d="M265.3957 69.9950 A0.5000 0.5000 0.0 0 0 265.3462 70.2119" />
<path d="M264.6930 72.4831 A0.5000 0.5000 0.0 0 0 265.3957 71.8345" />
<path d="M265.3462 71.6176 A0.5000 0.5000 0.0 0 0 265.3957 71.8345" />
<path d="M304.8088 71.6176
L304.8088 70.2119
" />
<path d="M305.7143 69.4147
L307.3032 69.4147
" />
<path d="M307.3032 72.4147
L305.7143 72.4147
" />
<path d="M308.2087 70.2119
L308.2087 71.6176
" />
<path d="M304.8088 70.2119 A0.5000 0.5000 0.0 0 0 304.7593 69.9950" />
<path d="M305.4620 69.3465 A0.5000 0.5000 0.0 0 0 304.7593 69.9950" />
<path d="M304.7593 71.8345 A0.5000 0.5000 0.0 0 0 304.8088 71.6176" />
<path d="M304.7593 71.8345 A0.5000 0.5000 0.0 0 0 305.4620 72.4830" />
<path d="M305.7143 72.4147 A0.5000 0.5000 0.0 0 0 305.4620 72.4830" />
<path d="M305.4620 69.3465 A0.5000 0.5000 0.0 0 0 305.7143 69.4147" />
<path d="M307.5555 72.4830 A0.5000 0.5000 0.0 0 0 307.3032 72.4147" />
<path d="M307.3032 69.4147 A0.5000 0.5000 0.0 0 0 307.5555 69.3465" />
<path d="M308.2582 69.9950 A0.5000 0.5000 0.0 0 0 307.5555 69.3465" />
<path d="M308.2582 69.9950 A0.5000 0.5000 0.0 0 0 308.2087 70.2119" />
<path d="M307.5555 72.4831 A0.5000 0.5000 0.0 0 0 308.2582 71.8345" />
<path d="M308.2087 71.6176 A0.5000 0.5000 0.0 0 0 308.2582 71.8345" />
<path d="M54.7775 109.7176
L54.7775 108.3119
" />
<path d="M55.6830 107.5147
L57.2720 107.5147
" />
<path d="M57.2720 110.5147
L55.6830 110.5147
" />
<path d="M58.1775 108.3119
L58.1775 109.7176
" />
<path d="M54.7775 108.3119 A0.5000 0.5000 0.0 0 0 54.7280 108.0950" />
<path d="M55.4308 107.4465 A0.5000 0.5000 0.0 0 0 54.7280 108.0950" />
<path d="M54.7280 109.9345 A0.5000 0.5000 0.0 0 0 54.7775 109.7176" />
<path d="M54.7280 109.9345 A0.5000 0.5000 0.0 0 0 55.4308 110.5830" />
<path d="M55.6830 110.5147 A0.5000 0.5000 0.0 0 0 55.4308 110.5830" />
<path d="M55.4308 107.4465 A0.5000 0.5000 0.0 0 0 55.6830 107.5148" />
<path d="M57.5242 110.5830 A0.5000 0.5000 0.0 0 0 57.2720 110.5147" />
<path d="M57.2720 107.5147 A0.5000 0.5000 0.0 0 0 57.5242 107.4465" />
<path d="M58.2270 108.0950 A0.5000 0.5000 0.0 0 0 57.5242 107.4465" />
<path d="M58.2270 108.0950 A0.5000 0.5000 0.0 0 0 58.1775 108.3119" />
<path d="M57.5242 110.5831 A0.5000 0.5000 0.0 0 0 58.2270 109.9345" />
<path d="M58.1775 109.7176 A0.5000 0.5000 0.0 0 0 58.2270 109.9345" />
<path d="M300.0463 52.5676
L300.0463 51.1619
" />
<path d="M300.9518 50.3648
L302.5407 50.3648
" />
<path d="M302.5407 53.3647
L300.9518 53.3647
" />
<path d="M303.4462 51.1619
L303.4462 52.5676
" />
<path d="M300.0463 51.1619 A0.5000 0.5000 0.0 0 0 299.9968 50.9450" />
<path d="M300.6995 50.2965 A0.5000 0.5000 0.0 0 0 299.9968 50.9450" />
<path d="M299.9968 52.7845 A0.5000 0.5000 0.0 0 0 300.0463 52.5676" />
<path d="M299.9968 52.7845 A0.5000 0.5000 0.0 0 0 300.6995 53.4330" />
<path d="M300.9518 53.3647 A0.5000 0.5000 0.0 0 0 300.6995 53.4330" />
<path d="M300.6995 50.2965 A0.5000 0.5000 0.0 0 0 300.9518 50.3647" />
<path d="M302.7930 53.4330 A0.5000 0.5000 0.0 0 0 302.5407 53.3647" />
<path d="M302.5407 50.3647 A0.5000 0.5000 0.0 0 0 302.7930 50.2965" />
<path d="M303.4957 50.9450 A0.5000 0.5000 0.0 0 0 302.7930 50.2965" />
<path d="M303.4957 50.9450 A0.5000 0.5000 0.0 0 0 303.4462 51.1619" />
<path d="M302.7930 53.4331 A0.5000 0.5000 0.0 0 0 303.4957 52.7845" />
<path d="M303.4462 52.5676 A0.5000 0.5000 0.0 0 0 303.4957 52.7845" />
<path d="M252.4213 52.5676
L252.4213 51.1619
" />
<path d="M253.3268 50.3648
L254.9157 50.3648
" />
<path d="M254.9157 53.3647
L253.3268 53.3647
" />
<path d="M255.8212 51.1619
L255.8212 52.5676
" />
<path d="M252.4213 51.1619 A0.5000 0.5000 0.0 0 0 252.3718 50.9450" />
<path d="M253.0745 50.2965 A0.5000 0.5000 0.0 0 0 252.3718 50.9450" />
<path d="M252.3718 52.7845 A0.5000 0.5000 0.0 0 0 252.4213 52.5676" />
<path d="M252.3718 52.7845 A0.5000 0.5000 0.0 0 0 253.0745 53.4330" />
<path d="M253.3268 53.3647 A0.5000 0.5000 0.0 0 0 253.0745 53.4330" />
<path d="M253.0745 50.2965 A0.5000 0.5000 0.0 0 0 253.3268 50.3647" />
<path d="M255.1680 53.4330 A0.5000 0.5000 0.0 0 0 254.9157 53.3647" />
<path d="M254.9157 50.3647 A0.5000 0.5000 0.0 0 0 255.1680 50.2965" />
<path d="M255.8707 50.9450 A0.5000 0.5000 0.0 0 0 255.1680 50.2965" />
<path d="M255.8707 50.9450 A0.5000 0.5000 0.0 0 0 255.8212 51.1619" />
<path d="M255.1680 53.4331 A0.5000 0.5000 0.0 0 0 255.8707 52.7845" />
<path d="M255.8212 52.5676 A0.5000 0.5000 0.0 0 0 255.8707 52.7845" />
<path d="M233.3713 128.7676
L233.3713 127.3619
" />
<path d="M234.2768 126.5647
L235.8657 126.5647
" />
<path d="M235.8657 129.5647
L234.2768 129.5647
" />
<path d="M236.7712 127.3619
L236.7712 128.7676
" />
<path d="M233.3713 127.3619 A0.5000 0.5000 0.0 0 0 233.3218 127.1450" />
<path d="M234.0245 126.4965 A0.5000 0.5000 0.0 0 0 233.3218 127.1450" />
<path d="M233.3218 128.9845 A0.5000 0.5000 0.0 0 0 233.3713 128.7676" />
<path d="M233.3218 128.9845 A0.5000 0.5000 0.0 0 0 234.0245 129.6330" />
<path d="M234.2768 129.5647 A0.5000 0.5000 0.0 0 0 234.0245 129.6330" />
<path d="M234.0245 126.4965 A0.5000 0.5000 0.0 0 0 234.2768 126.5648" />
<path d="M236.1180 129.6330 A0.5000 0.5000 0.0 0 0 235.8657 129.5648" />
<path d="M235.8657 126.5647 A0.5000 0.5000 0.0 0 0 236.1180 126.4965" />
<path d="M236.8207 127.1450 A0.5000 0.5000 0.0 0 0 236.1180 126.4965" />
<path d="M236.8207 127.1450 A0.5000 0.5000 0.0 0 0 236.7712 127.3619" />
<path d="M236.1180 129.6331 A0.5000 0.5000 0.0 0 0 236.8207 128.9845" />
<path d="M236.7712 128.7676 A0.5000 0.5000 0.0 0 0 236.8207 128.9845" />
<path d="M252.4213 33.5176
L252.4213 32.1119
" />
<path d="M253.3268 31.3148
L254.9157 31.3148
" />
<path d="M254.9157 34.3147
L253.3268 34.3147
" />
<path d="M255.8212 32.1119
L255.8212 33.5176
" />
<path d="M252.4213 32.1119 A0.5000 0.5000 0.0 0 0 252.3718 31.8950" />
<path d="M253.0745 31.2465 A0.5000 0.5000 0.0 0 0 252.3718 31.8950" />
<path d="M252.3718 33.7345 A0.5000 0.5000 0.0 0 0 252.4213 33.5176" />
<path d="M252.3718 33.7345 A0.5000 0.5000 0.0 0 0 253.0745 34.3830" />
<path d="M253.3268 34.3147 A0.5000 0.5000 0.0 0 0 253.0745 34.3830" />
<path d="M253.0745 31.2465 A0.5000 0.5000 0.0 0 0 253.3268 31.3147" />
<path d="M255.1680 34.3830 A0.5000 0.5000 0.0 0 0 254.9157 34.3147" />
<path d="M254.9157 31.3147 A0.5000 0.5000 0.0 0 0 255.1680 31.2465" />
<path d="M255.8707 31.8950 A0.5000 0.5000 0.0 0 0 255.1680 31.2465" />
<path d="M255.8707 31.8950 A0.5000 0.5000 0.0 0 0 255.8212 32.1119" />
<path d="M255.1680 34.3831 A0.5000 0.5000 0.0 0 0 255.8707 33.7345" />
<path d="M255.8212 33.5176 A0.5000 0.5000 0.0 0 0 255.8707 33.7345" />
<path d="M271.4713 52.5676
L271.4713 51.1619
" />
<path d="M272.3768 50.3648
L273.9657 50.3648
" />
<path d="M273.9657 53.3647
L272.3768 53.3647
" />
<path d="M274.8712 51.1619
L274.8712 52.5676
" />
<path d="M271.4713 51.1619 A0.5000 0.5000 0.0 0 0 271.4218 50.9450" />
<path d="M272.1245 50.2965 A0.5000 0.5000 0.0 0 0 271.4218 50.9450" />
<path d="M271.4218 52.7845 A0.5000 0.5000 0.0 0 0 271.4713 52.5676" />
<path d="M271.4218 52.7845 A0.5000 0.5000 0.0 0 0 272.1245 53.4330" />
<path d="M272.3768 53.3647 A0.5000 0.5000 0.0 0 0 272.1245 53.4330" />
<path d="M272.1245 50.2965 A0.5000 0.5000 0.0 0 0 272.3768 50.3647" />
<path d="M274.2180 53.4330 A0.5000 0.5000 0.0 0 0 273.9657 53.3647" />
<path d="M273.9657 50.3647 A0.5000 0.5000 0.0 0 0 274.2180 50.2965" />
<path d="M274.9207 50.9450 A0.5000 0.5000 0.0 0 0 274.2180 50.2965" />
<path d="M274.9207 50.9450 A0.5000 0.5000 0.0 0 0 274.8712 51.1619" />
<path d="M274.2180 53.4331 A0.5000 0.5000 0.0 0 0 274.9207 52.7845" />
<path d="M274.8712 52.5676 A0.5000 0.5000 0.0 0 0 274.9207 52.7845" />
<path d="M114.3088 90.6676
L114.3088 89.2619
" />
<path d="M115.2143 88.4647
L116.8032 88.4647
" />
<path d="M116.8032 91.4647
L115.2143 91.4647
" />
<path d="M117.7087 89.2619
L117.7087 90.6676
" />
<path d="M114.3088 89.2619 A0.5000 0.5000 0.0 0 0 114.2593 89.0450" />
<path d="M114.9620 88.3965 A0.5000 0.5000 0.0 0 0 114.2593 89.0450" />
<path d="M114.2593 90.8845 A0.5000 0.5000 0.0 0 0 114.3088 90.6676" />
<path d="M114.2593 90.8845 A0.5000 0.5000 0.0 0 0 114.9620 91.5330" />
<path d="M115.2143 91.4647 A0.5000 0.5000 0.0 0 0 114.9620 91.5330" />
<path d="M114.9620 88.3965 A0.5000 0.5000 0.0 0 0 115.2143 88.4647" />
<path d="M117.0555 91.5330 A0.5000 0.5000 0.0 0 0 116.8032 91.4647" />
<path d="M116.8032 88.4647 A0.5000 0.5000 0.0 0 0 117.0555 88.3965" />
<path d="M117.7582 89.0450 A0.5000 0.5000 0.0 0 0 117.0555 88.3965" />
<path d="M117.7582 89.0450 A0.5000 0.5000 0.0 0 0 117.7087 89.2619" />
<path d="M117.0555 91.5331 A0.5000 0.5000 0.0 0 0 117.7582 90.8845" />
<path d="M117.7087 90.6676 A0.5000 0.5000 0.0 0 0 117.7582 90.8845" />
<path d="M42.8713 52.5676
L42.8713 51.1619
" />
<path d="M43.7768 50.3648
L45.3657 50.3648
" />
<path d="M45.3657 53.3647
L43.7768 53.3647
" />
<path d="M46.2712 51.1619
L46.2712 52.5676
" />
<path d="M42.8713 51.1619 A0.5000 0.5000 0.0 0 0 42.8218 50.9450" />
<path d="M43.5245 50.2965 A0.5000 0.5000 0.0 0 0 42.8218 50.9450" />
<path d="M42.8218 52.7845 A0.5000 0.5000 0.0 0 0 42.8713 52.5676" />
<path d="M42.8218 52.7845 A0.5000 0.5000 0.0 0 0 43.5245 53.4330" />
<path d="M43.7768 53.3647 A0.5000 0.5000 0.0 0 0 43.5245 53.4330" />
<path d="M43.5245 50.2965 A0.5000 0.5000 0.0 0 0 43.7768 50.3647" />
<path d="M45.6180 53.4330 A0.5000 0.5000 0.0 0 0 45.3657 53.3647" />
<path d="M45.3657 50.3647 A0.5000 0.5000 0.0 0 0 45.6180 50.2965" />
<path d="M46.3207 50.9450 A0.5000 0.5000 0.0 0 0 45.6180 50.2965" />
<path d="M46.3207 50.9450 A0.5000 0.5000 0.0 0 0 46.2712 51.1619" />
<path d="M45.6180 53.4331 A0.5000 0.5000 0.0 0 0 46.3207 52.7845" />
<path d="M46.2712 52.5676 A0.5000 0.5000 0.0 0 0 46.3207 52.7845" />
<path d="M223.8463 71.6176
L223.8463 70.2119
" />
<path d="M224.7518 69.4147
L226.3407 69.4147
" />
<path d="M226.3407 72.4147
L224.7518 72.4147
" />
<path d="M227.2462 70.2119
L227.2462 71.6176
" />
<path d="M223.8463 70.2119 A0.5000 0.5000 0.0 0 0 223.7968 69.9950" />
<path d="M224.4995 69.3465 A0.5000 0.5000 0.0 0 0 223.7968 69.9950" />
<path d="M223.7968 71.8345 A0.5000 0.5000 0.0 0 0 223.8463 71.6176" />
<path d="M223.7968 71.8345 A0.5000 0.5000 0.0 0 0 224.4995 72.4830" />
<path d="M224.7518 72.4147 A0.5000 0.5000 0.0 0 0 224.4995 72.4830" />
<path d="M224.4995 69.3465 A0.5000 0.5000 0.0 0 0 224.7518 69.4147" />
<path d="M226.5930 72.4830 A0.5000 0.5000 0.0 0 0 226.3407 72.4147" />
<path d="M226.3407 69.4147 A0.5000 0.5000 0.0 0 0 226.5930 69.3465" />
<path d="M227.2957 69.9950 A0.5000 0.5000 0.0 0 0 226.5930 69.3465" />
<path d="M227.2957 69.9950 A0.5000 0.5000 0.0 0 0 227.2462 70.2119" />
<path d="M226.5930 72.4831 A0.5000 0.5000 0.0 0 0 227.2957 71.8345" />
<path d="M227.2462 71.6176 A0.5000 0.5000 0.0 0 0 227.2957 71.8345" />
<path d="M190.5088 90.6676
L190.5088 89.2619
" />
<path d="M191.4143 88.4647
L193.0032 88.4647
" />
<path d="M193.0032 91.4647
L191.4143 91.4647
" />
<path d="M193.9087 89.2619
L193.9087 90.6676
" />
<path d="M190.5088 89.2619 A0.5000 0.5000 0.0 0 0 190.4593 89.0450" />
<path d="M191.1620 88.3965 A0.5000 0.5000 0.0 0 0 190.4593 89.0450" />
<path d="M190.4593 90.8845 A0.5000 0.5000 0.0 0 0 190.5088 90.6676" />
<path d="M190.4593 90.8845 A0.5000 0.5000 0.0 0 0 191.1620 91.5330" />
<path d="M191.4143 91.4647 A0.5000 0.5000 0.0 0 0 191.1620 91.5330" />
<path d="M191.1620 88.3965 A0.5000 0.5000 0.0 0 0 191.4143 88.4647" />
<path d="M193.2555 91.5330 A0.5000 0.5000 0.0 0 0 193.0032 91.4647" />
<path d="M193.0032 88.4647 A0.5000 0.5000 0.0 0 0 193.2555 88.3965" />
<path d="M193.9582 89.0450 A0.5000 0.5000 0.0 0 0 193.2555 88.3965" />
<path d="M193.9582 89.0450 A0.5000 0.5000 0.0 0 0 193.9087 89.2619" />
<path d="M193.2555 91.5331 A0.5000 0.5000 0.0 0 0 193.9582 90.8845" />
<path d="M193.9087 90.6676 A0.5000 0.5000 0.0 0 0 193.9582 90.8845" />
<path d="M157.1713 52.5676
L157.1713 51.1619
" />
<path d="M158.0768 50.3648
L159.6657 50.3648
" />
<path d="M159.6657 53.3647
L158.0768 53.3647
" />
<path d="M160.5712 51.1619
L160.5712 52.5676
" />
<path d="M157.1713 51.1619 A0.5000 0.5000 0.0 0 0 157.1218 50.9450" />
<path d="M157.8245 50.2965 A0.5000 0.5000 0.0 0 0 157.1218 50.9450" />
<path d="M157.1218 52.7845 A0.5000 0.5000 0.0 0 0 157.1713 52.5676" />
<path d="M157.1218 52.7845 A0.5000 0.5000 0.0 0 0 157.8245 53.4330" />
<path d="M158.0768 53.3647 A0.5000 0.5000 0.0 0 0 157.8245 53.4330" />
<path d="M157.8245 50.2965 A0.5000 0.5000 0.0 0 0 158.0768 50.3647" />
<path d="M159.9180 53.4330 A0.5000 0.5000 0.0 0 0 159.6657 53.3647" />
<path d="M159.6657 50.3647 A0.5000 0.5000 0.0 0 0 159.9180 50.2965" />
<path d="M160.6207 50.9450 A0.5000 0.5000 0.0 0 0 159.9180 50.2965" />
<path d="M160.6207 50.9450 A0.5000 0.5000 0.0 0 0 160.5712 51.1619" />
<path d="M159.9180 53.4331 A0.5000 0.5000 0.0 0 0 160.6207 52.7845" />
<path d="M160.5712 52.5676 A0.5000 0.5000 0.0 0 0 160.6207 52.7845" />
<path d="M69.0650 128.7676
L69.0650 127.3619
" />
<path d="M69.9705 126.5647
L71.5595 126.5647
" />
<path d="M71.5595 129.5647
L69.9705 129.5647
" />
<path d="M72.4650 127.3619
L72.4650 128.7676
" />
<path d="M69.0650 127.3619 A0.5000 0.5000 0.0 0 0 69.0155 127.1450" />
<path d="M69.7183 126.4965 A0.5000 0.5000 0.0 0 0 69.0155 127.1450" />
<path d="M69.0155 128.9845 A0.5000 0.5000 0.0 0 0 69.0650 128.7676" />
<path d="M69.0155 128.9845 A0.5000 0.5000 0.0 0 0 69.7183 129.6330" />
<path d="M69.9705 129.5647 A0.5000 0.5000 0.0 0 0 69.7183 129.6330" />
<path d="M69.7183 126.4965 A0.5000 0.5000 0.0 0 0 69.9705 126.5648" />
<path d="M71.8117 129.6330 A0.5000 0.5000 0.0 0 0 71.5595 129.5648" />
<path d="M71.5595 126.5647 A0.5000 0.5000 0.0 0 0 71.8117 126.4965" />
<path d="M72.5145 127.1450 A0.5000 0.5000 0.0 0 0 71.8117 126.4965" />
<path d="M72.5145 127.1450 A0.5000 0.5000 0.0 0 0 72.4650 127.3619" />
<path d="M71.8117 129.6331 A0.5000 0.5000 0.0 0 0 72.5145 128.9845" />
<path d="M72.4650 128.7676 A0.5000 0.5000 0.0 0 0 72.5145 128.9845" />
<path d="M133.3588 90.6676
L133.3588 89.2619
" />
<path d="M134.2643 88.4647
L135.8532 88.4647
" />
<path d="M135.8532 91.4647
L134.2643 91.4647
" />
<path d="M136.7587 89.2619
L136.7587 90.6676
" />
<path d="M133.3588 89.2619 A0.5000 0.5000 0.0 0 0 133.3093 89.0450" />
<path d="M134.0120 88.3965 A0.5000 0.5000 0.0 0 0 133.3093 89.0450" />
<path d="M133.3093 90.8845 A0.5000 0.5000 0.0 0 0 133.3588 90.6676" />
<path d="M133.3093 90.8845 A0.5000 0.5000 0.0 0 0 134.0120 91.5330" />
<path d="M134.2643 91.4647 A0.5000 0.5000 0.0 0 0 134.0120 91.5330" />
<path d="M134.0120 88.3965 A0.5000 0.5000 0.0 0 0 134.2643 88.4647" />
<path d="M136.1055 91.5330 A0.5000 0.5000 0.0 0 0 135.8532 91.4647" />
<path d="M135.8532 88.4647 A0.5000 0.5000 0.0 0 0 136.1055 88.3965" />
<path d="M136.8082 89.0450 A0.5000 0.5000 0.0 0 0 136.1055 88.3965" />
<path d="M136.8082 89.0450 A0.5000 0.5000 0.0 0 0 136.7587 89.2619" />
<path d="M136.1055 91.5331 A0.5000 0.5000 0.0 0 0 136.8082 90.8845" />
<path d="M136.7587 90.6676 A0.5000 0.5000 0.0 0 0 136.8082 90.8845" />
<path d="M309.5713 33.5176
L309.5713 32.1119
" />
<path d="M310.4768 31.3148
L312.0657 31.3148
" />
<path d="M312.0657 34.3147
L310.4768 34.3147
" />
<path d="M312.9712 32.1119
L312.9712 33.5176
" />
<path d="M309.5713 32.1119 A0.5000 0.5000 0.0 0 0 309.5218 31.8950" />
<path d="M310.2245 31.2465 A0.5000 0.5000 0.0 0 0 309.5218 31.8950" />
<path d="M309.5218 33.7345 A0.5000 0.5000 0.0 0 0 309.5713 33.5176" />
<path d="M309.5218 33.7345 A0.5000 0.5000 0.0 0 0 310.2245 34.3830" />
<path d="M310.4768 34.3147 A0.5000 0.5000 0.0 0 0 310.2245 34.3830" />
<path d="M310.2245 31.2465 A0.5000 0.5000 0.0 0 0 310.4768 31.3147" />
<path d="M312.3180 34.3830 A0.5000 0.5000 0.0 0 0 312.0657 34.3147" />
<path d="M312.0657 31.3147 A0.5000 0.5000 0.0 0 0 312.3180 31.2465" />
<path d="M313.0207 31.8950 A0.5000 0.5000 0.0 0 0 312.3180 31.2465" />
<path d="M313.0207 31.8950 A0.5000 0.5000 0.0 0 0 312.9712 32.1119" />
<path d="M312.3180 34.3831 A0.5000 0.5000 0.0 0 0 313.0207 33.7345" />
<path d="M312.9712 33.5176 A0.5000 0.5000 0.0 0 0 313.0207 33.7345" />
<path d="M219.0838 109.7176
L219.0838 108.3119
" />
<path d="M219.9893 107.5147
L221.5782 107.5147
" />
<path d="M221.5782 110.5147
L219.9893 110.5147
" />
<path d="M222.4837 108.3119
L222.4837 109.7176
" />
<path d="M219.0838 108.3119 A0.5000 0.5000 0.0 0 0 219.0343 108.0950" />
<path d="M219.7370 107.4465 A0.5000 0.5000 0.0 0 0 219.0343 108.0950" />
<path d="M219.0343 109.9345 A0.5000 0.5000 0.0 0 0 219.0838 109.7176" />
<path d="M219.0343 109.9345 A0.5000 0.5000 0.0 0 0 219.7370 110.5830" />
<path d="M219.9893 110.5147 A0.5000 0.5000 0.0 0 0 219.7370 110.5830" />
<path d="M219.7370 107.4465 A0.5000 0.5000 0.0 0 0 219.9893 107.5148" />
<path d="M221.8305 110.5830 A0.5000 0.5000 0.0 0 0 221.5782 110.5147" />
<path d="M221.5782 107.5147 A0.5000 0.5000 0.0 0 0 221.8305 107.4465" />
<path d="M222.5332 108.0950 A0.5000 0.5000 0.0 0 0 221.8305 107.4465" />
<path d="M222.5332 108.0950 A0.5000 0.5000 0.0 0 0 222.4837 108.3119" />
<path d="M221.8305 110.5831 A0.5000 0.5000 0.0 0 0 222.5332 109.9345" />
<path d="M222.4837 109.7176 A0.5000 0.5000 0.0 0 0 222.5332 109.9345" />
<path d="M119.0713 52.5676
L119.0713 51.1619
" />
<path d="M119.9768 50.3648
L121.5657 50.3648
" />
<path d="M121.5657 53.3647
L119.9768 53.3647
" />
<path d="M122.4712 51.1619
L122.4712 52.5676
" />
<path d="M119.0713 51.1619 A0.5000 0.5000 0.0 0 0 119.0218 50.9450" />
<path d="M119.7245 50.2965 A0.5000 0.5000 0.0 0 0 119.0218 50.9450" />
<path d="M119.0218 52.7845 A0.5000 0.5000 0.0 0 0 119.0713 52.5676" />
<path d="M119.0218 52.7845 A0.5000 0.5000 0.0 0 0 119.7245 53.4330" />
<path d="M119.9768 53.3647 A0.5000 0.5000 0.0 0 0 119.7245 53.4330" />
<path d="M119.7245 50.2965 A0.5000 0.5000 0.0 0 0 119.9768 50.3647" />
<path d="M121.8180 53.4330 A0.5000 0.5000 0.0 0 0 121.5657 53.3647" />
<path d="M121.5657 50.3647 A0.5000 0.5000 0.0 0 0 121.8180 50.2965" />
<path d="M122.5207 50.9450 A0.5000 0.5000 0.0 0 0 121.8180 50.2965" />
<path d="M122.5207 50.9450 A0.5000 0.5000 0.0 0 0 122.4712 51.1619" />
<path d="M121.8180 53.4331 A0.5000 0.5000 0.0 0 0 122.5207 52.7845" />
<path d="M122.4712 52.5676 A0.5000 0.5000 0.0 0 0 122.5207 52.7845" />
<path d="M195.2713 52.5676
L195.2713 51.1619
" />
<path d="M196.1768 50.3648
L197.7657 50.3648
" />
<path d="M197.7657 53.3647
L196.1768 53.3647
" />
<path d="M198.6712 51.1619
L198.6712 52.5676
" />
<path d="M195.2713 51.1619 A0.5000 0.5000 0.0 0 0 195.2218 50.9450" />
<path d="M195.9245 50.2965 A0.5000 0.5000 0.0 0 0 195.2218 50.9450" />
<path d="M195.2218 52.7845 A0.5000 0.5000 0.0 0 0 195.2713 52.5676" />
<path d="M195.2218 52.7845 A0.5000 0.5000 0.0 0 0 195.9245 53.4330" />
<path d="M196.1768 53.3647 A0.5000 0.5000 0.0 0 0 195.9245 53.4330" />
<path d="M195.9245 50.2965 A0.5000 0.5000 0.0 0 0 196.1768 50.3647" />
<path d="M198.0180 53.4330 A0.5000 0.5000 0.0 0 0 197.7657 53.3647" />
<path d="M197.7657 50.3647 A0.5000 0.5000 0.0 0 0 198.0180 50.2965" />
<path d="M198.7207 50.9450 A0.5000 0.5000 0.0 0 0 198.0180 50.2965" />
<path d="M198.7207 50.9450 A0.5000 0.5000 0.0 0 0 198.6712 51.1619" />
<path d="M198.0180 53.4331 A0.5000 0.5000 0.0 0 0 198.7207 52.7845" />
<path d="M198.6712 52.5676 A0.5000 0.5000 0.0 0 0 198.7207 52.7845" />
<path d="M171.4588 90.6676
L171.4588 89.2619
" />
<path d="M172.3643 88.4647
L173.9532 88.4647
" />
<path d="M173.9532 91.4647
L172.3643 91.4647
" />
<path d="M174.8587 89.2619
L174.8587 90.6676
" />
<path d="M171.4588 89.2619 A0.5000 0.5000 0.0 0 0 171.4093 89.0450" />
<path d="M172.1120 88.3965 A0.5000 0.5000 0.0 0 0 171.4093 89.0450" />
<path d="M171.4093 90.8845 A0.5000 0.5000 0.0 0 0 171.4588 90.6676" />
<path d="M171.4093 90.8845 A0.5000 0.5000 0.0 0 0 172.1120 91.5330" />
<path d="M172.3643 91.4647 A0.5000 0.5000 0.0 0 0 172.1120 91.5330" />
<path d="M172.1120 88.3965 A0.5000 0.5000 0.0 0 0 172.3643 88.4647" />
<path d="M174.2055 91.5330 A0.5000 0.5000 0.0 0 0 173.9532 91.4647" />
<path d="M173.9532 88.4647 A0.5000 0.5000 0.0 0 0 174.2055 88.3965" />
<path d="M174.9082 89.0450 A0.5000 0.5000 0.0 0 0 174.2055 88.3965" />
<path d="M174.9082 89.0450 A0.5000 0.5000 0.0 0 0 174.8587 89.2619" />
<path d="M174.2055 91.5331 A0.5000 0.5000 0.0 0 0 174.9082 90.8845" />
<path d="M174.8587 90.6676 A0.5000 0.5000 0.0 0 0 174.9082 90.8845" />
<path d="M80.9862 33.5570
L80.9862 32.1513
" />
<path d="M81.8917 31.3541
L83.4806 31.3541
" />
<path d="M83.4806 34.3541
L81.8917 34.3541
" />
<path d="M84.3861 32.1513
L84.3861 33.5570
" />
<path d="M80.9862 32.1513 A0.5000 0.5000 0.0 0 0 80.9367 31.9344" />
<path d="M81.6394 31.2859 A0.5000 0.5000 0.0 0 0 80.9367 31.9344" />
<path d="M80.9367 33.7739 A0.5000 0.5000 0.0 0 0 80.9862 33.5570" />
<path d="M80.9367 33.7739 A0.5000 0.5000 0.0 0 0 81.6394 34.4224" />
<path d="M81.8917 34.3541 A0.5000 0.5000 0.0 0 0 81.6394 34.4224" />
<path d="M81.6394 31.2859 A0.5000 0.5000 0.0 0 0 81.8917 31.3541" />
<path d="M83.7329 34.4224 A0.5000 0.5000 0.0 0 0 83.4806 34.3541" />
<path d="M83.4806 31.3541 A0.5000 0.5000 0.0 0 0 83.7329 31.2859" />
<path d="M84.4356 31.9344 A0.5000 0.5000 0.0 0 0 83.7329 31.2859" />
<path d="M84.4356 31.9344 A0.5000 0.5000 0.0 0 0 84.3861 32.1513" />
<path d="M83.7329 34.4225 A0.5000 0.5000 0.0 0 0 84.4356 33.7739" />
<path d="M84.3861 33.5570 A0.5000 0.5000 0.0 0 0 84.4356 33.7739" />
<path d="M100.0213 52.5676
L100.0213 51.1619
" />
<path d="M100.9268 50.3648
L102.5157 50.3648
" />
<path d="M102.5157 53.3647
L100.9268 53.3647
" />
<path d="M103.4212 51.1619
L103.4212 52.5676
" />
<path d="M100.0213 51.1619 A0.5000 0.5000 0.0 0 0 99.9718 50.9450" />
<path d="M100.6745 50.2965 A0.5000 0.5000 0.0 0 0 99.9718 50.9450" />
<path d="M99.9718 52.7845 A0.5000 0.5000 0.0 0 0 100.0213 52.5676" />
<path d="M99.9718 52.7845 A0.5000 0.5000 0.0 0 0 100.6745 53.4330" />
<path d="M100.9268 53.3647 A0.5000 0.5000 0.0 0 0 100.6745 53.4330" />
<path d="M100.6745 50.2965 A0.5000 0.5000 0.0 0 0 100.9268 50.3647" />
<path d="M102.7680 53.4330 A0.5000 0.5000 0.0 0 0 102.5157 53.3647" />
<path d="M102.5157 50.3647 A0.5000 0.5000 0.0 0 0 102.7680 50.2965" />
<path d="M103.4707 50.9450 A0.5000 0.5000 0.0 0 0 102.7680 50.2965" />
<path d="M103.4707 50.9450 A0.5000 0.5000 0.0 0 0 103.4212 51.1619" />
<path d="M102.7680 53.4331 A0.5000 0.5000 0.0 0 0 103.4707 52.7845" />
<path d="M103.4212 52.5676 A0.5000 0.5000 0.0 0 0 103.4707 52.7845" />
<path d="M42.8966 33.5570
L42.8966 32.1513
" />
<path d="M43.8021 31.3541
L45.3910 31.3541
" />
<path d="M45.3910 34.3541
L43.8021 34.3541
" />
<path d="M46.2965 32.1513
L46.2965 33.5570
" />
<path d="M42.8966 32.1513 A0.5000 0.5000 0.0 0 0 42.8471 31.9344" />
<path d="M43.5498 31.2859 A0.5000 0.5000 0.0 0 0 42.8471 31.9344" />
<path d="M42.8471 33.7739 A0.5000 0.5000 0.0 0 0 42.8966 33.5570" />
<path d="M42.8471 33.7739 A0.5000 0.5000 0.0 0 0 43.5498 34.4224" />
<path d="M43.8021 34.3541 A0.5000 0.5000 0.0 0 0 43.5498 34.4224" />
<path d="M43.5498 31.2859 A0.5000 0.5000 0.0 0 0 43.8021 31.3541" />
<path d="M45.6433 34.4224 A0.5000 0.5000 0.0 0 0 45.3910 34.3541" />
<path d="M45.3910 31.3541 A0.5000 0.5000 0.0 0 0 45.6433 31.2859" />
<path d="M46.3460 31.9344 A0.5000 0.5000 0.0 0 0 45.6433 31.2859" />
<path d="M46.3460 31.9344 A0.5000 0.5000 0.0 0 0 46.2965 32.1513" />
<path d="M45.6433 34.4225 A0.5000 0.5000 0.0 0 0 46.3460 33.7739" />
<path d="M46.2965 33.5570 A0.5000 0.5000 0.0 0 0 46.3460 33.7739" />
<path d="M161.9338 109.7176
L161.9338 108.3119
" />
<path d="M162.8393 107.5147
L164.4282 107.5147
" />
<path d="M164.4282 110.5147
L162.8393 110.5147
" />
<path d="M165.3337 108.3119
L165.3337 109.7176
" />
<path d="M161.9338 108.3119 A0.5000 0.5000 0.0 0 0 161.8843 108.0950" />
<path d="M162.5870 107.4465 A0.5000 0.5000 0.0 0 0 161.8843 108.0950" />
<path d="M161.8843 109.9345 A0.5000 0.5000 0.0 0 0 161.9338 109.7176" />
<path d="M161.8843 109.9345 A0.5000 0.5000 0.0 0 0 162.5870 110.5830" />
<path d="M162.8393 110.5147 A0.5000 0.5000 0.0 0 0 162.5870 110.5830" />
<path d="M162.5870 107.4465 A0.5000 0.5000 0.0 0 0 162.8393 107.5148" />
<path d="M164.6805 110.5830 A0.5000 0.5000 0.0 0 0 164.4282 110.5147" />
<path d="M164.4282 107.5147 A0.5000 0.5000 0.0 0 0 164.6805 107.4465" />
<path d="M165.3832 108.0950 A0.5000 0.5000 0.0 0 0 164.6805 107.4465" />
<path d="M165.3832 108.0950 A0.5000 0.5000 0.0 0 0 165.3337 108.3119" />
<path d="M164.6805 110.5831 A0.5000 0.5000 0.0 0 0 165.3832 109.9345" />
<path d="M165.3337 109.7176 A0.5000 0.5000 0.0 0 0 165.3832 109.9345" />
<path d="M92.8775 128.7676
L92.8775 127.3619
" />
<path d="M93.7830 126.5647
L95.3720 126.5647
" />
<path d="M95.3720 129.5647
L93.7830 129.5647
" />
<path d="M96.2775 127.3619
L96.2775 128.7676
" />
<path d="M92.8775 127.3619 A0.5000 0.5000 0.0 0 0 92.8280 127.1450" />
<path d="M93.5308 126.4965 A0.5000 0.5000 0.0 0 0 92.8280 127.1450" />
<path d="M92.8280 128.9845 A0.5000 0.5000 0.0 0 0 92.8775 128.7676" />
<path d="M92.8280 128.9845 A0.5000 0.5000 0.0 0 0 93.5308 129.6330" />
<path d="M93.7830 129.5647 A0.5000 0.5000 0.0 0 0 93.5308 129.6330" />
<path d="M93.5308 126.4965 A0.5000 0.5000 0.0 0 0 93.7830 126.5648" />
<path d="M95.6242 129.6330 A0.5000 0.5000 0.0 0 0 95.3720 129.5648" />
<path d="M95.3720 126.5647 A0.5000 0.5000 0.0 0 0 95.6242 126.4965" />
<path d="M96.3270 127.1450 A0.5000 0.5000 0.0 0 0 95.6242 126.4965" />
<path d="M96.3270 127.1450 A0.5000 0.5000 0.0 0 0 96.2775 127.3619" />
<path d="M95.6242 129.6331 A0.5000 0.5000 0.0 0 0 96.3270 128.9845" />
<path d="M96.2775 128.7676 A0.5000 0.5000 0.0 0 0 96.3270 128.9845" />
<path d="M85.7338 109.7176
L85.7338 108.3119
" />
<path d="M86.6393 107.5147
L88.2282 107.5147
" />
<path d="M88.2282 110.5147
L86.6393 110.5147
" />
<path d="M89.1337 108.3119
L89.1337 109.7176
" />
<path d="M85.7338 108.3119 A0.5000 0.5000 0.0 0 0 85.6843 108.0950" />
<path d="M86.3870 107.4465 A0.5000 0.5000 0.0 0 0 85.6843 108.0950" />
<path d="M85.6843 109.9345 A0.5000 0.5000 0.0 0 0 85.7338 109.7176" />
<path d="M85.6843 109.9345 A0.5000 0.5000 0.0 0 0 86.3870 110.5830" />
<path d="M86.6393 110.5147 A0.5000 0.5000 0.0 0 0 86.3870 110.5830" />
<path d="M86.3870 107.4465 A0.5000 0.5000 0.0 0 0 86.6393 107.5148" />
<path d="M88.4805 110.5830 A0.5000 0.5000 0.0 0 0 88.2282 110.5147" />
<path d="M88.2282 107.5147 A0.5000 0.5000 0.0 0 0 88.4805 107.4465" />
<path d="M89.1832 108.0950 A0.5000 0.5000 0.0 0 0 88.4805 107.4465" />
<path d="M89.1832 108.0950 A0.5000 0.5000 0.0 0 0 89.1337 108.3119" />
<path d="M88.4805 110.5831 A0.5000 0.5000 0.0 0 0 89.1832 109.9345" />
<path d="M89.1337 109.7176 A0.5000 0.5000 0.0 0 0 89.1832 109.9345" />
<path d="M180.9838 109.7176
L180.9838 108.3119
" />
<path d="M181.8893 107.5147
L183.4782 107.5147
" />
<path d="M183.4782 110.5147
L181.8893 110.5147
" />
<path d="M184.3837 108.3119
L184.3837 109.7176
" />
<path d="M180.9838 108.3119 A0.5000 0.5000 0.0 0 0 180.9343 108.0950" />
<path d="M181.6370 107.4465 A0.5000 0.5000 0.0 0 0 180.9343 108.0950" />
<path d="M180.9343 109.9345 A0.5000 0.5000 0.0 0 0 180.9838 109.7176" />
<path d="M180.9343 109.9345 A0.5000 0.5000 0.0 0 0 181.6370 110.5830" />
<path d="M181.8893 110.5147 A0.5000 0.5000 0.0 0 0 181.6370 110.5830" />
<path d="M181.6370 107.4465 A0.5000 0.5000 0.0 0 0 181.8893 107.5148" />
<path d="M183.7305 110.5830 A0.5000 0.5000 0.0 0 0 183.4782 110.5147" />
<path d="M183.4782 107.5147 A0.5000 0.5000 0.0 0 0 183.7305 107.4465" />
<path d="M184.4332 108.0950 A0.5000 0.5000 0.0 0 0 183.7305 107.4465" />
<path d="M184.4332 108.0950 A0.5000 0.5000 0.0 0 0 184.3837 108.3119" />
<path d="M183.7305 110.5831 A0.5000 0.5000 0.0 0 0 184.4332 109.9345" />
<path d="M184.3837 109.7176 A0.5000 0.5000 0.0 0 0 184.4332 109.9345" />
<path d="M283.3775 109.7176
L283.3775 108.3119
" />
<path d="M284.2830 107.5147
L285.8720 107.5147
" />
<path d="M285.8720 110.5147
L284.2830 110.5147
" />
<path d="M286.7775 108.3119
L286.7775 109.7176
" />
<path d="M283.3775 108.3119 A0.5000 0.5000 0.0 0 0 283.3280 108.0950" />
<path d="M284.0308 107.4465 A0.5000 0.5000 0.0 0 0 283.3280 108.0950" />
<path d="M283.3280 109.9345 A0.5000 0.5000 0.0 0 0 283.3775 109.7176" />
<path d="M283.3280 109.9345 A0.5000 0.5000 0.0 0 0 284.0308 110.5830" />
<path d="M284.2830 110.5147 A0.5000 0.5000 0.0 0 0 284.0308 110.5830" />
<path d="M284.0308 107.4465 A0.5000 0.5000 0.0 0 0 284.2830 107.5148" />
<path d="M286.1242 110.5830 A0.5000 0.5000 0.0 0 0 285.8720 110.5147" />
<path d="M285.8720 107.5147 A0.5000 0.5000 0.0 0 0 286.1242 107.4465" />
<path d="M286.8270 108.0950 A0.5000 0.5000 0.0 0 0 286.1242 107.4465" />
<path d="M286.8270 108.0950 A0.5000 0.5000 0.0 0 0 286.7775 108.3119" />
<path d="M286.1242 110.5831 A0.5000 0.5000 0.0 0 0 286.8270 109.9345" />
<path d="M286.7775 109.7176 A0.5000 0.5000 0.0 0 0 286.8270 109.9345" />
<path d="M214.3213 33.5176
L214.3213 32.1119
" />
<path d="M215.2268 31.3148
L216.8157 31.3148
" />
<path d="M216.8157 34.3147
L215.2268 34.3147
" />
<path d="M217.7212 32.1119
L217.7212 33.5176
" />
<path d="M214.3213 32.1119 A0.5000 0.5000 0.0 0 0 214.2718 31.8950" />
<path d="M214.9745 31.2465 A0.5000 0.5000 0.0 0 0 214.2718 31.8950" />
<path d="M214.2718 33.7345 A0.5000 0.5000 0.0 0 0 214.3213 33.5176" />
<path d="M214.2718 33.7345 A0.5000 0.5000 0.0 0 0 214.9745 34.3830" />
<path d="M215.2268 34.3147 A0.5000 0.5000 0.0 0 0 214.9745 34.3830" />
<path d="M214.9745 31.2465 A0.5000 0.5000 0.0 0 0 215.2268 31.3147" />
<path d="M217.0680 34.3830 A0.5000 0.5000 0.0 0 0 216.8157 34.3147" />
<path d="M216.8157 31.3147 A0.5000 0.5000 0.0 0 0 217.0680 31.2465" />
<path d="M217.7707 31.8950 A0.5000 0.5000 0.0 0 0 217.0680 31.2465" />
<path d="M217.7707 31.8950 A0.5000 0.5000 0.0 0 0 217.7212 32.1119" />
<path d="M217.0680 34.3831 A0.5000 0.5000 0.0 0 0 217.7707 33.7345" />
<path d="M217.7212 33.5176 A0.5000 0.5000 0.0 0 0 217.7707 33.7345" />
<path d="M252.4213 128.7676
L252.4213 127.3619
" />
<path d="M253.3268 126.5647
L254.9157 126.5647
" />
<path d="M254.9157 129.5647
L253.3268 129.5647
" />
<path d="M255.8212 127.3619
L255.8212 128.7676
" />
<path d="M252.4213 127.3619 A0.5000 0.5000 0.0 0 0 252.3718 127.1450" />
<path d="M253.0745 126.4965 A0.5000 0.5000 0.0 0 0 252.3718 127.1450" />
<path d="M252.3718 128.9845 A0.5000 0.5000 0.0 0 0 252.4213 128.7676" />
<path d="M252.3718 128.9845 A0.5000 0.5000 0.0 0 0 253.0745 129.6330" />
<path d="M253.3268 129.5647 A0.5000 0.5000 0.0 0 0 253.0745 129.6330" />
<path d="M253.0745 126.4965 A0.5000 0.5000 0.0 0 0 253.3268 126.5648" />
<path d="M255.1680 129.6330 A0.5000 0.5000 0.0 0 0 254.9157 129.5648" />
<path d="M254.9157 126.5647 A0.5000 0.5000 0.0 0 0 255.1680 126.4965" />
<path d="M255.8707 127.1450 A0.5000 0.5000 0.0 0 0 255.1680 126.4965" />
<path d="M255.8707 127.1450 A0.5000 0.5000 0.0 0 0 255.8212 127.3619" />
<path d="M255.1680 129.6331 A0.5000 0.5000 0.0 0 0 255.8707 128.9845" />
<path d="M255.8212 128.7676 A0.5000 0.5000 0.0 0 0 255.8707 128.9845" />
<path d="M80.9713 52.5676
L80.9713 51.1619
" />
<path d="M81.8768 50.3648
L83.4657 50.3648
" />
<path d="M83.4657 53.3647
L81.8768 53.3647
" />
<path d="M84.3712 51.1619
L84.3712 52.5676
" />
<path d="M80.9713 51.1619 A0.5000 0.5000 0.0 0 0 80.9218 50.9450" />
<path d="M81.6245 50.2965 A0.5000 0.5000 0.0 0 0 80.9218 50.9450" />
<path d="M80.9218 52.7845 A0.5000 0.5000 0.0 0 0 80.9713 52.5676" />
<path d="M80.9218 52.7845 A0.5000 0.5000 0.0 0 0 81.6245 53.4330" />
<path d="M81.8768 53.3647 A0.5000 0.5000 0.0 0 0 81.6245 53.4330" />
<path d="M81.6245 50.2965 A0.5000 0.5000 0.0 0 0 81.8768 50.3647" />
<path d="M83.7180 53.4330 A0.5000 0.5000 0.0 0 0 83.4657 53.3647" />
<path d="M83.4657 50.3647 A0.5000 0.5000 0.0 0 0 83.7180 50.2965" />
<path d="M84.4207 50.9450 A0.5000 0.5000 0.0 0 0 83.7180 50.2965" />
<path d="M84.4207 50.9450 A0.5000 0.5000 0.0 0 0 84.3712 51.1619" />
<path d="M83.7180 53.4331 A0.5000 0.5000 0.0 0 0 84.4207 52.7845" />
<path d="M84.3712 52.5676 A0.5000 0.5000 0.0 0 0 84.4207 52.7845" />
<path d="M247.6588 90.6676
L247.6588 89.2619
" />
<path d="M248.5643 88.4647
L250.1532 88.4647
" />
<path d="M250.1532 91.4647
L248.5643 91.4647
" />
<path d="M251.0587 89.2619
L251.0587 90.6676
" />
<path d="M247.6588 89.2619 A0.5000 0.5000 0.0 0 0 247.6093 89.0450" />
<path d="M248.3120 88.3965 A0.5000 0.5000 0.0 0 0 247.6093 89.0450" />
<path d="M247.6093 90.8845 A0.5000 0.5000 0.0 0 0 247.6588 90.6676" />
<path d="M247.6093 90.8845 A0.5000 0.5000 0.0 0 0 248.3120 91.5330" />
<path d="M248.5643 91.4647 A0.5000 0.5000 0.0 0 0 248.3120 91.5330" />
<path d="M248.3120 88.3965 A0.5000 0.5000 0.0 0 0 248.5643 88.4647" />
<path d="M250.4055 91.5330 A0.5000 0.5000 0.0 0 0 250.1532 91.4647" />
<path d="M250.1532 88.4647 A0.5000 0.5000 0.0 0 0 250.4055 88.3965" />
<path d="M251.1082 89.0450 A0.5000 0.5000 0.0 0 0 250.4055 88.3965" />
<path d="M251.1082 89.0450 A0.5000 0.5000 0.0 0 0 251.0587 89.2619" />
<path d="M250.4055 91.5331 A0.5000 0.5000 0.0 0 0 251.1082 90.8845" />
<path d="M251.0587 90.6676 A0.5000 0.5000 0.0 0 0 251.1082 90.8845" />
<path d="M138.1213 52.5676
L138.1213 51.1619
" />
<path d="M139.0268 50.3648
L140.6157 50.3648
" />
<path d="M140.6157 53.3647
L139.0268 53.3647
" />
<path d="M141.5212 51.1619
L141.5212 52.5676
" />
<path d="M138.1213 51.1619 A0.5000 0.5000 0.0 0 0 138.0718 50.9450" />
<path d="M138.7745 50.2965 A0.5000 0.5000 0.0 0 0 138.0718 50.9450" />
<path d="M138.0718 52.7845 A0.5000 0.5000 0.0 0 0 138.1213 52.5676" />
<path d="M138.0718 52.7845 A0.5000 0.5000 0.0 0 0 138.7745 53.4330" />
<path d="M139.0268 53.3647 A0.5000 0.5000 0.0 0 0 138.7745 53.4330" />
<path d="M138.7745 50.2965 A0.5000 0.5000 0.0 0 0 139.0268 50.3647" />
<path d="M140.8680 53.4330 A0.5000 0.5000 0.0 0 0 140.6157 53.3647" />
<path d="M140.6157 50.3647 A0.5000 0.5000 0.0 0 0 140.8680 50.2965" />
<path d="M141.5707 50.9450 A0.5000 0.5000 0.0 0 0 140.8680 50.2965" />
<path d="M141.5707 50.9450 A0.5000 0.5000 0.0 0 0 141.5212 51.1619" />
<path d="M140.8680 53.4331 A0.5000 0.5000 0.0 0 0 141.5707 52.7845" />
<path d="M141.5212 52.5676 A0.5000 0.5000 0.0 0 0 141.5707 52.7845" />
<path d="M45.2525 128.7676
L45.2525 127.3619
" />
<path d="M46.1580 126.5647
L47.7470 126.5647
" />
<path d="M47.7470 129.5647
L46.1580 129.5647
" />
<path d="M48.6525 127.3619
L48.6525 128.7676
" />
<path d="M45.2525 127.3619 A0.5000 0.5000 0.0 0 0 45.2030 127.1450" />
<path d="M45.9058 126.4965 A0.5000 0.5000 0.0 0 0 45.2030 127.1450" />
<path d="M45.2030 128.9845 A0.5000 0.5000 0.0 0 0 45.2525 128.7676" />
<path d="M45.2030 128.9845 A0.5000 0.5000 0.0 0 0 45.9058 129.6330" />
<path d="M46.1580 129.5647 A0.5000 0.5000 0.0 0 0 45.9058 129.6330" />
<path d="M45.9058 126.4965 A0.5000 0.5000 0.0 0 0 46.1580 126.5648" />
<path d="M47.9992 129.6330 A0.5000 0.5000 0.0 0 0 47.7470 129.5648" />
<path d="M47.7470 126.5647 A0.5000 0.5000 0.0 0 0 47.9992 126.4965" />
<path d="M48.7020 127.1450 A0.5000 0.5000 0.0 0 0 47.9992 126.4965" />
<path d="M48.7020 127.1450 A0.5000 0.5000 0.0 0 0 48.6525 127.3619" />
<path d="M47.9992 129.6331 A0.5000 0.5000 0.0 0 0 48.7020 128.9845" />
<path d="M48.6525 128.7676 A0.5000 0.5000 0.0 0 0 48.7020 128.9845" />
<path d="M266.7088 90.6676
L266.7088 89.2619
" />
<path d="M267.6143 88.4647
L269.2032 88.4647
" />
<path d="M269.2032 91.4647
L267.6143 91.4647
" />
<path d="M270.1087 89.2619
L270.1087 90.6676
" />
<path d="M266.7088 89.2619 A0.5000 0.5000 0.0 0 0 266.6593 89.0450" />
<path d="M267.3620 88.3965 A0.5000 0.5000 0.0 0 0 266.6593 89.0450" />
<path d="M266.6593 90.8845 A0.5000 0.5000 0.0 0 0 266.7088 90.6676" />
<path d="M266.6593 90.8845 A0.5000 0.5000 0.0 0 0 267.3620 91.5330" />
<path d="M267.6143 91.4647 A0.5000 0.5000 0.0 0 0 267.3620 91.5330" />
<path d="M267.3620 88.3965 A0.5000 0.5000 0.0 0 0 267.6143 88.4647" />
<path d="M269.4555 91.5330 A0.5000 0.5000 0.0 0 0 269.2032 91.4647" />
<path d="M269.2032 88.4647 A0.5000 0.5000 0.0 0 0 269.4555 88.3965" />
<path d="M270.1582 89.0450 A0.5000 0.5000 0.0 0 0 269.4555 88.3965" />
<path d="M270.1582 89.0450 A0.5000 0.5000 0.0 0 0 270.1087 89.2619" />
<path d="M269.4555 91.5331 A0.5000 0.5000 0.0 0 0 270.1582 90.8845" />
<path d="M270.1087 90.6676 A0.5000 0.5000 0.0 0 0 270.1582 90.8845" />
<path d="M233.3713 33.5176
L233.3713 32.1119
" />
<path d="M234.2768 31.3148
L235.8657 31.3148
" />
<path d="M235.8657 34.3147
L234.2768 34.3147
" />
<path d="M236.7712 32.1119
L236.7712 33.5176
" />
<path d="M233.3713 32.1119 A0.5000 0.5000 0.0 0 0 233.3218 31.8950" />
<path d="M234.0245 31.2465 A0.5000 0.5000 0.0 0 0 233.3218 31.8950" />
<path d="M233.3218 33.7345 A0.5000 0.5000 0.0 0 0 233.3713 33.5176" />
<path d="M233.3218 33.7345 A0.5000 0.5000 0.0 0 0 234.0245 34.3830" />
<path d="M234.2768 34.3147 A0.5000 0.5000 0.0 0 0 234.0245 34.3830" />
<path d="M234.0245 31.2465 A0.5000 0.5000 0.0 0 0 234.2768 31.3147" />
<path d="M236.1180 34.3830 A0.5000 0.5000 0.0 0 0 235.8657 34.3147" />
<path d="M235.8657 31.3147 A0.5000 0.5000 0.0 0 0 236.1180 31.2465" />
<path d="M236.8207 31.8950 A0.5000 0.5000 0.0 0 0 236.1180 31.2465" />
<path d="M236.8207 31.8950 A0.5000 0.5000 0.0 0 0 236.7712 32.1119" />
<path d="M236.1180 34.3831 A0.5000 0.5000 0.0 0 0 236.8207 33.7345" />
<path d="M236.7712 33.5176 A0.5000 0.5000 0.0 0 0 236.8207 33.7345" />
<path d="M209.5588 90.6676
L209.5588 89.2619
" />
<path d="M210.4643 88.4647
L212.0532 88.4647
" />
<path d="M212.0532 91.4647
L210.4643 91.4647
" />
<path d="M212.9587 89.2619
L212.9587 90.6676
" />
<path d="M209.5588 89.2619 A0.5000 0.5000 0.0 0 0 209.5093 89.0450" />
<path d="M210.2120 88.3965 A0.5000 0.5000 0.0 0 0 209.5093 89.0450" />
<path d="M209.5093 90.8845 A0.5000 0.5000 0.0 0 0 209.5588 90.6676" />
<path d="M209.5093 90.8845 A0.5000 0.5000 0.0 0 0 210.2120 91.5330" />
<path d="M210.4643 91.4647 A0.5000 0.5000 0.0 0 0 210.2120 91.5330" />
<path d="M210.2120 88.3965 A0.5000 0.5000 0.0 0 0 210.4643 88.4647" />
<path d="M212.3055 91.5330 A0.5000 0.5000 0.0 0 0 212.0532 91.4647" />
<path d="M212.0532 88.4647 A0.5000 0.5000 0.0 0 0 212.3055 88.3965" />
<path d="M213.0082 89.0450 A0.5000 0.5000 0.0 0 0 212.3055 88.3965" />
<path d="M213.0082 89.0450 A0.5000 0.5000 0.0 0 0 212.9587 89.2619" />
<path d="M212.3055 91.5331 A0.5000 0.5000 0.0 0 0 213.0082 90.8845" />
<path d="M212.9587 90.6676 A0.5000 0.5000 0.0 0 0 213.0082 90.8845" />
<path d="M328.6213 90.6676
L328.6213 89.2619
" />
<path d="M329.5268 88.4647
L331.1157 88.4647
" />
<path d="M331.1157 91.4647
L329.5268 91.4647
" />
<path d="M332.0212 89.2619
L332.0212 90.6676
" />
<path d="M328.6213 89.2619 A0.5000 0.5000 0.0 0 0 328.5718 89.0450" />
<path d="M329.2745 88.3965 A0.5000 0.5000 0.0 0 0 328.5718 89.0450" />
<path d="M328.5718 90.8845 A0.5000 0.5000 0.0 0 0 328.6213 90.6676" />
<path d="M328.5718 90.8845 A0.5000 0.5000 0.0 0 0 329.2745 91.5330" />
<path d="M329.5268 91.4647 A0.5000 0.5000 0.0 0 0 329.2745 91.5330" />
<path d="M329.2745 88.3965 A0.5000 0.5000 0.0 0 0 329.5268 88.4647" />
<path d="M331.3680 91.5330 A0.5000 0.5000 0.0 0 0 331.1157 91.4647" />
<path d="M331.1157 88.4647 A0.5000 0.5000 0.0 0 0 331.3680 88.3965" />
<path d="M332.0707 89.0450 A0.5000 0.5000 0.0 0 0 331.3680 88.3965" />
<path d="M332.0707 89.0450 A0.5000 0.5000 0.0 0 0 332.0212 89.2619" />
<path d="M331.3680 91.5331 A0.5000 0.5000 0.0 0 0 332.0707 90.8845" />
<path d="M332.0212 90.6676 A0.5000 0.5000 0.0 0 0 332.0707 90.8845" />
<path d="M123.8338 109.7176
L123.8338 108.3119
" />
<path d="M124.7393 107.5147
L126.3282 107.5147
" />
<path d="M126.3282 110.5147
L124.7393 110.5147
" />
<path d="M127.2337 108.3119
L127.2337 109.7176
" />
<path d="M123.8338 108.3119 A0.5000 0.5000 0.0 0 0 123.7843 108.0950" />
<path d="M124.4870 107.4465 A0.5000 0.5000 0.0 0 0 123.7843 108.0950" />
<path d="M123.7843 109.9345 A0.5000 0.5000 0.0 0 0 123.8338 109.7176" />
<path d="M123.7843 109.9345 A0.5000 0.5000 0.0 0 0 124.4870 110.5830" />
<path d="M124.7393 110.5147 A0.5000 0.5000 0.0 0 0 124.4870 110.5830" />
<path d="M124.4870 107.4465 A0.5000 0.5000 0.0 0 0 124.7393 107.5148" />
<path d="M126.5805 110.5830 A0.5000 0.5000 0.0 0 0 126.3282 110.5147" />
<path d="M126.3282 107.5147 A0.5000 0.5000 0.0 0 0 126.5805 107.4465" />
<path d="M127.2832 108.0950 A0.5000 0.5000 0.0 0 0 126.5805 107.4465" />
<path d="M127.2832 108.0950 A0.5000 0.5000 0.0 0 0 127.2337 108.3119" />
<path d="M126.5805 110.5831 A0.5000 0.5000 0.0 0 0 127.2832 109.9345" />
<path d="M127.2337 109.7176 A0.5000 0.5000 0.0 0 0 127.2832 109.9345" />
<path d="M76.2088 90.6676
L76.2088 89.2619
" />
<path d="M77.1143 88.4647
L78.7032 88.4647
" />
<path d="M78.7032 91.4647
L77.1143 91.4647
" />
<path d="M79.6087 89.2619
L79.6087 90.6676
" />
<path d="M76.2088 89.2619 A0.5000 0.5000 0.0 0 0 76.1593 89.0450" />
<path d="M76.8620 88.3965 A0.5000 0.5000 0.0 0 0 76.1593 89.0450" />
<path d="M76.1593 90.8845 A0.5000 0.5000 0.0 0 0 76.2088 90.6676" />
<path d="M76.1593 90.8845 A0.5000 0.5000 0.0 0 0 76.8620 91.5330" />
<path d="M77.1143 91.4647 A0.5000 0.5000 0.0 0 0 76.8620 91.5330" />
<path d="M76.8620 88.3965 A0.5000 0.5000 0.0 0 0 77.1143 88.4647" />
<path d="M78.9555 91.5330 A0.5000 0.5000 0.0 0 0 78.7032 91.4647" />
<path d="M78.7032 88.4647 A0.5000 0.5000 0.0 0 0 78.9555 88.3965" />
<path d="M79.6582 89.0450 A0.5000 0.5000 0.0 0 0 78.9555 88.3965" />
<path d="M79.6582 89.0450 A0.5000 0.5000 0.0 0 0 79.6087 89.2619" />
<path d="M78.9555 91.5331 A0.5000 0.5000 0.0 0 0 79.6582 90.8845" />
<path d="M79.6087 90.6676 A0.5000 0.5000 0.0 0 0 79.6582 90.8845" />
<path d="M290.5213 128.7676
L290.5213 127.3619
" />
<path d="M291.4268 126.5647
L293.0157 126.5647
" />
<path d="M293.0157 129.5647
L291.4268 129.5647
" />
<path d="M293.9212 127.3619
L293.9212 128.7676
" />
<path d="M290.5213 127.3619 A0.5000 0.5000 0.0 0 0 290.4718 127.1450" />
<path d="M291.1745 126.4965 A0.5000 0.5000 0.0 0 0 290.4718 127.1450" />
<path d="M290.4718 128.9845 A0.5000 0.5000 0.0 0 0 290.5213 128.7676" />
<path d="M290.4718 128.9845 A0.5000 0.5000 0.0 0 0 291.1745 129.6330" />
<path d="M291.4268 129.5647 A0.5000 0.5000 0.0 0 0 291.1745 129.6330" />
<path d="M291.1745 126.4965 A0.5000 0.5000 0.0 0 0 291.4268 126.5648" />
<path d="M293.2680 129.6330 A0.5000 0.5000 0.0 0 0 293.0157 129.5648" />
<path d="M293.0157 126.5647 A0.5000 0.5000 0.0 0 0 293.2680 126.4965" />
<path d="M293.9707 127.1450 A0.5000 0.5000 0.0 0 0 293.2680 126.4965" />
<path d="M293.9707 127.1450 A0.5000 0.5000 0.0 0 0 293.9212 127.3619" />
<path d="M293.2680 129.6331 A0.5000 0.5000 0.0 0 0 293.9707 128.9845" />
<path d="M293.9212 128.7676 A0.5000 0.5000 0.0 0 0 293.9707 128.9845" />
<path d="M204.7963 71.6176
L204.7963 70.2119
" />
<path d="M205.7018 69.4147
L207.2907 69.4147
" />
<path d="M207.2907 72.4147
L205.7018 72.4147
" />
<path d="M208.1962 70.2119
L208.1962 71.6176
" />
<path d="M204.7963 70.2119 A0.5000 0.5000 0.0 0 0 204.7468 69.9950" />
<path d="M205.4495 69.3465 A0.5000 0.5000 0.0 0 0 204.7468 69.9950" />
<path d="M204.7468 71.8345 A0.5000 0.5000 0.0 0 0 204.7963 71.6176" />
<path d="M204.7468 71.8345 A0.5000 0.5000 0.0 0 0 205.4495 72.4830" />
<path d="M205.7018 72.4147 A0.5000 0.5000 0.0 0 0 205.4495 72.4830" />
<path d="M205.4495 69.3465 A0.5000 0.5000 0.0 0 0 205.7018 69.4147" />
<path d="M207.5430 72.4830 A0.5000 0.5000 0.0 0 0 207.2907 72.4147" />
<path d="M207.2907 69.4147 A0.5000 0.5000 0.0 0 0 207.5430 69.3465" />
<path d="M208.2457 69.9950 A0.5000 0.5000 0.0 0 0 207.5430 69.3465" />
<path d="M208.2457 69.9950 A0.5000 0.5000 0.0 0 0 208.1962 70.2119" />
<path d="M207.5430 72.4831 A0.5000 0.5000 0.0 0 0 208.2457 71.8345" />
<path d="M208.1962 71.6176 A0.5000 0.5000 0.0 0 0 208.2457 71.8345" />
<path d="M152.4088 90.6676
L152.4088 89.2619
" />
<path d="M153.3143 88.4647
L154.9032 88.4647
" />
<path d="M154.9032 91.4647
L153.3143 91.4647
" />
<path d="M155.8087 89.2619
L155.8087 90.6676
" />
<path d="M152.4088 89.2619 A0.5000 0.5000 0.0 0 0 152.3593 89.0450" />
<path d="M153.0620 88.3965 A0.5000 0.5000 0.0 0 0 152.3593 89.0450" />
<path d="M152.3593 90.8845 A0.5000 0.5000 0.0 0 0 152.4088 90.6676" />
<path d="M152.3593 90.8845 A0.5000 0.5000 0.0 0 0 153.0620 91.5330" />
<path d="M153.3143 91.4647 A0.5000 0.5000 0.0 0 0 153.0620 91.5330" />
<path d="M153.0620 88.3965 A0.5000 0.5000 0.0 0 0 153.3143 88.4647" />
<path d="M155.1555 91.5330 A0.5000 0.5000 0.0 0 0 154.9032 91.4647" />
<path d="M154.9032 88.4647 A0.5000 0.5000 0.0 0 0 155.1555 88.3965" />
<path d="M155.8582 89.0450 A0.5000 0.5000 0.0 0 0 155.1555 88.3965" />
<path d="M155.8582 89.0450 A0.5000 0.5000 0.0 0 0 155.8087 89.2619" />
<path d="M155.1555 91.5331 A0.5000 0.5000 0.0 0 0 155.8582 90.8845" />
<path d="M155.8087 90.6676 A0.5000 0.5000 0.0 0 0 155.8582 90.8845" />
<path d="M328.6213 33.5176
L328.6213 32.1119
" />
<path d="M329.5268 31.3148
L331.1157 31.3148
" />
<path d="M331.1157 34.3147
L329.5268 34.3147
" />
<path d="M332.0212 32.1119
L332.0212 33.5176
" />
<path d="M328.6213 32.1119 A0.5000 0.5000 0.0 0 0 328.5718 31.8950" />
<path d="M329.2745 31.2465 A0.5000 0.5000 0.0 0 0 328.5718 31.8950" />
<path d="M328.5718 33.7345 A0.5000 0.5000 0.0 0 0 328.6213 33.5176" />
<path d="M328.5718 33.7345 A0.5000 0.5000 0.0 0 0 329.2745 34.3830" />
<path d="M329.5268 34.3147 A0.5000 0.5000 0.0 0 0 329.2745 34.3830" />
<path d="M329.2745 31.2465 A0.5000 0.5000 0.0 0 0 329.5268 31.3147" />
<path d="M331.3680 34.3830 A0.5000 0.5000 0.0 0 0 331.1157 34.3147" />
<path d="M331.1157 31.3147 A0.5000 0.5000 0.0 0 0 331.3680 31.2465" />
<path d="M332.0707 31.8950 A0.5000 0.5000 0.0 0 0 331.3680 31.2465" />
<path d="M332.0707 31.8950 A0.5000 0.5000 0.0 0 0 332.0212 32.1119" />
<path d="M331.3680 34.3831 A0.5000 0.5000 0.0 0 0 332.0707 33.7345" />
<path d="M332.0212 33.5176 A0.5000 0.5000 0.0 0 0 332.0707 33.7345" />
<path d="M109.5463 71.6176
L109.5463 70.2119
" />
<path d="M110.4518 69.4147
L112.0407 69.4147
" />
<path d="M112.0407 72.4147
L110.4518 72.4147
" />
<path d="M112.9462 70.2119
L112.9462 71.6176
" />
<path d="M109.5463 70.2119 A0.5000 0.5000 0.0 0 0 109.4968 69.9950" />
<path d="M110.1995 69.3465 A0.5000 0.5000 0.0 0 0 109.4968 69.9950" />
<path d="M109.4968 71.8345 A0.5000 0.5000 0.0 0 0 109.5463 71.6176" />
<path d="M109.4968 71.8345 A0.5000 0.5000 0.0 0 0 110.1995 72.4830" />
<path d="M110.4518 72.4147 A0.5000 0.5000 0.0 0 0 110.1995 72.4830" />
<path d="M110.1995 69.3465 A0.5000 0.5000 0.0 0 0 110.4518 69.4147" />
<path d="M112.2930 72.4830 A0.5000 0.5000 0.0 0 0 112.0407 72.4147" />
<path d="M112.0407 69.4147 A0.5000 0.5000 0.0 0 0 112.2930 69.3465" />
<path d="M112.9957 69.9950 A0.5000 0.5000 0.0 0 0 112.2930 69.3465" />
<path d="M112.9957 69.9950 A0.5000 0.5000 0.0 0 0 112.9462 70.2119" />
<path d="M112.2930 72.4831 A0.5000 0.5000 0.0 0 0 112.9957 71.8345" />
<path d="M112.9462 71.6176 A0.5000 0.5000 0.0 0 0 112.9957 71.8345" />
<path d="M214.3213 52.5676
L214.3213 51.1619
" />
<path d="M215.2268 50.3648
L216.8157 50.3648
" />
<path d="M216.8157 53.3647
L215.2268 53.3647
" />
<path d="M217.7212 51.1619
L217.7212 52.5676
" />
<path d="M214.3213 51.1619 A0.5000 0.5000 0.0 0 0 214.2718 50.9450" />
<path d="M214.9745 50.2965 A0.5000 0.5000 0.0 0 0 214.2718 50.9450" />
<path d="M214.2718 52.7845 A0.5000 0.5000 0.0 0 0 214.3213 52.5676" />
<path d="M214.2718 52.7845 A0.5000 0.5000 0.0 0 0 214.9745 53.4330" />
<path d="M215.2268 53.3647 A0.5000 0.5000 0.0 0 0 214.9745 53.4330" />
<path d="M214.9745 50.2965 A0.5000 0.5000 0.0 0 0 215.2268 50.3647" />
<path d="M217.0680 53.4330 A0.5000 0.5000 0.0 0 0 216.8157 53.3647" />
<path d="M216.8157 50.3647 A0.5000 0.5000 0.0 0 0 217.0680 50.2965" />
<path d="M217.7707 50.9450 A0.5000 0.5000 0.0 0 0 217.0680 50.2965" />
<path d="M217.7707 50.9450 A0.5000 0.5000 0.0 0 0 217.7212 51.1619" />
<path d="M217.0680 53.4331 A0.5000 0.5000 0.0 0 0 217.7707 52.7845" />
<path d="M217.7212 52.5676 A0.5000 0.5000 0.0 0 0 217.7707 52.7845" />
<path d="M90.4963 71.6176
L90.4963 70.2119
" />
<path d="M91.4018 69.4147
L92.9907 69.4147
" />
<path d="M92.9907 72.4147
L91.4018 72.4147
" />
<path d="M93.8962 70.2119
L93.8962 71.6176
" />
<path d="M90.4963 70.2119 A0.5000 0.5000 0.0 0 0 90.4468 69.9950" />
<path d="M91.1495 69.3465 A0.5000 0.5000 0.0 0 0 90.4468 69.9950" />
<path d="M90.4468 71.8345 A0.5000 0.5000 0.0 0 0 90.4963 71.6176" />
<path d="M90.4468 71.8345 A0.5000 0.5000 0.0 0 0 91.1495 72.4830" />
<path d="M91.4018 72.4147 A0.5000 0.5000 0.0 0 0 91.1495 72.4830" />
<path d="M91.1495 69.3465 A0.5000 0.5000 0.0 0 0 91.4018 69.4147" />
<path d="M93.2430 72.4830 A0.5000 0.5000 0.0 0 0 92.9907 72.4147" />
<path d="M92.9907 69.4147 A0.5000 0.5000 0.0 0 0 93.2430 69.3465" />
<path d="M93.9457 69.9950 A0.5000 0.5000 0.0 0 0 93.2430 69.3465" />
<path d="M93.9457 69.9950 A0.5000 0.5000 0.0 0 0 93.8962 70.2119" />
<path d="M93.2430 72.4831 A0.5000 0.5000 0.0 0 0 93.9457 71.8345" />
<path d="M93.8962 71.6176 A0.5000 0.5000 0.0 0 0 93.9457 71.8345" />
<path d="M233.3713 52.5676
L233.3713 51.1619
" />
<path d="M234.2768 50.3648
L235.8657 50.3648
" />
<path d="M235.8657 53.3647
L234.2768 53.3647
" />
<path d="M236.7712 51.1619
L236.7712 52.5676
" />
<path d="M233.3713 51.1619 A0.5000 0.5000 0.0 0 0 233.3218 50.9450" />
<path d="M234.0245 50.2965 A0.5000 0.5000 0.0 0 0 233.3218 50.9450" />
<path d="M233.3218 52.7845 A0.5000 0.5000 0.0 0 0 233.3713 52.5676" />
<path d="M233.3218 52.7845 A0.5000 0.5000 0.0 0 0 234.0245 53.4330" />
<path d="M234.2768 53.3647 A0.5000 0.5000 0.0 0 0 234.0245 53.4330" />
<path d="M234.0245 50.2965 A0.5000 0.5000 0.0 0 0 234.2768 50.3647" />
<path d="M236.1180 53.4330 A0.5000 0.5000 0.0 0 0 235.8657 53.3647" />
<path d="M235.8657 50.3647 A0.5000 0.5000 0.0 0 0 236.1180 50.2965" />
<path d="M236.8207 50.9450 A0.5000 0.5000 0.0 0 0 236.1180 50.2965" />
<path d="M236.8207 50.9450 A0.5000 0.5000 0.0 0 0 236.7712 51.1619" />
<path d="M236.1180 53.4331 A0.5000 0.5000 0.0 0 0 236.8207 52.7845" />
<path d="M236.7712 52.5676 A0.5000 0.5000 0.0 0 0 236.8207 52.7845" />
<path d="M238.1338 109.7176
L238.1338 108.3119
" />
<path d="M239.0393 107.5147
L240.6282 107.5147
" />
<path d="M240.6282 110.5147
L239.0393 110.5147
" />
<path d="M241.5337 108.3119
L241.5337 109.7176
" />
<path d="M238.1338 108.3119 A0.5000 0.5000 0.0 0 0 238.0843 108.0950" />
<path d="M238.7870 107.4465 A0.5000 0.5000 0.0 0 0 238.0843 108.0950" />
<path d="M238.0843 109.9345 A0.5000 0.5000 0.0 0 0 238.1338 109.7176" />
<path d="M238.0843 109.9345 A0.5000 0.5000 0.0 0 0 238.7870 110.5830" />
<path d="M239.0393 110.5147 A0.5000 0.5000 0.0 0 0 238.7870 110.5830" />
<path d="M238.7870 107.4465 A0.5000 0.5000 0.0 0 0 239.0393 107.5148" />
<path d="M240.8805 110.5830 A0.5000 0.5000 0.0 0 0 240.6282 110.5147" />
<path d="M240.6282 107.5147 A0.5000 0.5000 0.0 0 0 240.8805 107.4465" />
<path d="M241.5832 108.0950 A0.5000 0.5000 0.0 0 0 240.8805 107.4465" />
<path d="M241.5832 108.0950 A0.5000 0.5000 0.0 0 0 241.5337 108.3119" />
<path d="M240.8805 110.5831 A0.5000 0.5000 0.0 0 0 241.5832 109.9345" />
<path d="M241.5337 109.7176 A0.5000 0.5000 0.0 0 0 241.5832 109.9345" />
<path d="M166.6963 71.6176
L166.6963 70.2119
" />
<path d="M167.6018 69.4147
L169.1907 69.4147
" />
<path d="M169.1907 72.4147
L167.6018 72.4147
" />
<path d="M170.0962 70.2119
L170.0962 71.6176
" />
<path d="M166.6963 70.2119 A0.5000 0.5000 0.0 0 0 166.6468 69.9950" />
<path d="M167.3495 69.3465 A0.5000 0.5000 0.0 0 0 166.6468 69.9950" />
<path d="M166.6468 71.8345 A0.5000 0.5000 0.0 0 0 166.6963 71.6176" />
<path d="M166.6468 71.8345 A0.5000 0.5000 0.0 0 0 167.3495 72.4830" />
<path d="M167.6018 72.4147 A0.5000 0.5000 0.0 0 0 167.3495 72.4830" />
<path d="M167.3495 69.3465 A0.5000 0.5000 0.0 0 0 167.6018 69.4147" />
<path d="M169.4430 72.4830 A0.5000 0.5000 0.0 0 0 169.1907 72.4147" />
<path d="M169.1907 69.4147 A0.5000 0.5000 0.0 0 0 169.4430 69.3465" />
<path d="M170.1457 69.9950 A0.5000 0.5000 0.0 0 0 169.4430 69.3465" />
<path d="M170.1457 69.9950 A0.5000 0.5000 0.0 0 0 170.0962 70.2119" />
<path d="M169.4430 72.4831 A0.5000 0.5000 0.0 0 0 170.1457 71.8345" />
<path d="M170.0962 71.6176 A0.5000 0.5000 0.0 0 0 170.1457 71.8345" />
<path d="M271.4713 128.7676
L271.4713 127.3619
" />
<path d="M272.3768 126.5647
L273.9657 126.5647
" />
<path d="M273.9657 129.5647
L272.3768 129.5647
" />
<path d="M274.8712 127.3619
L274.8712 128.7676
" />
<path d="M271.4713 127.3619 A0.5000 0.5000 0.0 0 0 271.4218 127.1450" />
<path d="M272.1245 126.4965 A0.5000 0.5000 0.0 0 0 271.4218 127.1450" />
<path d="M271.4218 128.9845 A0.5000 0.5000 0.0 0 0 271.4713 128.7676" />
<path d="M271.4218 128.9845 A0.5000 0.5000 0.0 0 0 272.1245 129.6330" />
<path d="M272.3768 129.5647 A0.5000 0.5000 0.0 0 0 272.1245 129.6330" />
<path d="M272.1245 126.4965 A0.5000 0.5000 0.0 0 0 272.3768 126.5648" />
<path d="M274.2180 129.6330 A0.5000 0.5000 0.0 0 0 273.9657 129.5648" />
<path d="M273.9657 126.5647 A0.5000 0.5000 0.0 0 0 274.2180 126.4965" />
<path d="M274.9207 127.1450 A0.5000 0.5000 0.0 0 0 274.2180 126.4965" />
<path d="M274.9207 127.1450 A0.5000 0.5000 0.0 0 0 274.8712 127.3619" />
<path d="M274.2180 129.6331 A0.5000 0.5000 0.0 0 0 274.9207 128.9845" />
<path d="M274.8712 128.7676 A0.5000 0.5000 0.0 0 0 274.9207 128.9845" />
<path d="M142.8838 109.7176
L142.8838 108.3119
" />
<path d="M143.7893 107.5147
L145.3782 107.5147
" />
<path d="M145.3782 110.5147
L143.7893 110.5147
" />
<path d="M146.2837 108.3119
L146.2837 109.7176
" />
<path d="M142.8838 108.3119 A0.5000 0.5000 0.0 0 0 142.8343 108.0950" />
<path d="M143.5370 107.4465 A0.5000 0.5000 0.0 0 0 142.8343 108.0950" />
<path d="M142.8343 109.9345 A0.5000 0.5000 0.0 0 0 142.8838 109.7176" />
<path d="M142.8343 109.9345 A0.5000 0.5000 0.0 0 0 143.5370 110.5830" />
<path d="M143.7893 110.5147 A0.5000 0.5000 0.0 0 0 143.5370 110.5830" />
<path d="M143.5370 107.4465 A0.5000 0.5000 0.0 0 0 143.7893 107.5148" />
<path d="M145.6305 110.5830 A0.5000 0.5000 0.0 0 0 145.3782 110.5147" />
<path d="M145.3782 107.5147 A0.5000 0.5000 0.0 0 0 145.6305 107.4465" />
<path d="M146.3332 108.0950 A0.5000 0.5000 0.0 0 0 145.6305 107.4465" />
<path d="M146.3332 108.0950 A0.5000 0.5000 0.0 0 0 146.2837 108.3119" />
<path d="M145.6305 110.5831 A0.5000 0.5000 0.0 0 0 146.3332 109.9345" />
<path d="M146.2837 109.7176 A0.5000 0.5000 0.0 0 0 146.3332 109.9345" />
<path d="M228.6088 90.6676
L228.6088 89.2619
" />
<path d="M229.5143 88.4647
L231.1032 88.4647
" />
<path d="M231.1032 91.4647
L229.5143 91.4647
" />
<path d="M232.0087 89.2619
L232.0087 90.6676
" />
<path d="M228.6088 89.2619 A0.5000 0.5000 0.0 0 0 228.5593 89.0450" />
<path d="M229.2620 88.3965 A0.5000 0.5000 0.0 0 0 228.5593 89.0450" />
<path d="M228.5593 90.8845 A0.5000 0.5000 0.0 0 0 228.6088 90.6676" />
<path d="M228.5593 90.8845 A0.5000 0.5000 0.0 0 0 229.2620 91.5330" />
<path d="M229.5143 91.4647 A0.5000 0.5000 0.0 0 0 229.2620 91.5330" />
<path d="M229.2620 88.3965 A0.5000 0.5000 0.0 0 0 229.5143 88.4647" />
<path d="M231.3555 91.5330 A0.5000 0.5000 0.0 0 0 231.1032 91.4647" />
<path d="M231.1032 88.4647 A0.5000 0.5000 0.0 0 0 231.3555 88.3965" />
<path d="M232.0582 89.0450 A0.5000 0.5000 0.0 0 0 231.3555 88.3965" />
<path d="M232.0582 89.0450 A0.5000 0.5000 0.0 0 0 232.0087 89.2619" />
<path d="M231.3555 91.5331 A0.5000 0.5000 0.0 0 0 232.0582 90.8845" />
<path d="M232.0087 90.6676 A0.5000 0.5000 0.0 0 0 232.0582 90.8845" />
</g> 
</svg>
