%TF.GenerationSoftware,KiCad,Pcbnew,9.0.7*%
%TF.CreationDate,2026-03-18T17:49:44+05:30*%
%TF.ProjectId,Split-KeyBoard,53706c69-742d-44b6-9579-426f6172642e,rev?*%
%TF.SameCoordinates,Original*%
%TF.FileFunction,Plated,1,2,PTH,Mixed*%
%TF.FilePolarity,Positive*%
%FSLAX46Y46*%
G04 Gerber Fmt 4.6, Leading zero omitted, Abs format (unit mm)*
G04 Created by KiCad (PCBNEW 9.0.7) date 2026-03-18 17:49:44*
%MOMM*%
%LPD*%
G01*
G04 APERTURE LIST*
%TA.AperFunction,ViaDrill*%
%ADD10C,0.300000*%
%TD*%
%TA.AperFunction,ComponentDrill*%
%ADD11C,0.500000*%
%TD*%
%TA.AperFunction,ComponentDrill*%
%ADD12C,0.740000*%
%TD*%
%TA.AperFunction,ComponentDrill*%
%ADD13C,0.800000*%
%TD*%
%TA.AperFunction,ComponentDrill*%
%ADD14C,1.000000*%
%TD*%
G04 aperture for slot hole*
%TA.AperFunction,ComponentDrill*%
%ADD15C,1.500000*%
%TD*%
G04 APERTURE END LIST*
D10*
X58370000Y-110160000D03*
X58690000Y-91560000D03*
X61280000Y-129170000D03*
X63860000Y-148160000D03*
X67370000Y-109420000D03*
X67700000Y-91850000D03*
X68860000Y-167180000D03*
X69370000Y-101930000D03*
X69380000Y-82510000D03*
X69900000Y-97100000D03*
X70100000Y-188120000D03*
X72500000Y-173430000D03*
X72730000Y-128410000D03*
X72940000Y-116320000D03*
X74130000Y-120740000D03*
X75440000Y-147620000D03*
X76000000Y-110920000D03*
X76210000Y-91980000D03*
X76330000Y-135370000D03*
X76540000Y-139580000D03*
X76990000Y-154410000D03*
X78450000Y-168870000D03*
X78500000Y-110920000D03*
X79390000Y-91980000D03*
X79890000Y-166630000D03*
X80600000Y-168540000D03*
X80630000Y-170930000D03*
X80640000Y-185468750D03*
X81270000Y-158590000D03*
X82600000Y-130040000D03*
X83400000Y-186080000D03*
X85750000Y-92720000D03*
X86110000Y-111230000D03*
X87540000Y-149140000D03*
X87570000Y-187900000D03*
X87670000Y-130050000D03*
X88430000Y-82260000D03*
X88430000Y-101350000D03*
X89060000Y-97030000D03*
X89360000Y-116250000D03*
X93030000Y-173380000D03*
X93390000Y-149140000D03*
X95010000Y-92040000D03*
X95270000Y-111240000D03*
X96020000Y-130150000D03*
X97960000Y-120460000D03*
X98090000Y-111240000D03*
X98420000Y-135390000D03*
X98510000Y-92040000D03*
X100370000Y-149440000D03*
X101980000Y-130140000D03*
X102710000Y-139620000D03*
X103800000Y-168730000D03*
X104760000Y-92720000D03*
X104970000Y-111260000D03*
X107220000Y-149420000D03*
X107470000Y-101540000D03*
X107480000Y-82290000D03*
X107660000Y-130140000D03*
X107940000Y-97050000D03*
X107980000Y-116300000D03*
X108700000Y-185630000D03*
X109900000Y-168500000D03*
X112010000Y-154430000D03*
X112240000Y-158620000D03*
X112420000Y-149400000D03*
X112720000Y-173490000D03*
X114110000Y-111240000D03*
X114120000Y-92310000D03*
X114740000Y-130340000D03*
X116840000Y-168500000D03*
X116920000Y-111240000D03*
X117000000Y-120520000D03*
X117470000Y-135400000D03*
X117550000Y-92120000D03*
X119450000Y-149400000D03*
X121010000Y-130120000D03*
X121760000Y-139570000D03*
X122130000Y-168500000D03*
X123810000Y-92860000D03*
X124230000Y-111240000D03*
X125930000Y-149250000D03*
X126400000Y-130120000D03*
X126520000Y-101430000D03*
X126530000Y-82410000D03*
X127010000Y-97250000D03*
X127040000Y-116420000D03*
X129050000Y-168500000D03*
X131130000Y-154490000D03*
X131680000Y-149240000D03*
X133240000Y-92110000D03*
X133240000Y-111100000D03*
X133830000Y-130240000D03*
X135320000Y-168210000D03*
X136050000Y-120480000D03*
X136130000Y-111060000D03*
X136510000Y-135330000D03*
X136640000Y-91970000D03*
X138560000Y-149340000D03*
X140050000Y-130240000D03*
X140810000Y-139520000D03*
X141060000Y-168210000D03*
X142830000Y-92660000D03*
X143340000Y-111330000D03*
X145300000Y-149250000D03*
X145570000Y-101500000D03*
X145580000Y-82380000D03*
X145870000Y-130240000D03*
X146040000Y-116290000D03*
X146050000Y-97240000D03*
X147990000Y-168240000D03*
X150500000Y-149290000D03*
X150560000Y-154410000D03*
X152180000Y-111320000D03*
X152540000Y-91750000D03*
X152830000Y-130430000D03*
X154300000Y-168100000D03*
X155100000Y-120470000D03*
X155180000Y-111110000D03*
X155560000Y-135370000D03*
X155830000Y-92040000D03*
X157480000Y-149410000D03*
X158940000Y-130080000D03*
X159860000Y-139520000D03*
X159960000Y-168090000D03*
X161980000Y-92420000D03*
X162460000Y-111340000D03*
X164000000Y-149110000D03*
X164620000Y-82360000D03*
X164630000Y-101530000D03*
X164660000Y-130080000D03*
X165090000Y-116320000D03*
X165100000Y-97250000D03*
X166940000Y-168320000D03*
X169370000Y-154420000D03*
X169420000Y-149050000D03*
X171440000Y-111350000D03*
X171460000Y-92220000D03*
X171760000Y-130320000D03*
X172360000Y-135360000D03*
X173280000Y-168200000D03*
X174120000Y-92080000D03*
X174150000Y-120490000D03*
X174520000Y-111250000D03*
X176550000Y-149400000D03*
X178010000Y-130150000D03*
X178910000Y-139510000D03*
X179030000Y-168200000D03*
X179730000Y-185880000D03*
X180600000Y-92680000D03*
X181450000Y-111310000D03*
X183260000Y-149280000D03*
X183620000Y-130140000D03*
X183670000Y-82180000D03*
X183670000Y-101410000D03*
X184140000Y-97240000D03*
X184140000Y-116330000D03*
X186110000Y-168330000D03*
X188240000Y-154360000D03*
X188430000Y-158580000D03*
X188600000Y-149280000D03*
X189100000Y-173390000D03*
X190400000Y-92010000D03*
X190580000Y-111290000D03*
X190970000Y-130350000D03*
X192740000Y-168330000D03*
X193200000Y-120470000D03*
X193370000Y-111300000D03*
X193630000Y-92000000D03*
X193670000Y-135350000D03*
X195540000Y-149450000D03*
X197000000Y-130100000D03*
X197970000Y-139540000D03*
X198320000Y-168330000D03*
X200140000Y-92690000D03*
X200490000Y-111370000D03*
X201980000Y-149290000D03*
X202720000Y-82260000D03*
X202730000Y-101310000D03*
X202820000Y-130100000D03*
X203190000Y-97220000D03*
X203190000Y-116310000D03*
X205170000Y-168420000D03*
X207630000Y-154430000D03*
X207810000Y-149230000D03*
X208830000Y-111210000D03*
X209600000Y-92160000D03*
X209960000Y-130310000D03*
X211520000Y-168270000D03*
X212190000Y-111200000D03*
X212250000Y-120490000D03*
X212720000Y-135360000D03*
X212800000Y-91930000D03*
X214580000Y-149400000D03*
X216040000Y-130110000D03*
X217020000Y-139520000D03*
X217270000Y-168260000D03*
X219050000Y-92360000D03*
X219370000Y-111290000D03*
X221040000Y-149240000D03*
X221390000Y-130110000D03*
X221770000Y-82470000D03*
X221780000Y-101380000D03*
X222240000Y-116340000D03*
X222260000Y-97270000D03*
X224170000Y-168480000D03*
X226440000Y-154390000D03*
X226870000Y-149220000D03*
X228460000Y-111290000D03*
X228840000Y-91950000D03*
X229050000Y-130270000D03*
X230890000Y-168310000D03*
X231300000Y-120520000D03*
X231380000Y-111160000D03*
X231580000Y-91950000D03*
X231770000Y-135290000D03*
X233630000Y-149380000D03*
X235390000Y-130260000D03*
X236060000Y-139520000D03*
X236150000Y-168330000D03*
X238430000Y-111290000D03*
X238610000Y-92180000D03*
X240300000Y-149230000D03*
X240820000Y-82050000D03*
X240830000Y-101390000D03*
X241250000Y-130180000D03*
X241290000Y-97240000D03*
X241290000Y-116360000D03*
X243240000Y-168390000D03*
X245530000Y-154450000D03*
X245980000Y-149230000D03*
X247400000Y-111010000D03*
X247700000Y-91890000D03*
X247910000Y-130280000D03*
X248270000Y-185610000D03*
X249520000Y-168150000D03*
X250260000Y-111000000D03*
X250350000Y-120510000D03*
X250810000Y-135330000D03*
X250870000Y-91870000D03*
X252720000Y-149440000D03*
X254450000Y-130140000D03*
X255100000Y-139630000D03*
X255530000Y-168210000D03*
X257390000Y-111270000D03*
X257580000Y-92060000D03*
X258990000Y-149190000D03*
X259870000Y-82200000D03*
X259880000Y-101400000D03*
X259910000Y-173410000D03*
X260340000Y-97240000D03*
X260340000Y-116360000D03*
X260340000Y-130150000D03*
X262260000Y-168410000D03*
X264630000Y-158560000D03*
X264700000Y-154310000D03*
X264780000Y-149190000D03*
X266670000Y-92190000D03*
X266940000Y-130280000D03*
X267000000Y-111260000D03*
X268010000Y-186300000D03*
X268720000Y-168280000D03*
X269410000Y-120420000D03*
X269620000Y-111210000D03*
X269930000Y-135320000D03*
X270020000Y-91980000D03*
X271840000Y-149370000D03*
X273480000Y-130170000D03*
X274160000Y-139570000D03*
X274310000Y-168330000D03*
X276490000Y-92330000D03*
X276590000Y-111220000D03*
X278350000Y-149260000D03*
X278920000Y-82240000D03*
X278930000Y-101380000D03*
X279030000Y-173420000D03*
X279300000Y-130160000D03*
X279390000Y-97250000D03*
X279400000Y-116300000D03*
X282240000Y-166590000D03*
X283690000Y-158560000D03*
X283910000Y-154450000D03*
X284230000Y-149180000D03*
X285900000Y-92080000D03*
X285940000Y-111090000D03*
X286190000Y-130290000D03*
X287780000Y-185920000D03*
X288440000Y-111090000D03*
X288450000Y-120450000D03*
X288850000Y-92050000D03*
X288920000Y-135380000D03*
X292050000Y-147560000D03*
X292450000Y-130070000D03*
X293210000Y-139630000D03*
X295600000Y-92150000D03*
X296850000Y-109470000D03*
X297970000Y-82220000D03*
X297970000Y-101400000D03*
X298050000Y-173380000D03*
X298160000Y-130310000D03*
X298440000Y-97260000D03*
X298440000Y-116360000D03*
X301640000Y-168770000D03*
X304920000Y-92180000D03*
X305100000Y-130320000D03*
X306620000Y-185990000D03*
X307500000Y-120460000D03*
X307540000Y-91920000D03*
X307610000Y-168490000D03*
X308780000Y-154330000D03*
X309880000Y-158560000D03*
X309950000Y-135780000D03*
X311520000Y-130170000D03*
X314540000Y-92190000D03*
X316020000Y-149700000D03*
X316980000Y-173450000D03*
X317020000Y-82320000D03*
X317500000Y-97260000D03*
X318464365Y-111450261D03*
X320950000Y-168240000D03*
X322250000Y-130400000D03*
X322890000Y-147490000D03*
X324100000Y-92250000D03*
X324170000Y-139620000D03*
X325390000Y-135290000D03*
X325930000Y-109530000D03*
X326080000Y-186050000D03*
X326440000Y-168380000D03*
X326550000Y-101440000D03*
X326870000Y-92140000D03*
X327020000Y-116340000D03*
X328810000Y-130420000D03*
X331320000Y-120470000D03*
X332740000Y-126640000D03*
X333550000Y-92160000D03*
X333610000Y-168420000D03*
X336070000Y-82400000D03*
X336156750Y-158427250D03*
X336550000Y-154400000D03*
X336626750Y-173567250D03*
X337720000Y-118020000D03*
X337770000Y-94750000D03*
X339940000Y-130010000D03*
X339980000Y-168260000D03*
X343420000Y-92290000D03*
X344480000Y-186180000D03*
X345640000Y-111140000D03*
X345750000Y-168260000D03*
X345810000Y-130000000D03*
X346210000Y-105440000D03*
X346400000Y-92135925D03*
X350810000Y-113600000D03*
X352410000Y-92770000D03*
X352840000Y-86600000D03*
X352840000Y-149860000D03*
X352960000Y-132490000D03*
X353010000Y-151500000D03*
X353490000Y-130860000D03*
X353510000Y-93090000D03*
X353690000Y-111700000D03*
X354000000Y-149730000D03*
X354070000Y-170600000D03*
X354410000Y-169080000D03*
X354830000Y-146500000D03*
X355120000Y-82140000D03*
X355270000Y-120280000D03*
X355280000Y-139360000D03*
X355280000Y-158400000D03*
X355300000Y-101160000D03*
X355590000Y-97280000D03*
X355740000Y-135420000D03*
X355750000Y-154500000D03*
X355750000Y-173540000D03*
X355770000Y-116300000D03*
X356870000Y-83130000D03*
X360060000Y-101700000D03*
X360380000Y-92900000D03*
X360380000Y-98770000D03*
X360620000Y-80370000D03*
X361170000Y-97800000D03*
X361230000Y-94180000D03*
X361960000Y-99590000D03*
X362190000Y-147600000D03*
X363430000Y-117160000D03*
X363440000Y-124810000D03*
X364390000Y-116370000D03*
X365510000Y-115080000D03*
X366010000Y-124820000D03*
X369690000Y-131780000D03*
X369700000Y-168000000D03*
X375470000Y-147320000D03*
X380820000Y-170070000D03*
X381170000Y-159170000D03*
X385800000Y-162650000D03*
X387660000Y-152510000D03*
X387960000Y-162960000D03*
D11*
%TO.C,Pad2*%
X372400000Y-136800000D03*
%TO.C,Pad1*%
X380000000Y-136800000D03*
D12*
%TO.C,U1*%
X371880000Y-152900000D03*
X371880000Y-155440000D03*
X371880000Y-157980000D03*
X371880000Y-160520000D03*
X371880000Y-163060000D03*
X371880000Y-165600000D03*
X371880000Y-168140000D03*
X379820000Y-152900000D03*
X379820000Y-155440000D03*
X379820000Y-157980000D03*
X379820000Y-160520000D03*
X379820000Y-163060000D03*
X379820000Y-165600000D03*
X379820000Y-168140000D03*
D13*
%TO.C,D1*%
X72866450Y-86135950D03*
X72866450Y-93755950D03*
%TO.C,D16*%
X72866450Y-105180750D03*
X72866450Y-112800750D03*
%TO.C,D82*%
X77627650Y-181359950D03*
X77627650Y-188979950D03*
%TO.C,D31*%
X82388850Y-124225550D03*
X82388850Y-131845550D03*
%TO.C,D47*%
X87150050Y-143270350D03*
X87150050Y-150890350D03*
%TO.C,D2*%
X91911250Y-86135950D03*
X91911250Y-93755950D03*
%TO.C,D17*%
X91911250Y-105180750D03*
X91911250Y-112800750D03*
%TO.C,D61*%
X96672450Y-162315150D03*
X96672450Y-169935150D03*
%TO.C,D32*%
X101433650Y-124225550D03*
X101433650Y-131845550D03*
%TO.C,D83*%
X101433650Y-181359950D03*
X101433650Y-188979950D03*
%TO.C,D48*%
X106194850Y-143270350D03*
X106194850Y-150890350D03*
%TO.C,D3*%
X110956050Y-86135950D03*
X110956050Y-93755950D03*
%TO.C,D18*%
X110956050Y-105180750D03*
X110956050Y-112800750D03*
%TO.C,D62*%
X115717250Y-162315150D03*
X115717250Y-169935150D03*
%TO.C,D33*%
X120478450Y-124225550D03*
X120478450Y-131845550D03*
%TO.C,D49*%
X125239650Y-143270350D03*
X125239650Y-150890350D03*
%TO.C,D84*%
X125239650Y-181359950D03*
X125239650Y-188979950D03*
%TO.C,D4*%
X130000850Y-86135950D03*
X130000850Y-93755950D03*
%TO.C,D19*%
X130000850Y-105180750D03*
X130000850Y-112800750D03*
%TO.C,D63*%
X134762050Y-162315150D03*
X134762050Y-169935150D03*
%TO.C,D34*%
X139523250Y-124225550D03*
X139523250Y-131845550D03*
%TO.C,D50*%
X144284450Y-143270350D03*
X144284450Y-150890350D03*
%TO.C,D5*%
X149045650Y-86135950D03*
X149045650Y-93755950D03*
%TO.C,D20*%
X149045650Y-105180750D03*
X149045650Y-112800750D03*
%TO.C,D64*%
X153806850Y-162315150D03*
X153806850Y-169935150D03*
%TO.C,D35*%
X158568050Y-124225550D03*
X158568050Y-131845550D03*
%TO.C,D51*%
X163329250Y-143270350D03*
X163329250Y-150890350D03*
%TO.C,D6*%
X168090450Y-86135950D03*
X168090450Y-93755950D03*
%TO.C,D21*%
X168090450Y-105180750D03*
X168090450Y-112800750D03*
%TO.C,D65*%
X172851650Y-162315150D03*
X172851650Y-169935150D03*
%TO.C,D36*%
X177612850Y-124225550D03*
X177612850Y-131845550D03*
%TO.C,D52*%
X182374050Y-143270350D03*
X182374050Y-150890350D03*
%TO.C,D7*%
X187135250Y-86135950D03*
X187135250Y-93755950D03*
%TO.C,D22*%
X187135250Y-105180750D03*
X187135250Y-112800750D03*
%TO.C,D66*%
X191896450Y-162315150D03*
X191896450Y-169935150D03*
%TO.C,D37*%
X196657650Y-124225550D03*
X196657650Y-131845550D03*
%TO.C,D53*%
X201418850Y-143270350D03*
X201418850Y-150890350D03*
%TO.C,D8*%
X206180050Y-86135950D03*
X206180050Y-93755950D03*
%TO.C,D23*%
X206180050Y-105180750D03*
X206180050Y-112800750D03*
%TO.C,D67*%
X210941250Y-162315150D03*
X210941250Y-169935150D03*
%TO.C,D38*%
X215702450Y-124225550D03*
X215702450Y-131845550D03*
%TO.C,D54*%
X220463650Y-143270350D03*
X220463650Y-150890350D03*
%TO.C,D9*%
X225224850Y-86135950D03*
X225224850Y-93755950D03*
%TO.C,D24*%
X225224850Y-105180750D03*
X225224850Y-112800750D03*
%TO.C,D68*%
X229986050Y-162315150D03*
X229986050Y-169935150D03*
%TO.C,D39*%
X234747250Y-124225550D03*
X234747250Y-131845550D03*
%TO.C,D55*%
X239508450Y-143270350D03*
X239508450Y-150890350D03*
%TO.C,D10*%
X244269650Y-86135950D03*
X244269650Y-93755950D03*
%TO.C,D25*%
X244269650Y-104941650D03*
X244269650Y-112561650D03*
%TO.C,D85*%
X244269650Y-181359950D03*
X244269650Y-188979950D03*
%TO.C,D69*%
X249030850Y-162315150D03*
X249030850Y-169935150D03*
%TO.C,D40*%
X253792050Y-124225550D03*
X253792050Y-131845550D03*
%TO.C,D56*%
X258553250Y-143270350D03*
X258553250Y-150890350D03*
%TO.C,D11*%
X263314450Y-86135950D03*
X263314450Y-93755950D03*
%TO.C,D26*%
X263314450Y-105180750D03*
X263314450Y-112800750D03*
%TO.C,D76*%
X263314450Y-181359950D03*
X263314450Y-188979950D03*
%TO.C,D71*%
X268075650Y-162315150D03*
X268075650Y-169935150D03*
%TO.C,D41*%
X272836850Y-124225550D03*
X272836850Y-131845550D03*
%TO.C,D57*%
X277598050Y-143270350D03*
X277598050Y-150890350D03*
%TO.C,D12*%
X282359250Y-86135950D03*
X282359250Y-93755950D03*
%TO.C,D27*%
X282359250Y-105180750D03*
X282359250Y-112800750D03*
%TO.C,D77*%
X282359250Y-181359950D03*
X282359250Y-188979950D03*
%TO.C,D72*%
X287120450Y-162290000D03*
X287120450Y-169910000D03*
%TO.C,D42*%
X291944350Y-124225550D03*
X291944350Y-131845550D03*
%TO.C,D58*%
X296642850Y-143031250D03*
X296642850Y-150651250D03*
%TO.C,D13*%
X301404050Y-86135950D03*
X301404050Y-93755950D03*
%TO.C,D28*%
X301404050Y-104941650D03*
X301404050Y-112561650D03*
%TO.C,D78*%
X301404050Y-181359950D03*
X301404050Y-188979950D03*
%TO.C,D44*%
X310926450Y-124225550D03*
X310926450Y-131845550D03*
%TO.C,D14*%
X320448850Y-86135950D03*
X320448850Y-93755950D03*
%TO.C,D73*%
X320448850Y-162315150D03*
X320448850Y-169935150D03*
%TO.C,D79*%
X320448850Y-181359950D03*
X320448850Y-188979950D03*
%TO.C,D45*%
X339490000Y-124210000D03*
X339490000Y-131830000D03*
%TO.C,D15*%
X339493650Y-86135950D03*
X339493650Y-93755950D03*
%TO.C,D29*%
X339493650Y-105180750D03*
X339493650Y-112800750D03*
%TO.C,D59*%
X339493650Y-143031250D03*
X339493650Y-150651250D03*
%TO.C,D74*%
X339493650Y-162315150D03*
X339493650Y-169935150D03*
%TO.C,D80*%
X339493650Y-181359950D03*
X339493650Y-188979950D03*
%TO.C,D43*%
X358538450Y-86135950D03*
X358538450Y-93755950D03*
%TO.C,D30*%
X358538450Y-105180750D03*
X358538450Y-112800750D03*
%TO.C,D46*%
X358538450Y-124225550D03*
X358538450Y-131845550D03*
%TO.C,D60*%
X358538450Y-143270350D03*
X358538450Y-150890350D03*
%TO.C,D75*%
X358538450Y-162315150D03*
X358538450Y-169935150D03*
%TO.C,D81*%
X358538450Y-181120850D03*
X358538450Y-188740850D03*
%TO.C,D70*%
X365100000Y-179890000D03*
X365100000Y-187510000D03*
D14*
%TO.C,A2*%
X367600000Y-72400000D03*
X367600000Y-74940000D03*
X367600000Y-77480000D03*
X367600000Y-80020000D03*
X367600000Y-82560000D03*
X367600000Y-85100000D03*
X367600000Y-87640000D03*
X367600000Y-90180000D03*
X367600000Y-92720000D03*
X367600000Y-95260000D03*
X367600000Y-97800000D03*
X367600000Y-100340000D03*
X367600000Y-102880000D03*
X367600000Y-105420000D03*
X367600000Y-107960000D03*
X367600000Y-110500000D03*
X367600000Y-113040000D03*
X367600000Y-115580000D03*
X367600000Y-118120000D03*
X367600000Y-120660000D03*
%TO.C,SW403*%
X368520000Y-180440000D03*
X368520000Y-185440000D03*
X383020000Y-180440000D03*
X383020000Y-182940000D03*
X383020000Y-185440000D03*
%TO.C,A2*%
X385380000Y-72400000D03*
X385380000Y-74940000D03*
X385380000Y-77480000D03*
X385380000Y-80020000D03*
X385380000Y-82560000D03*
X385380000Y-85100000D03*
X385380000Y-87640000D03*
X385380000Y-90180000D03*
X385380000Y-92720000D03*
X385380000Y-95260000D03*
X385380000Y-97800000D03*
X385380000Y-100340000D03*
X385380000Y-102880000D03*
X385380000Y-105420000D03*
X385380000Y-107960000D03*
X385380000Y-110500000D03*
X385380000Y-113040000D03*
X385380000Y-115580000D03*
X385380000Y-118120000D03*
X385380000Y-120660000D03*
D15*
%TO.C,SW403*%
X374870000Y-177340000D02*
X376170000Y-177340000D01*
X374870000Y-188540000D02*
X376170000Y-188540000D01*
M02*
