%TF.GenerationSoftware,KiCad,Pcbnew,9.0.7*%
%TF.CreationDate,2026-03-18T17:49:55+05:30*%
%TF.ProjectId,Split-KeyBoard,53706c69-742d-44b6-9579-426f6172642e,rev?*%
%TF.SameCoordinates,Original*%
%TF.FileFunction,Soldermask,Top*%
%TF.FilePolarity,Negative*%
%FSLAX46Y46*%
G04 Gerber Fmt 4.6, Leading zero omitted, Abs format (unit mm)*
G04 Created by KiCad (PCBNEW 9.0.7) date 2026-03-18 17:49:55*
%MOMM*%
%LPD*%
G01*
G04 APERTURE LIST*
G04 Aperture macros list*
%AMRoundRect*
0 Rectangle with rounded corners*
0 $1 Rounding radius*
0 $2 $3 $4 $5 $6 $7 $8 $9 X,Y pos of 4 corners*
0 Add a 4 corners polygon primitive as box body*
4,1,4,$2,$3,$4,$5,$6,$7,$8,$9,$2,$3,0*
0 Add four circle primitives for the rounded corners*
1,1,$1+$1,$2,$3*
1,1,$1+$1,$4,$5*
1,1,$1+$1,$6,$7*
1,1,$1+$1,$8,$9*
0 Add four rect primitives between the rounded corners*
20,1,$1+$1,$2,$3,$4,$5,0*
20,1,$1+$1,$4,$5,$6,$7,0*
20,1,$1+$1,$6,$7,$8,$9,0*
20,1,$1+$1,$8,$9,$2,$3,0*%
%AMFreePoly0*
4,1,37,0.603843,0.796157,0.639018,0.796157,0.711114,0.766294,0.766294,0.711114,0.796157,0.639018,0.796157,0.603843,0.800000,0.600000,0.800000,-0.600000,0.796157,-0.603843,0.796157,-0.639018,0.766294,-0.711114,0.711114,-0.766294,0.639018,-0.796157,0.603843,-0.796157,0.600000,-0.800000,0.000000,-0.800000,0.000000,-0.796148,-0.078414,-0.796148,-0.232228,-0.765552,-0.377117,-0.705537,
-0.507515,-0.618408,-0.618408,-0.507515,-0.705537,-0.377117,-0.765552,-0.232228,-0.796148,-0.078414,-0.796148,0.078414,-0.765552,0.232228,-0.705537,0.377117,-0.618408,0.507515,-0.507515,0.618408,-0.377117,0.705537,-0.232228,0.765552,-0.078414,0.796148,0.000000,0.796148,0.000000,0.800000,0.600000,0.800000,0.603843,0.796157,0.603843,0.796157,$1*%
%AMFreePoly1*
4,1,37,0.000000,0.796148,0.078414,0.796148,0.232228,0.765552,0.377117,0.705537,0.507515,0.618408,0.618408,0.507515,0.705537,0.377117,0.765552,0.232228,0.796148,0.078414,0.796148,-0.078414,0.765552,-0.232228,0.705537,-0.377117,0.618408,-0.507515,0.507515,-0.618408,0.377117,-0.705537,0.232228,-0.765552,0.078414,-0.796148,0.000000,-0.796148,0.000000,-0.800000,-0.600000,-0.800000,
-0.603843,-0.796157,-0.639018,-0.796157,-0.711114,-0.766294,-0.766294,-0.711114,-0.796157,-0.639018,-0.796157,-0.603843,-0.800000,-0.600000,-0.800000,0.600000,-0.796157,0.603843,-0.796157,0.639018,-0.766294,0.711114,-0.711114,0.766294,-0.639018,0.796157,-0.603843,0.796157,-0.600000,0.800000,0.000000,0.800000,0.000000,0.796148,0.000000,0.796148,$1*%
G04 Aperture macros list end*
%ADD10C,1.750000*%
%ADD11C,3.050000*%
%ADD12C,4.000000*%
%ADD13RoundRect,0.330000X-0.770000X-0.770000X0.770000X-0.770000X0.770000X0.770000X-0.770000X0.770000X0*%
%ADD14C,3.048000*%
%ADD15C,3.987800*%
%ADD16RoundRect,0.250000X0.550000X-0.550000X0.550000X0.550000X-0.550000X0.550000X-0.550000X-0.550000X0*%
%ADD17C,1.600000*%
%ADD18RoundRect,0.200000X0.600000X0.600000X-0.600000X0.600000X-0.600000X-0.600000X0.600000X-0.600000X0*%
%ADD19FreePoly0,180.000000*%
%ADD20FreePoly1,180.000000*%
%ADD21RoundRect,0.102000X0.570000X0.570000X-0.570000X0.570000X-0.570000X-0.570000X0.570000X-0.570000X0*%
%ADD22C,1.344000*%
G04 APERTURE END LIST*
D10*
%TO.C,SW26*%
X248951250Y-104338750D03*
D11*
X250221250Y-101798750D03*
D12*
X254031250Y-104338750D03*
D11*
X256571250Y-99258750D03*
D10*
X259111250Y-104338750D03*
%TD*%
%TO.C,SW41*%
X258476250Y-123388750D03*
D11*
X259746250Y-120848750D03*
D12*
X263556250Y-123388750D03*
D11*
X266096250Y-118308750D03*
D10*
X268636250Y-123388750D03*
%TD*%
%TO.C,SW22*%
X172751250Y-104338750D03*
D11*
X174021250Y-101798750D03*
D12*
X177831250Y-104338750D03*
D11*
X180371250Y-99258750D03*
D10*
X182911250Y-104338750D03*
%TD*%
%TO.C,SW40*%
X239426250Y-123388750D03*
D11*
X240696250Y-120848750D03*
D12*
X244506250Y-123388750D03*
D11*
X247046250Y-118308750D03*
D10*
X249586250Y-123388750D03*
%TD*%
%TO.C,SW25*%
X229901250Y-104338750D03*
D11*
X231171250Y-101798750D03*
D12*
X234981250Y-104338750D03*
D11*
X237521250Y-99258750D03*
D10*
X240061250Y-104338750D03*
%TD*%
%TO.C,SW11*%
X268001250Y-85288750D03*
D11*
X269271250Y-82748750D03*
D12*
X273081250Y-85288750D03*
D11*
X275621250Y-80208750D03*
D10*
X278161250Y-85288750D03*
%TD*%
%TO.C,SW20*%
X134651250Y-104338750D03*
D11*
X135921250Y-101798750D03*
D12*
X139731250Y-104338750D03*
D11*
X142271250Y-99258750D03*
D10*
X144811250Y-104338750D03*
%TD*%
%TO.C,SW45*%
X320388750Y-123388750D03*
D11*
X321658750Y-120848750D03*
D12*
X325468750Y-123388750D03*
D11*
X328008750Y-118308750D03*
D10*
X330548750Y-123388750D03*
%TD*%
%TO.C,SW74*%
X344201250Y-161488750D03*
D11*
X345471250Y-158948750D03*
D12*
X349281250Y-161488750D03*
D11*
X351821250Y-156408750D03*
D10*
X354361250Y-161488750D03*
%TD*%
%TO.C,SW60*%
X344201250Y-142438750D03*
D11*
X345471250Y-139898750D03*
D12*
X349281250Y-142438750D03*
D11*
X351821250Y-137358750D03*
D10*
X354361250Y-142438750D03*
%TD*%
%TO.C,SW52*%
X167988750Y-142438750D03*
D11*
X169258750Y-139898750D03*
D12*
X173068750Y-142438750D03*
D11*
X175608750Y-137358750D03*
D10*
X178148750Y-142438750D03*
%TD*%
%TO.C,SW57*%
X263238750Y-142438750D03*
D11*
X264508750Y-139898750D03*
D12*
X268318750Y-142438750D03*
D11*
X270858750Y-137358750D03*
D10*
X273398750Y-142438750D03*
%TD*%
%TO.C,SW69*%
X234663750Y-161488750D03*
D11*
X235933750Y-158948750D03*
D12*
X239743750Y-161488750D03*
D11*
X242283750Y-156408750D03*
D10*
X244823750Y-161488750D03*
%TD*%
%TO.C,SW14*%
X325151250Y-85288750D03*
D11*
X326421250Y-82748750D03*
D12*
X330231250Y-85288750D03*
D11*
X332771250Y-80208750D03*
D10*
X335311250Y-85288750D03*
%TD*%
%TO.C,SW17*%
X77501250Y-104338750D03*
D11*
X78771250Y-101798750D03*
D12*
X82581250Y-104338750D03*
D11*
X85121250Y-99258750D03*
D10*
X87661250Y-104338750D03*
%TD*%
%TO.C,SW34*%
X125126250Y-123388750D03*
D11*
X126396250Y-120848750D03*
D12*
X130206250Y-123388750D03*
D11*
X132746250Y-118308750D03*
D10*
X135286250Y-123388750D03*
%TD*%
%TO.C,SW54*%
X206088750Y-142438750D03*
D11*
X207358750Y-139898750D03*
D12*
X211168750Y-142438750D03*
D11*
X213708750Y-137358750D03*
D10*
X216248750Y-142438750D03*
%TD*%
%TO.C,SW80*%
X344201250Y-180538750D03*
D11*
X345471250Y-177998750D03*
D12*
X349281250Y-180538750D03*
D11*
X351821250Y-175458750D03*
D10*
X354361250Y-180538750D03*
%TD*%
%TO.C,SW10*%
X248951250Y-85288750D03*
D11*
X250221250Y-82748750D03*
D12*
X254031250Y-85288750D03*
D11*
X256571250Y-80208750D03*
D10*
X259111250Y-85288750D03*
%TD*%
%TO.C,SW78*%
X306101250Y-180538750D03*
D11*
X307371250Y-177998750D03*
D12*
X311181250Y-180538750D03*
D11*
X313721250Y-175458750D03*
D10*
X316261250Y-180538750D03*
%TD*%
%TO.C,SW64*%
X139413750Y-161488750D03*
D11*
X140683750Y-158948750D03*
D12*
X144493750Y-161488750D03*
D11*
X147033750Y-156408750D03*
D10*
X149573750Y-161488750D03*
%TD*%
%TO.C,SW18*%
X96551250Y-104338750D03*
D11*
X97821250Y-101798750D03*
D12*
X101631250Y-104338750D03*
D11*
X104171250Y-99258750D03*
D10*
X106711250Y-104338750D03*
%TD*%
%TO.C,SW58*%
X282288750Y-142438750D03*
D11*
X283558750Y-139898750D03*
D12*
X287368750Y-142438750D03*
D11*
X289908750Y-137358750D03*
D10*
X292448750Y-142438750D03*
%TD*%
%TO.C,SW44*%
X296576250Y-123388750D03*
D11*
X297846250Y-120848750D03*
D12*
X301656250Y-123388750D03*
D11*
X304196250Y-118308750D03*
D10*
X306736250Y-123388750D03*
%TD*%
%TO.C,SW77*%
X287051250Y-180538750D03*
D11*
X288321250Y-177998750D03*
D12*
X292131250Y-180538750D03*
D11*
X294671250Y-175458750D03*
D10*
X297211250Y-180538750D03*
%TD*%
D13*
%TO.C,Pad2*%
X372400000Y-136800000D03*
%TD*%
D10*
%TO.C,SW29*%
X315626250Y-104338750D03*
D11*
X316896250Y-101798750D03*
D12*
X320706250Y-104338750D03*
D11*
X323246250Y-99258750D03*
D10*
X325786250Y-104338750D03*
%TD*%
%TO.C,SW3*%
X115601250Y-85288750D03*
D11*
X116871250Y-82748750D03*
D12*
X120681250Y-85288750D03*
D11*
X123221250Y-80208750D03*
D10*
X125761250Y-85288750D03*
%TD*%
D14*
%TO.C,S4*%
X63531250Y-154503750D03*
D15*
X63531250Y-169743750D03*
D14*
X87343750Y-154503750D03*
D15*
X87343750Y-169743750D03*
%TD*%
D10*
%TO.C,SW8*%
X210851250Y-85288750D03*
D11*
X212121250Y-82748750D03*
D12*
X215931250Y-85288750D03*
D11*
X218471250Y-80208750D03*
D10*
X221011250Y-85288750D03*
%TD*%
%TO.C,SW7*%
X191801250Y-85288750D03*
D11*
X193071250Y-82748750D03*
D12*
X196881250Y-85288750D03*
D11*
X199421250Y-80208750D03*
D10*
X201961250Y-85288750D03*
%TD*%
%TO.C,SW49*%
X110838750Y-142438750D03*
D11*
X112108750Y-139898750D03*
D12*
X115918750Y-142438750D03*
D11*
X118458750Y-137358750D03*
D10*
X120998750Y-142438750D03*
%TD*%
%TO.C,SW23*%
X191801250Y-104338750D03*
D11*
X193071250Y-101798750D03*
D12*
X196881250Y-104338750D03*
D11*
X199421250Y-99258750D03*
D10*
X201961250Y-104338750D03*
%TD*%
%TO.C,SW71*%
X272763750Y-161488750D03*
D11*
X274033750Y-158948750D03*
D12*
X277843750Y-161488750D03*
D11*
X280383750Y-156408750D03*
D10*
X282923750Y-161488750D03*
%TD*%
%TO.C,SW38*%
X201326250Y-123388750D03*
D11*
X202596250Y-120848750D03*
D12*
X206406250Y-123388750D03*
D11*
X208946250Y-118308750D03*
D10*
X211486250Y-123388750D03*
%TD*%
%TO.C,SW50*%
X129888750Y-142438750D03*
D11*
X131158750Y-139898750D03*
D12*
X134968750Y-142438750D03*
D11*
X137508750Y-137358750D03*
D10*
X140048750Y-142438750D03*
%TD*%
%TO.C,SW9*%
X229901250Y-85288750D03*
D11*
X231171250Y-82748750D03*
D12*
X234981250Y-85288750D03*
D11*
X237521250Y-80208750D03*
D10*
X240061250Y-85288750D03*
%TD*%
%TO.C,SW31*%
X63213750Y-123388750D03*
D11*
X64483750Y-120848750D03*
D12*
X68293750Y-123388750D03*
D11*
X70833750Y-118308750D03*
D10*
X73373750Y-123388750D03*
%TD*%
%TO.C,SW51*%
X148938750Y-142438750D03*
D11*
X150208750Y-139898750D03*
D12*
X154018750Y-142438750D03*
D11*
X156558750Y-137358750D03*
D10*
X159098750Y-142438750D03*
%TD*%
%TO.C,SW28*%
X287051250Y-104338750D03*
D11*
X288321250Y-101798750D03*
D12*
X292131250Y-104338750D03*
D11*
X294671250Y-99258750D03*
D10*
X297211250Y-104338750D03*
%TD*%
%TO.C,SW2*%
X96551250Y-85288750D03*
D11*
X97821250Y-82748750D03*
D12*
X101631250Y-85288750D03*
D11*
X104171250Y-80208750D03*
D10*
X106711250Y-85288750D03*
%TD*%
%TO.C,SW39*%
X220376250Y-123388750D03*
D11*
X221646250Y-120848750D03*
D12*
X225456250Y-123388750D03*
D11*
X227996250Y-118308750D03*
D10*
X230536250Y-123388750D03*
%TD*%
%TO.C,SW61*%
X70357500Y-161488750D03*
D11*
X71627500Y-158948750D03*
D12*
X75437500Y-161488750D03*
D11*
X77977500Y-156408750D03*
D10*
X80517500Y-161488750D03*
%TD*%
%TO.C,SW72*%
X298957500Y-161488750D03*
D11*
X300227500Y-158948750D03*
D12*
X304037500Y-161488750D03*
D11*
X306577500Y-156408750D03*
D10*
X309117500Y-161488750D03*
%TD*%
D13*
%TO.C,Pad1*%
X380000000Y-136800000D03*
%TD*%
D10*
%TO.C,SW75*%
X248951250Y-180538750D03*
D11*
X250221250Y-177998750D03*
D12*
X254031250Y-180538750D03*
D11*
X256571250Y-175458750D03*
D10*
X259111250Y-180538750D03*
%TD*%
%TO.C,SW16*%
X58451250Y-104338750D03*
D11*
X59721250Y-101798750D03*
D12*
X63531250Y-104338750D03*
D11*
X66071250Y-99258750D03*
D10*
X68611250Y-104338750D03*
%TD*%
%TO.C,SW35*%
X144176250Y-123388750D03*
D11*
X145446250Y-120848750D03*
D12*
X149256250Y-123388750D03*
D11*
X151796250Y-118308750D03*
D10*
X154336250Y-123388750D03*
%TD*%
%TO.C,SW48*%
X91788750Y-142438750D03*
D11*
X93058750Y-139898750D03*
D12*
X96868750Y-142438750D03*
D11*
X99408750Y-137358750D03*
D10*
X101948750Y-142438750D03*
%TD*%
%TO.C,SW46*%
X344201250Y-123388750D03*
D11*
X345471250Y-120848750D03*
D12*
X349281250Y-123388750D03*
D11*
X351821250Y-118308750D03*
D10*
X354361250Y-123388750D03*
%TD*%
%TO.C,SW79*%
X325151250Y-180538750D03*
D11*
X326421250Y-177998750D03*
D12*
X330231250Y-180538750D03*
D11*
X332771250Y-175458750D03*
D10*
X335311250Y-180538750D03*
%TD*%
%TO.C,SW56*%
X244188750Y-142438750D03*
D11*
X245458750Y-139898750D03*
D12*
X249268750Y-142438750D03*
D11*
X251808750Y-137358750D03*
D10*
X254348750Y-142438750D03*
%TD*%
%TO.C,SW24*%
X210851250Y-104338750D03*
D11*
X212121250Y-101798750D03*
D12*
X215931250Y-104338750D03*
D11*
X218471250Y-99258750D03*
D10*
X221011250Y-104338750D03*
%TD*%
D14*
%TO.C,S3*%
X306418750Y-135453750D03*
D15*
X306418750Y-150693750D03*
D14*
X330231250Y-135453750D03*
D15*
X330231250Y-150693750D03*
%TD*%
D10*
%TO.C,SW15*%
X344201250Y-85288750D03*
D11*
X345471250Y-82748750D03*
D12*
X349281250Y-85288750D03*
D11*
X351821250Y-80208750D03*
D10*
X354361250Y-85288750D03*
%TD*%
%TO.C,SW33*%
X106076250Y-123388750D03*
D11*
X107346250Y-120848750D03*
D12*
X111156250Y-123388750D03*
D11*
X113696250Y-118308750D03*
D10*
X116236250Y-123388750D03*
%TD*%
%TO.C,SW4*%
X134651250Y-85288750D03*
D11*
X135921250Y-82748750D03*
D12*
X139731250Y-85288750D03*
D11*
X142271250Y-80208750D03*
D10*
X144811250Y-85288750D03*
%TD*%
%TO.C,SW12*%
X287051250Y-85288750D03*
D11*
X288321250Y-82748750D03*
D12*
X292131250Y-85288750D03*
D11*
X294671250Y-80208750D03*
D10*
X297211250Y-85288750D03*
%TD*%
%TO.C,SW55*%
X225138750Y-142438750D03*
D11*
X226408750Y-139898750D03*
D12*
X230218750Y-142438750D03*
D11*
X232758750Y-137358750D03*
D10*
X235298750Y-142438750D03*
%TD*%
%TO.C,SW36*%
X163226250Y-123388750D03*
D11*
X164496250Y-120848750D03*
D12*
X168306250Y-123388750D03*
D11*
X170846250Y-118308750D03*
D10*
X173386250Y-123388750D03*
%TD*%
%TO.C,SW63*%
X120363750Y-161488750D03*
D11*
X121633750Y-158948750D03*
D12*
X125443750Y-161488750D03*
D11*
X127983750Y-156408750D03*
D10*
X130523750Y-161488750D03*
%TD*%
%TO.C,SW21*%
X153701250Y-104338750D03*
D11*
X154971250Y-101798750D03*
D12*
X158781250Y-104338750D03*
D11*
X161321250Y-99258750D03*
D10*
X163861250Y-104338750D03*
%TD*%
%TO.C,SW5*%
X153701250Y-85288750D03*
D11*
X154971250Y-82748750D03*
D12*
X158781250Y-85288750D03*
D11*
X161321250Y-80208750D03*
D10*
X163861250Y-85288750D03*
%TD*%
D14*
%TO.C,S2*%
X308800000Y-97353750D03*
D15*
X308800000Y-112593750D03*
D14*
X332612500Y-97353750D03*
D15*
X332612500Y-112593750D03*
%TD*%
D10*
%TO.C,SW76*%
X268001250Y-180538750D03*
D11*
X269271250Y-177998750D03*
D12*
X273081250Y-180538750D03*
D11*
X275621250Y-175458750D03*
D10*
X278161250Y-180538750D03*
%TD*%
%TO.C,SW73*%
X325151250Y-161488750D03*
D11*
X326421250Y-158948750D03*
D12*
X330231250Y-161488750D03*
D11*
X332771250Y-156408750D03*
D10*
X335311250Y-161488750D03*
%TD*%
%TO.C,SW42*%
X277526250Y-123388750D03*
D11*
X278796250Y-120848750D03*
D12*
X282606250Y-123388750D03*
D11*
X285146250Y-118308750D03*
D10*
X287686250Y-123388750D03*
%TD*%
%TO.C,SW1*%
X77501250Y-85288750D03*
D11*
X78771250Y-82748750D03*
D12*
X82581250Y-85288750D03*
D11*
X85121250Y-80208750D03*
D10*
X87661250Y-85288750D03*
%TD*%
%TO.C,SW13*%
X306101250Y-85288750D03*
D11*
X307371250Y-82748750D03*
D12*
X311181250Y-85288750D03*
D11*
X313721250Y-80208750D03*
D10*
X316261250Y-85288750D03*
%TD*%
%TO.C,SW27*%
X268001250Y-104338750D03*
D11*
X269271250Y-101798750D03*
D12*
X273081250Y-104338750D03*
D11*
X275621250Y-99258750D03*
D10*
X278161250Y-104338750D03*
%TD*%
%TO.C,SW70*%
X253713750Y-161488750D03*
D11*
X254983750Y-158948750D03*
D12*
X258793750Y-161488750D03*
D11*
X261333750Y-156408750D03*
D10*
X263873750Y-161488750D03*
%TD*%
D14*
%TO.C,S1*%
X134968750Y-173553750D03*
D15*
X134968750Y-188793750D03*
D14*
X234981250Y-173553750D03*
D15*
X234981250Y-188793750D03*
%TD*%
D10*
%TO.C,SW84*%
X179895000Y-180538750D03*
D11*
X181165000Y-177998750D03*
D12*
X184975000Y-180538750D03*
D11*
X187515000Y-175458750D03*
D10*
X190055000Y-180538750D03*
%TD*%
%TO.C,SW32*%
X87026250Y-123388750D03*
D11*
X88296250Y-120848750D03*
D12*
X92106250Y-123388750D03*
D11*
X94646250Y-118308750D03*
D10*
X97186250Y-123388750D03*
%TD*%
%TO.C,SW66*%
X177513750Y-161488750D03*
D11*
X178783750Y-158948750D03*
D12*
X182593750Y-161488750D03*
D11*
X185133750Y-156408750D03*
D10*
X187673750Y-161488750D03*
%TD*%
%TO.C,SW59*%
X313245000Y-142438750D03*
D11*
X314515000Y-139898750D03*
D12*
X318325000Y-142438750D03*
D11*
X320865000Y-137358750D03*
D10*
X323405000Y-142438750D03*
%TD*%
%TO.C,SW30*%
X344201250Y-104338750D03*
D11*
X345471250Y-101798750D03*
D12*
X349281250Y-104338750D03*
D11*
X351821250Y-99258750D03*
D10*
X354361250Y-104338750D03*
%TD*%
%TO.C,SW53*%
X187038750Y-142438750D03*
D11*
X188308750Y-139898750D03*
D12*
X192118750Y-142438750D03*
D11*
X194658750Y-137358750D03*
D10*
X197198750Y-142438750D03*
%TD*%
%TO.C,SW67*%
X196563750Y-161488750D03*
D11*
X197833750Y-158948750D03*
D12*
X201643750Y-161488750D03*
D11*
X204183750Y-156408750D03*
D10*
X206723750Y-161488750D03*
%TD*%
%TO.C,SW0*%
X58476550Y-85328150D03*
D11*
X59746550Y-82788150D03*
D12*
X63556550Y-85328150D03*
D11*
X66096550Y-80248150D03*
D10*
X68636550Y-85328150D03*
%TD*%
%TO.C,SW47*%
X65595000Y-142438750D03*
D11*
X66865000Y-139898750D03*
D12*
X70675000Y-142438750D03*
D11*
X73215000Y-137358750D03*
D10*
X75755000Y-142438750D03*
%TD*%
%TO.C,SW62*%
X101313750Y-161488750D03*
D11*
X102583750Y-158948750D03*
D12*
X106393750Y-161488750D03*
D11*
X108933750Y-156408750D03*
D10*
X111473750Y-161488750D03*
%TD*%
%TO.C,SW83*%
X108457500Y-180538750D03*
D11*
X109727500Y-177998750D03*
D12*
X113537500Y-180538750D03*
D11*
X116077500Y-175458750D03*
D10*
X118617500Y-180538750D03*
%TD*%
%TO.C,SW65*%
X158463750Y-161488750D03*
D11*
X159733750Y-158948750D03*
D12*
X163543750Y-161488750D03*
D11*
X166083750Y-156408750D03*
D10*
X168623750Y-161488750D03*
%TD*%
%TO.C,SW82*%
X84645000Y-180538750D03*
D11*
X85915000Y-177998750D03*
D12*
X89725000Y-180538750D03*
D11*
X92265000Y-175458750D03*
D10*
X94805000Y-180538750D03*
%TD*%
%TO.C,SW37*%
X182276250Y-123388750D03*
D11*
X183546250Y-120848750D03*
D12*
X187356250Y-123388750D03*
D11*
X189896250Y-118308750D03*
D10*
X192436250Y-123388750D03*
%TD*%
%TO.C,SW6*%
X172751250Y-85288750D03*
D11*
X174021250Y-82748750D03*
D12*
X177831250Y-85288750D03*
D11*
X180371250Y-80208750D03*
D10*
X182911250Y-85288750D03*
%TD*%
%TO.C,SW68*%
X215613750Y-161488750D03*
D11*
X216883750Y-158948750D03*
D12*
X220693750Y-161488750D03*
D11*
X223233750Y-156408750D03*
D10*
X225773750Y-161488750D03*
%TD*%
%TO.C,SW19*%
X115601250Y-104338750D03*
D11*
X116871250Y-101798750D03*
D12*
X120681250Y-104338750D03*
D11*
X123221250Y-99258750D03*
D10*
X125761250Y-104338750D03*
%TD*%
%TO.C,SW81*%
X60832500Y-180538750D03*
D11*
X62102500Y-177998750D03*
D12*
X65912500Y-180538750D03*
D11*
X68452500Y-175458750D03*
D10*
X70992500Y-180538750D03*
%TD*%
D16*
%TO.C,D52*%
X182374050Y-150890350D03*
D17*
X182374050Y-143270350D03*
%TD*%
D16*
%TO.C,D13*%
X301404050Y-93755950D03*
D17*
X301404050Y-86135950D03*
%TD*%
D16*
%TO.C,D69*%
X249030850Y-169935150D03*
D17*
X249030850Y-162315150D03*
%TD*%
D16*
%TO.C,D3*%
X110956050Y-93755950D03*
D17*
X110956050Y-86135950D03*
%TD*%
D16*
%TO.C,D14*%
X320448850Y-93755950D03*
D17*
X320448850Y-86135950D03*
%TD*%
D16*
%TO.C,D34*%
X139523250Y-131845550D03*
D17*
X139523250Y-124225550D03*
%TD*%
D16*
%TO.C,D66*%
X191896450Y-169935150D03*
D17*
X191896450Y-162315150D03*
%TD*%
D16*
%TO.C,D57*%
X277598050Y-150890350D03*
D17*
X277598050Y-143270350D03*
%TD*%
D16*
%TO.C,D73*%
X320448850Y-169935150D03*
D17*
X320448850Y-162315150D03*
%TD*%
D16*
%TO.C,D48*%
X106194850Y-150890350D03*
D17*
X106194850Y-143270350D03*
%TD*%
D16*
%TO.C,D83*%
X101433650Y-188979950D03*
D17*
X101433650Y-181359950D03*
%TD*%
D16*
%TO.C,D56*%
X258553250Y-150890350D03*
D17*
X258553250Y-143270350D03*
%TD*%
D16*
%TO.C,D81*%
X358538450Y-188740850D03*
D17*
X358538450Y-181120850D03*
%TD*%
D16*
%TO.C,D84*%
X125239650Y-188979950D03*
D17*
X125239650Y-181359950D03*
%TD*%
D16*
%TO.C,D54*%
X220463650Y-150890350D03*
D17*
X220463650Y-143270350D03*
%TD*%
D16*
%TO.C,D70*%
X365100000Y-187510000D03*
D17*
X365100000Y-179890000D03*
%TD*%
D16*
%TO.C,D77*%
X282359250Y-188979950D03*
D17*
X282359250Y-181359950D03*
%TD*%
D16*
%TO.C,D12*%
X282359250Y-93755950D03*
D17*
X282359250Y-86135950D03*
%TD*%
D16*
%TO.C,D72*%
X287120450Y-169910000D03*
D17*
X287120450Y-162290000D03*
%TD*%
D16*
%TO.C,D67*%
X210941250Y-169935150D03*
D17*
X210941250Y-162315150D03*
%TD*%
D18*
%TO.C,A2*%
X385380000Y-72400000D03*
D17*
X385380000Y-74940000D03*
D19*
X385380000Y-77480000D03*
D17*
X385380000Y-80020000D03*
X385380000Y-82560000D03*
X385380000Y-85100000D03*
X385380000Y-87640000D03*
D19*
X385380000Y-90180000D03*
D17*
X385380000Y-92720000D03*
X385380000Y-95260000D03*
X385380000Y-97800000D03*
X385380000Y-100340000D03*
D19*
X385380000Y-102880000D03*
D17*
X385380000Y-105420000D03*
X385380000Y-107960000D03*
X385380000Y-110500000D03*
X385380000Y-113040000D03*
D19*
X385380000Y-115580000D03*
D17*
X385380000Y-118120000D03*
X385380000Y-120660000D03*
X367600000Y-120660000D03*
X367600000Y-118120000D03*
D20*
X367600000Y-115580000D03*
D17*
X367600000Y-113040000D03*
X367600000Y-110500000D03*
X367600000Y-107960000D03*
X367600000Y-105420000D03*
D20*
X367600000Y-102880000D03*
D17*
X367600000Y-100340000D03*
X367600000Y-97800000D03*
X367600000Y-95260000D03*
X367600000Y-92720000D03*
D20*
X367600000Y-90180000D03*
D17*
X367600000Y-87640000D03*
X367600000Y-85100000D03*
X367600000Y-82560000D03*
X367600000Y-80020000D03*
D20*
X367600000Y-77480000D03*
D17*
X367600000Y-74940000D03*
X367600000Y-72400000D03*
%TD*%
D16*
%TO.C,D27*%
X282359250Y-112800750D03*
D17*
X282359250Y-105180750D03*
%TD*%
D16*
%TO.C,D20*%
X149045650Y-112800750D03*
D17*
X149045650Y-105180750D03*
%TD*%
D16*
%TO.C,D17*%
X91911250Y-112800750D03*
D17*
X91911250Y-105180750D03*
%TD*%
D16*
%TO.C,D68*%
X229986050Y-169935150D03*
D17*
X229986050Y-162315150D03*
%TD*%
D16*
%TO.C,D4*%
X130000850Y-93755950D03*
D17*
X130000850Y-86135950D03*
%TD*%
D16*
%TO.C,D47*%
X87150050Y-150890350D03*
D17*
X87150050Y-143270350D03*
%TD*%
D16*
%TO.C,D35*%
X158568050Y-131845550D03*
D17*
X158568050Y-124225550D03*
%TD*%
D16*
%TO.C,D62*%
X115717250Y-169935150D03*
D17*
X115717250Y-162315150D03*
%TD*%
D16*
%TO.C,D8*%
X206180050Y-93755950D03*
D17*
X206180050Y-86135950D03*
%TD*%
D16*
%TO.C,D44*%
X310926450Y-131845550D03*
D17*
X310926450Y-124225550D03*
%TD*%
D16*
%TO.C,D51*%
X163329250Y-150890350D03*
D17*
X163329250Y-143270350D03*
%TD*%
D16*
%TO.C,D28*%
X301404050Y-112561650D03*
D17*
X301404050Y-104941650D03*
%TD*%
D16*
%TO.C,D26*%
X263314450Y-112800750D03*
D17*
X263314450Y-105180750D03*
%TD*%
D16*
%TO.C,D38*%
X215702450Y-131845550D03*
D17*
X215702450Y-124225550D03*
%TD*%
D16*
%TO.C,D7*%
X187135250Y-93755950D03*
D17*
X187135250Y-86135950D03*
%TD*%
D16*
%TO.C,D24*%
X225224850Y-112800750D03*
D17*
X225224850Y-105180750D03*
%TD*%
D16*
%TO.C,D15*%
X339493650Y-93755950D03*
D17*
X339493650Y-86135950D03*
%TD*%
D16*
%TO.C,D22*%
X187135250Y-112800750D03*
D17*
X187135250Y-105180750D03*
%TD*%
D16*
%TO.C,D82*%
X77627650Y-188979950D03*
D17*
X77627650Y-181359950D03*
%TD*%
D16*
%TO.C,D18*%
X110956050Y-112800750D03*
D17*
X110956050Y-105180750D03*
%TD*%
D16*
%TO.C,D49*%
X125239650Y-150890350D03*
D17*
X125239650Y-143270350D03*
%TD*%
D21*
%TO.C,U1*%
X379820000Y-152900000D03*
D22*
X379820000Y-155440000D03*
X379820000Y-157980000D03*
X379820000Y-160520000D03*
X379820000Y-163060000D03*
X379820000Y-165600000D03*
X379820000Y-168140000D03*
X371880000Y-168140000D03*
X371880000Y-165600000D03*
X371880000Y-163060000D03*
X371880000Y-160520000D03*
X371880000Y-157980000D03*
X371880000Y-155440000D03*
X371880000Y-152900000D03*
%TD*%
D16*
%TO.C,D6*%
X168090450Y-93755950D03*
D17*
X168090450Y-86135950D03*
%TD*%
D16*
%TO.C,D30*%
X358538450Y-112800750D03*
D17*
X358538450Y-105180750D03*
%TD*%
D16*
%TO.C,D32*%
X101433650Y-131845550D03*
D17*
X101433650Y-124225550D03*
%TD*%
D16*
%TO.C,D10*%
X244269650Y-93755950D03*
D17*
X244269650Y-86135950D03*
%TD*%
D16*
%TO.C,D11*%
X263314450Y-93755950D03*
D17*
X263314450Y-86135950D03*
%TD*%
D16*
%TO.C,D40*%
X253792050Y-131845550D03*
D17*
X253792050Y-124225550D03*
%TD*%
D16*
%TO.C,D55*%
X239508450Y-150890350D03*
D17*
X239508450Y-143270350D03*
%TD*%
D16*
%TO.C,D58*%
X296642850Y-150651250D03*
D17*
X296642850Y-143031250D03*
%TD*%
D16*
%TO.C,D31*%
X82388850Y-131845550D03*
D17*
X82388850Y-124225550D03*
%TD*%
D16*
%TO.C,D78*%
X301404050Y-188979950D03*
D17*
X301404050Y-181359950D03*
%TD*%
D16*
%TO.C,D23*%
X206180050Y-112800750D03*
D17*
X206180050Y-105180750D03*
%TD*%
D16*
%TO.C,D85*%
X244269650Y-188979950D03*
D17*
X244269650Y-181359950D03*
%TD*%
D16*
%TO.C,D74*%
X339493650Y-169935150D03*
D17*
X339493650Y-162315150D03*
%TD*%
D16*
%TO.C,D36*%
X177612850Y-131845550D03*
D17*
X177612850Y-124225550D03*
%TD*%
D16*
%TO.C,D63*%
X134762050Y-169935150D03*
D17*
X134762050Y-162315150D03*
%TD*%
D16*
%TO.C,D75*%
X358538450Y-169935150D03*
D17*
X358538450Y-162315150D03*
%TD*%
D16*
%TO.C,D37*%
X196657650Y-131845550D03*
D17*
X196657650Y-124225550D03*
%TD*%
D16*
%TO.C,D50*%
X144284450Y-150890350D03*
D17*
X144284450Y-143270350D03*
%TD*%
D16*
%TO.C,D46*%
X358538450Y-131845550D03*
D17*
X358538450Y-124225550D03*
%TD*%
D16*
%TO.C,D25*%
X244269650Y-112561650D03*
D17*
X244269650Y-104941650D03*
%TD*%
D16*
%TO.C,D76*%
X263314450Y-188979950D03*
D17*
X263314450Y-181359950D03*
%TD*%
D16*
%TO.C,D21*%
X168090450Y-112800750D03*
D17*
X168090450Y-105180750D03*
%TD*%
D16*
%TO.C,D60*%
X358538450Y-150890350D03*
D17*
X358538450Y-143270350D03*
%TD*%
D16*
%TO.C,D65*%
X172851650Y-169935150D03*
D17*
X172851650Y-162315150D03*
%TD*%
D16*
%TO.C,D59*%
X339493650Y-150651250D03*
D17*
X339493650Y-143031250D03*
%TD*%
D16*
%TO.C,D19*%
X130000850Y-112800750D03*
D17*
X130000850Y-105180750D03*
%TD*%
D16*
%TO.C,D29*%
X339493650Y-112800750D03*
D17*
X339493650Y-105180750D03*
%TD*%
D16*
%TO.C,D9*%
X225224850Y-93755950D03*
D17*
X225224850Y-86135950D03*
%TD*%
D16*
%TO.C,D64*%
X153806850Y-169935150D03*
D17*
X153806850Y-162315150D03*
%TD*%
D16*
%TO.C,D33*%
X120478450Y-131845550D03*
D17*
X120478450Y-124225550D03*
%TD*%
D16*
%TO.C,D41*%
X272836850Y-131845550D03*
D17*
X272836850Y-124225550D03*
%TD*%
D16*
%TO.C,D5*%
X149045650Y-93755950D03*
D17*
X149045650Y-86135950D03*
%TD*%
D16*
%TO.C,D79*%
X320448850Y-188979950D03*
D17*
X320448850Y-181359950D03*
%TD*%
D16*
%TO.C,D43*%
X358538450Y-93755950D03*
D17*
X358538450Y-86135950D03*
%TD*%
D16*
%TO.C,D61*%
X96672450Y-169935150D03*
D17*
X96672450Y-162315150D03*
%TD*%
D16*
%TO.C,D2*%
X91911250Y-93755950D03*
D17*
X91911250Y-86135950D03*
%TD*%
D16*
%TO.C,D1*%
X72866450Y-93755950D03*
D17*
X72866450Y-86135950D03*
%TD*%
D16*
%TO.C,D42*%
X291944350Y-131845550D03*
D17*
X291944350Y-124225550D03*
%TD*%
D16*
%TO.C,D71*%
X268075650Y-169935150D03*
D17*
X268075650Y-162315150D03*
%TD*%
D16*
%TO.C,D80*%
X339493650Y-188979950D03*
D17*
X339493650Y-181359950D03*
%TD*%
D16*
%TO.C,D45*%
X339490000Y-131830000D03*
D17*
X339490000Y-124210000D03*
%TD*%
D16*
%TO.C,D16*%
X72866450Y-112800750D03*
D17*
X72866450Y-105180750D03*
%TD*%
D16*
%TO.C,D39*%
X234747250Y-131845550D03*
D17*
X234747250Y-124225550D03*
%TD*%
D16*
%TO.C,D53*%
X201418850Y-150890350D03*
D17*
X201418850Y-143270350D03*
%TD*%
M02*
