%TF.GenerationSoftware,KiCad,Pcbnew,9.0.7*%
%TF.CreationDate,2026-03-18T17:49:44+05:30*%
%TF.ProjectId,Split-KeyBoard,53706c69-742d-44b6-9579-426f6172642e,rev?*%
%TF.SameCoordinates,Original*%
%TF.FileFunction,NonPlated,1,2,NPTH,Drill*%
%TF.FilePolarity,Positive*%
%FSLAX46Y46*%
G04 Gerber Fmt 4.6, Leading zero omitted, Abs format (unit mm)*
G04 Created by KiCad (PCBNEW 9.0.7) date 2026-03-18 17:49:44*
%MOMM*%
%LPD*%
G01*
G04 APERTURE LIST*
%TA.AperFunction,ComponentDrill*%
%ADD10C,1.750000*%
%TD*%
%TA.AperFunction,ComponentDrill*%
%ADD11C,3.048000*%
%TD*%
%TA.AperFunction,ComponentDrill*%
%ADD12C,3.050000*%
%TD*%
%TA.AperFunction,ComponentDrill*%
%ADD13C,3.987800*%
%TD*%
%TA.AperFunction,ComponentDrill*%
%ADD14C,4.000000*%
%TD*%
G04 APERTURE END LIST*
D10*
%TO.C,SW16*%
X58451250Y-104338750D03*
%TO.C,SW0*%
X58476550Y-85328150D03*
%TO.C,SW81*%
X60832500Y-180538750D03*
%TO.C,SW31*%
X63213750Y-123388750D03*
%TO.C,SW47*%
X65595000Y-142438750D03*
%TO.C,SW16*%
X68611250Y-104338750D03*
%TO.C,SW0*%
X68636550Y-85328150D03*
%TO.C,SW61*%
X70357500Y-161488750D03*
%TO.C,SW81*%
X70992500Y-180538750D03*
%TO.C,SW31*%
X73373750Y-123388750D03*
%TO.C,SW47*%
X75755000Y-142438750D03*
%TO.C,SW1*%
X77501250Y-85288750D03*
%TO.C,SW17*%
X77501250Y-104338750D03*
%TO.C,SW61*%
X80517500Y-161488750D03*
%TO.C,SW82*%
X84645000Y-180538750D03*
%TO.C,SW32*%
X87026250Y-123388750D03*
%TO.C,SW1*%
X87661250Y-85288750D03*
%TO.C,SW17*%
X87661250Y-104338750D03*
%TO.C,SW48*%
X91788750Y-142438750D03*
%TO.C,SW82*%
X94805000Y-180538750D03*
%TO.C,SW2*%
X96551250Y-85288750D03*
%TO.C,SW18*%
X96551250Y-104338750D03*
%TO.C,SW32*%
X97186250Y-123388750D03*
%TO.C,SW62*%
X101313750Y-161488750D03*
%TO.C,SW48*%
X101948750Y-142438750D03*
%TO.C,SW33*%
X106076250Y-123388750D03*
%TO.C,SW2*%
X106711250Y-85288750D03*
%TO.C,SW18*%
X106711250Y-104338750D03*
%TO.C,SW83*%
X108457500Y-180538750D03*
%TO.C,SW49*%
X110838750Y-142438750D03*
%TO.C,SW62*%
X111473750Y-161488750D03*
%TO.C,SW3*%
X115601250Y-85288750D03*
%TO.C,SW19*%
X115601250Y-104338750D03*
%TO.C,SW33*%
X116236250Y-123388750D03*
%TO.C,SW83*%
X118617500Y-180538750D03*
%TO.C,SW63*%
X120363750Y-161488750D03*
%TO.C,SW49*%
X120998750Y-142438750D03*
%TO.C,SW34*%
X125126250Y-123388750D03*
%TO.C,SW3*%
X125761250Y-85288750D03*
%TO.C,SW19*%
X125761250Y-104338750D03*
%TO.C,SW50*%
X129888750Y-142438750D03*
%TO.C,SW63*%
X130523750Y-161488750D03*
%TO.C,SW4*%
X134651250Y-85288750D03*
%TO.C,SW20*%
X134651250Y-104338750D03*
%TO.C,SW34*%
X135286250Y-123388750D03*
%TO.C,SW64*%
X139413750Y-161488750D03*
%TO.C,SW50*%
X140048750Y-142438750D03*
%TO.C,SW35*%
X144176250Y-123388750D03*
%TO.C,SW4*%
X144811250Y-85288750D03*
%TO.C,SW20*%
X144811250Y-104338750D03*
%TO.C,SW51*%
X148938750Y-142438750D03*
%TO.C,SW64*%
X149573750Y-161488750D03*
%TO.C,SW5*%
X153701250Y-85288750D03*
%TO.C,SW21*%
X153701250Y-104338750D03*
%TO.C,SW35*%
X154336250Y-123388750D03*
%TO.C,SW65*%
X158463750Y-161488750D03*
%TO.C,SW51*%
X159098750Y-142438750D03*
%TO.C,SW36*%
X163226250Y-123388750D03*
%TO.C,SW5*%
X163861250Y-85288750D03*
%TO.C,SW21*%
X163861250Y-104338750D03*
%TO.C,SW52*%
X167988750Y-142438750D03*
%TO.C,SW65*%
X168623750Y-161488750D03*
%TO.C,SW6*%
X172751250Y-85288750D03*
%TO.C,SW22*%
X172751250Y-104338750D03*
%TO.C,SW36*%
X173386250Y-123388750D03*
%TO.C,SW66*%
X177513750Y-161488750D03*
%TO.C,SW52*%
X178148750Y-142438750D03*
%TO.C,SW84*%
X179895000Y-180538750D03*
%TO.C,SW37*%
X182276250Y-123388750D03*
%TO.C,SW6*%
X182911250Y-85288750D03*
%TO.C,SW22*%
X182911250Y-104338750D03*
%TO.C,SW53*%
X187038750Y-142438750D03*
%TO.C,SW66*%
X187673750Y-161488750D03*
%TO.C,SW84*%
X190055000Y-180538750D03*
%TO.C,SW7*%
X191801250Y-85288750D03*
%TO.C,SW23*%
X191801250Y-104338750D03*
%TO.C,SW37*%
X192436250Y-123388750D03*
%TO.C,SW67*%
X196563750Y-161488750D03*
%TO.C,SW53*%
X197198750Y-142438750D03*
%TO.C,SW38*%
X201326250Y-123388750D03*
%TO.C,SW7*%
X201961250Y-85288750D03*
%TO.C,SW23*%
X201961250Y-104338750D03*
%TO.C,SW54*%
X206088750Y-142438750D03*
%TO.C,SW67*%
X206723750Y-161488750D03*
%TO.C,SW8*%
X210851250Y-85288750D03*
%TO.C,SW24*%
X210851250Y-104338750D03*
%TO.C,SW38*%
X211486250Y-123388750D03*
%TO.C,SW68*%
X215613750Y-161488750D03*
%TO.C,SW54*%
X216248750Y-142438750D03*
%TO.C,SW39*%
X220376250Y-123388750D03*
%TO.C,SW8*%
X221011250Y-85288750D03*
%TO.C,SW24*%
X221011250Y-104338750D03*
%TO.C,SW55*%
X225138750Y-142438750D03*
%TO.C,SW68*%
X225773750Y-161488750D03*
%TO.C,SW9*%
X229901250Y-85288750D03*
%TO.C,SW25*%
X229901250Y-104338750D03*
%TO.C,SW39*%
X230536250Y-123388750D03*
%TO.C,SW69*%
X234663750Y-161488750D03*
%TO.C,SW55*%
X235298750Y-142438750D03*
%TO.C,SW40*%
X239426250Y-123388750D03*
%TO.C,SW9*%
X240061250Y-85288750D03*
%TO.C,SW25*%
X240061250Y-104338750D03*
%TO.C,SW56*%
X244188750Y-142438750D03*
%TO.C,SW69*%
X244823750Y-161488750D03*
%TO.C,SW10*%
X248951250Y-85288750D03*
%TO.C,SW26*%
X248951250Y-104338750D03*
%TO.C,SW75*%
X248951250Y-180538750D03*
%TO.C,SW40*%
X249586250Y-123388750D03*
%TO.C,SW70*%
X253713750Y-161488750D03*
%TO.C,SW56*%
X254348750Y-142438750D03*
%TO.C,SW41*%
X258476250Y-123388750D03*
%TO.C,SW10*%
X259111250Y-85288750D03*
%TO.C,SW26*%
X259111250Y-104338750D03*
%TO.C,SW75*%
X259111250Y-180538750D03*
%TO.C,SW57*%
X263238750Y-142438750D03*
%TO.C,SW70*%
X263873750Y-161488750D03*
%TO.C,SW11*%
X268001250Y-85288750D03*
%TO.C,SW27*%
X268001250Y-104338750D03*
%TO.C,SW76*%
X268001250Y-180538750D03*
%TO.C,SW41*%
X268636250Y-123388750D03*
%TO.C,SW71*%
X272763750Y-161488750D03*
%TO.C,SW57*%
X273398750Y-142438750D03*
%TO.C,SW42*%
X277526250Y-123388750D03*
%TO.C,SW11*%
X278161250Y-85288750D03*
%TO.C,SW27*%
X278161250Y-104338750D03*
%TO.C,SW76*%
X278161250Y-180538750D03*
%TO.C,SW58*%
X282288750Y-142438750D03*
%TO.C,SW71*%
X282923750Y-161488750D03*
%TO.C,SW12*%
X287051250Y-85288750D03*
%TO.C,SW28*%
X287051250Y-104338750D03*
%TO.C,SW77*%
X287051250Y-180538750D03*
%TO.C,SW42*%
X287686250Y-123388750D03*
%TO.C,SW58*%
X292448750Y-142438750D03*
%TO.C,SW44*%
X296576250Y-123388750D03*
%TO.C,SW12*%
X297211250Y-85288750D03*
%TO.C,SW28*%
X297211250Y-104338750D03*
%TO.C,SW77*%
X297211250Y-180538750D03*
%TO.C,SW72*%
X298957500Y-161488750D03*
%TO.C,SW13*%
X306101250Y-85288750D03*
%TO.C,SW78*%
X306101250Y-180538750D03*
%TO.C,SW44*%
X306736250Y-123388750D03*
%TO.C,SW72*%
X309117500Y-161488750D03*
%TO.C,SW59*%
X313245000Y-142438750D03*
%TO.C,SW29*%
X315626250Y-104338750D03*
%TO.C,SW13*%
X316261250Y-85288750D03*
%TO.C,SW78*%
X316261250Y-180538750D03*
%TO.C,SW45*%
X320388750Y-123388750D03*
%TO.C,SW59*%
X323405000Y-142438750D03*
%TO.C,SW14*%
X325151250Y-85288750D03*
%TO.C,SW73*%
X325151250Y-161488750D03*
%TO.C,SW79*%
X325151250Y-180538750D03*
%TO.C,SW29*%
X325786250Y-104338750D03*
%TO.C,SW45*%
X330548750Y-123388750D03*
%TO.C,SW14*%
X335311250Y-85288750D03*
%TO.C,SW73*%
X335311250Y-161488750D03*
%TO.C,SW79*%
X335311250Y-180538750D03*
%TO.C,SW15*%
X344201250Y-85288750D03*
%TO.C,SW30*%
X344201250Y-104338750D03*
%TO.C,SW46*%
X344201250Y-123388750D03*
%TO.C,SW60*%
X344201250Y-142438750D03*
%TO.C,SW74*%
X344201250Y-161488750D03*
%TO.C,SW80*%
X344201250Y-180538750D03*
%TO.C,SW15*%
X354361250Y-85288750D03*
%TO.C,SW30*%
X354361250Y-104338750D03*
%TO.C,SW46*%
X354361250Y-123388750D03*
%TO.C,SW60*%
X354361250Y-142438750D03*
%TO.C,SW74*%
X354361250Y-161488750D03*
%TO.C,SW80*%
X354361250Y-180538750D03*
D11*
%TO.C,S4*%
X63531250Y-154503750D03*
X87343750Y-154503750D03*
%TO.C,S1*%
X134968750Y-173553750D03*
X234981250Y-173553750D03*
%TO.C,S3*%
X306418750Y-135453750D03*
%TO.C,S2*%
X308800000Y-97353750D03*
%TO.C,S3*%
X330231250Y-135453750D03*
%TO.C,S2*%
X332612500Y-97353750D03*
D12*
%TO.C,SW16*%
X59721250Y-101798750D03*
%TO.C,SW0*%
X59746550Y-82788150D03*
%TO.C,SW81*%
X62102500Y-177998750D03*
%TO.C,SW31*%
X64483750Y-120848750D03*
%TO.C,SW16*%
X66071250Y-99258750D03*
%TO.C,SW0*%
X66096550Y-80248150D03*
%TO.C,SW47*%
X66865000Y-139898750D03*
%TO.C,SW81*%
X68452500Y-175458750D03*
%TO.C,SW31*%
X70833750Y-118308750D03*
%TO.C,SW61*%
X71627500Y-158948750D03*
%TO.C,SW47*%
X73215000Y-137358750D03*
%TO.C,SW61*%
X77977500Y-156408750D03*
%TO.C,SW1*%
X78771250Y-82748750D03*
%TO.C,SW17*%
X78771250Y-101798750D03*
%TO.C,SW1*%
X85121250Y-80208750D03*
%TO.C,SW17*%
X85121250Y-99258750D03*
%TO.C,SW82*%
X85915000Y-177998750D03*
%TO.C,SW32*%
X88296250Y-120848750D03*
%TO.C,SW82*%
X92265000Y-175458750D03*
%TO.C,SW48*%
X93058750Y-139898750D03*
%TO.C,SW32*%
X94646250Y-118308750D03*
%TO.C,SW2*%
X97821250Y-82748750D03*
%TO.C,SW18*%
X97821250Y-101798750D03*
%TO.C,SW48*%
X99408750Y-137358750D03*
%TO.C,SW62*%
X102583750Y-158948750D03*
%TO.C,SW2*%
X104171250Y-80208750D03*
%TO.C,SW18*%
X104171250Y-99258750D03*
%TO.C,SW33*%
X107346250Y-120848750D03*
%TO.C,SW62*%
X108933750Y-156408750D03*
%TO.C,SW83*%
X109727500Y-177998750D03*
%TO.C,SW49*%
X112108750Y-139898750D03*
%TO.C,SW33*%
X113696250Y-118308750D03*
%TO.C,SW83*%
X116077500Y-175458750D03*
%TO.C,SW3*%
X116871250Y-82748750D03*
%TO.C,SW19*%
X116871250Y-101798750D03*
%TO.C,SW49*%
X118458750Y-137358750D03*
%TO.C,SW63*%
X121633750Y-158948750D03*
%TO.C,SW3*%
X123221250Y-80208750D03*
%TO.C,SW19*%
X123221250Y-99258750D03*
%TO.C,SW34*%
X126396250Y-120848750D03*
%TO.C,SW63*%
X127983750Y-156408750D03*
%TO.C,SW50*%
X131158750Y-139898750D03*
%TO.C,SW34*%
X132746250Y-118308750D03*
%TO.C,SW4*%
X135921250Y-82748750D03*
%TO.C,SW20*%
X135921250Y-101798750D03*
%TO.C,SW50*%
X137508750Y-137358750D03*
%TO.C,SW64*%
X140683750Y-158948750D03*
%TO.C,SW4*%
X142271250Y-80208750D03*
%TO.C,SW20*%
X142271250Y-99258750D03*
%TO.C,SW35*%
X145446250Y-120848750D03*
%TO.C,SW64*%
X147033750Y-156408750D03*
%TO.C,SW51*%
X150208750Y-139898750D03*
%TO.C,SW35*%
X151796250Y-118308750D03*
%TO.C,SW5*%
X154971250Y-82748750D03*
%TO.C,SW21*%
X154971250Y-101798750D03*
%TO.C,SW51*%
X156558750Y-137358750D03*
%TO.C,SW65*%
X159733750Y-158948750D03*
%TO.C,SW5*%
X161321250Y-80208750D03*
%TO.C,SW21*%
X161321250Y-99258750D03*
%TO.C,SW36*%
X164496250Y-120848750D03*
%TO.C,SW65*%
X166083750Y-156408750D03*
%TO.C,SW52*%
X169258750Y-139898750D03*
%TO.C,SW36*%
X170846250Y-118308750D03*
%TO.C,SW6*%
X174021250Y-82748750D03*
%TO.C,SW22*%
X174021250Y-101798750D03*
%TO.C,SW52*%
X175608750Y-137358750D03*
%TO.C,SW66*%
X178783750Y-158948750D03*
%TO.C,SW6*%
X180371250Y-80208750D03*
%TO.C,SW22*%
X180371250Y-99258750D03*
%TO.C,SW84*%
X181165000Y-177998750D03*
%TO.C,SW37*%
X183546250Y-120848750D03*
%TO.C,SW66*%
X185133750Y-156408750D03*
%TO.C,SW84*%
X187515000Y-175458750D03*
%TO.C,SW53*%
X188308750Y-139898750D03*
%TO.C,SW37*%
X189896250Y-118308750D03*
%TO.C,SW7*%
X193071250Y-82748750D03*
%TO.C,SW23*%
X193071250Y-101798750D03*
%TO.C,SW53*%
X194658750Y-137358750D03*
%TO.C,SW67*%
X197833750Y-158948750D03*
%TO.C,SW7*%
X199421250Y-80208750D03*
%TO.C,SW23*%
X199421250Y-99258750D03*
%TO.C,SW38*%
X202596250Y-120848750D03*
%TO.C,SW67*%
X204183750Y-156408750D03*
%TO.C,SW54*%
X207358750Y-139898750D03*
%TO.C,SW38*%
X208946250Y-118308750D03*
%TO.C,SW8*%
X212121250Y-82748750D03*
%TO.C,SW24*%
X212121250Y-101798750D03*
%TO.C,SW54*%
X213708750Y-137358750D03*
%TO.C,SW68*%
X216883750Y-158948750D03*
%TO.C,SW8*%
X218471250Y-80208750D03*
%TO.C,SW24*%
X218471250Y-99258750D03*
%TO.C,SW39*%
X221646250Y-120848750D03*
%TO.C,SW68*%
X223233750Y-156408750D03*
%TO.C,SW55*%
X226408750Y-139898750D03*
%TO.C,SW39*%
X227996250Y-118308750D03*
%TO.C,SW9*%
X231171250Y-82748750D03*
%TO.C,SW25*%
X231171250Y-101798750D03*
%TO.C,SW55*%
X232758750Y-137358750D03*
%TO.C,SW69*%
X235933750Y-158948750D03*
%TO.C,SW9*%
X237521250Y-80208750D03*
%TO.C,SW25*%
X237521250Y-99258750D03*
%TO.C,SW40*%
X240696250Y-120848750D03*
%TO.C,SW69*%
X242283750Y-156408750D03*
%TO.C,SW56*%
X245458750Y-139898750D03*
%TO.C,SW40*%
X247046250Y-118308750D03*
%TO.C,SW10*%
X250221250Y-82748750D03*
%TO.C,SW26*%
X250221250Y-101798750D03*
%TO.C,SW75*%
X250221250Y-177998750D03*
%TO.C,SW56*%
X251808750Y-137358750D03*
%TO.C,SW70*%
X254983750Y-158948750D03*
%TO.C,SW10*%
X256571250Y-80208750D03*
%TO.C,SW26*%
X256571250Y-99258750D03*
%TO.C,SW75*%
X256571250Y-175458750D03*
%TO.C,SW41*%
X259746250Y-120848750D03*
%TO.C,SW70*%
X261333750Y-156408750D03*
%TO.C,SW57*%
X264508750Y-139898750D03*
%TO.C,SW41*%
X266096250Y-118308750D03*
%TO.C,SW11*%
X269271250Y-82748750D03*
%TO.C,SW27*%
X269271250Y-101798750D03*
%TO.C,SW76*%
X269271250Y-177998750D03*
%TO.C,SW57*%
X270858750Y-137358750D03*
%TO.C,SW71*%
X274033750Y-158948750D03*
%TO.C,SW11*%
X275621250Y-80208750D03*
%TO.C,SW27*%
X275621250Y-99258750D03*
%TO.C,SW76*%
X275621250Y-175458750D03*
%TO.C,SW42*%
X278796250Y-120848750D03*
%TO.C,SW71*%
X280383750Y-156408750D03*
%TO.C,SW58*%
X283558750Y-139898750D03*
%TO.C,SW42*%
X285146250Y-118308750D03*
%TO.C,SW12*%
X288321250Y-82748750D03*
%TO.C,SW28*%
X288321250Y-101798750D03*
%TO.C,SW77*%
X288321250Y-177998750D03*
%TO.C,SW58*%
X289908750Y-137358750D03*
%TO.C,SW12*%
X294671250Y-80208750D03*
%TO.C,SW28*%
X294671250Y-99258750D03*
%TO.C,SW77*%
X294671250Y-175458750D03*
%TO.C,SW44*%
X297846250Y-120848750D03*
%TO.C,SW72*%
X300227500Y-158948750D03*
%TO.C,SW44*%
X304196250Y-118308750D03*
%TO.C,SW72*%
X306577500Y-156408750D03*
%TO.C,SW13*%
X307371250Y-82748750D03*
%TO.C,SW78*%
X307371250Y-177998750D03*
%TO.C,SW13*%
X313721250Y-80208750D03*
%TO.C,SW78*%
X313721250Y-175458750D03*
%TO.C,SW59*%
X314515000Y-139898750D03*
%TO.C,SW29*%
X316896250Y-101798750D03*
%TO.C,SW59*%
X320865000Y-137358750D03*
%TO.C,SW45*%
X321658750Y-120848750D03*
%TO.C,SW29*%
X323246250Y-99258750D03*
%TO.C,SW14*%
X326421250Y-82748750D03*
%TO.C,SW73*%
X326421250Y-158948750D03*
%TO.C,SW79*%
X326421250Y-177998750D03*
%TO.C,SW45*%
X328008750Y-118308750D03*
%TO.C,SW14*%
X332771250Y-80208750D03*
%TO.C,SW73*%
X332771250Y-156408750D03*
%TO.C,SW79*%
X332771250Y-175458750D03*
%TO.C,SW15*%
X345471250Y-82748750D03*
%TO.C,SW30*%
X345471250Y-101798750D03*
%TO.C,SW46*%
X345471250Y-120848750D03*
%TO.C,SW60*%
X345471250Y-139898750D03*
%TO.C,SW74*%
X345471250Y-158948750D03*
%TO.C,SW80*%
X345471250Y-177998750D03*
%TO.C,SW15*%
X351821250Y-80208750D03*
%TO.C,SW30*%
X351821250Y-99258750D03*
%TO.C,SW46*%
X351821250Y-118308750D03*
%TO.C,SW60*%
X351821250Y-137358750D03*
%TO.C,SW74*%
X351821250Y-156408750D03*
%TO.C,SW80*%
X351821250Y-175458750D03*
D13*
%TO.C,S4*%
X63531250Y-169743750D03*
X87343750Y-169743750D03*
%TO.C,S1*%
X134968750Y-188793750D03*
X234981250Y-188793750D03*
%TO.C,S3*%
X306418750Y-150693750D03*
%TO.C,S2*%
X308800000Y-112593750D03*
%TO.C,S3*%
X330231250Y-150693750D03*
%TO.C,S2*%
X332612500Y-112593750D03*
D14*
%TO.C,SW16*%
X63531250Y-104338750D03*
%TO.C,SW0*%
X63556550Y-85328150D03*
%TO.C,SW81*%
X65912500Y-180538750D03*
%TO.C,SW31*%
X68293750Y-123388750D03*
%TO.C,SW47*%
X70675000Y-142438750D03*
%TO.C,SW61*%
X75437500Y-161488750D03*
%TO.C,SW1*%
X82581250Y-85288750D03*
%TO.C,SW17*%
X82581250Y-104338750D03*
%TO.C,SW82*%
X89725000Y-180538750D03*
%TO.C,SW32*%
X92106250Y-123388750D03*
%TO.C,SW48*%
X96868750Y-142438750D03*
%TO.C,SW2*%
X101631250Y-85288750D03*
%TO.C,SW18*%
X101631250Y-104338750D03*
%TO.C,SW62*%
X106393750Y-161488750D03*
%TO.C,SW33*%
X111156250Y-123388750D03*
%TO.C,SW83*%
X113537500Y-180538750D03*
%TO.C,SW49*%
X115918750Y-142438750D03*
%TO.C,SW3*%
X120681250Y-85288750D03*
%TO.C,SW19*%
X120681250Y-104338750D03*
%TO.C,SW63*%
X125443750Y-161488750D03*
%TO.C,SW34*%
X130206250Y-123388750D03*
%TO.C,SW50*%
X134968750Y-142438750D03*
%TO.C,SW4*%
X139731250Y-85288750D03*
%TO.C,SW20*%
X139731250Y-104338750D03*
%TO.C,SW64*%
X144493750Y-161488750D03*
%TO.C,SW35*%
X149256250Y-123388750D03*
%TO.C,SW51*%
X154018750Y-142438750D03*
%TO.C,SW5*%
X158781250Y-85288750D03*
%TO.C,SW21*%
X158781250Y-104338750D03*
%TO.C,SW65*%
X163543750Y-161488750D03*
%TO.C,SW36*%
X168306250Y-123388750D03*
%TO.C,SW52*%
X173068750Y-142438750D03*
%TO.C,SW6*%
X177831250Y-85288750D03*
%TO.C,SW22*%
X177831250Y-104338750D03*
%TO.C,SW66*%
X182593750Y-161488750D03*
%TO.C,SW84*%
X184975000Y-180538750D03*
%TO.C,SW37*%
X187356250Y-123388750D03*
%TO.C,SW53*%
X192118750Y-142438750D03*
%TO.C,SW7*%
X196881250Y-85288750D03*
%TO.C,SW23*%
X196881250Y-104338750D03*
%TO.C,SW67*%
X201643750Y-161488750D03*
%TO.C,SW38*%
X206406250Y-123388750D03*
%TO.C,SW54*%
X211168750Y-142438750D03*
%TO.C,SW8*%
X215931250Y-85288750D03*
%TO.C,SW24*%
X215931250Y-104338750D03*
%TO.C,SW68*%
X220693750Y-161488750D03*
%TO.C,SW39*%
X225456250Y-123388750D03*
%TO.C,SW55*%
X230218750Y-142438750D03*
%TO.C,SW9*%
X234981250Y-85288750D03*
%TO.C,SW25*%
X234981250Y-104338750D03*
%TO.C,SW69*%
X239743750Y-161488750D03*
%TO.C,SW40*%
X244506250Y-123388750D03*
%TO.C,SW56*%
X249268750Y-142438750D03*
%TO.C,SW10*%
X254031250Y-85288750D03*
%TO.C,SW26*%
X254031250Y-104338750D03*
%TO.C,SW75*%
X254031250Y-180538750D03*
%TO.C,SW70*%
X258793750Y-161488750D03*
%TO.C,SW41*%
X263556250Y-123388750D03*
%TO.C,SW57*%
X268318750Y-142438750D03*
%TO.C,SW11*%
X273081250Y-85288750D03*
%TO.C,SW27*%
X273081250Y-104338750D03*
%TO.C,SW76*%
X273081250Y-180538750D03*
%TO.C,SW71*%
X277843750Y-161488750D03*
%TO.C,SW42*%
X282606250Y-123388750D03*
%TO.C,SW58*%
X287368750Y-142438750D03*
%TO.C,SW12*%
X292131250Y-85288750D03*
%TO.C,SW28*%
X292131250Y-104338750D03*
%TO.C,SW77*%
X292131250Y-180538750D03*
%TO.C,SW44*%
X301656250Y-123388750D03*
%TO.C,SW72*%
X304037500Y-161488750D03*
%TO.C,SW13*%
X311181250Y-85288750D03*
%TO.C,SW78*%
X311181250Y-180538750D03*
%TO.C,SW59*%
X318325000Y-142438750D03*
%TO.C,SW29*%
X320706250Y-104338750D03*
%TO.C,SW45*%
X325468750Y-123388750D03*
%TO.C,SW14*%
X330231250Y-85288750D03*
%TO.C,SW73*%
X330231250Y-161488750D03*
%TO.C,SW79*%
X330231250Y-180538750D03*
%TO.C,SW15*%
X349281250Y-85288750D03*
%TO.C,SW30*%
X349281250Y-104338750D03*
%TO.C,SW46*%
X349281250Y-123388750D03*
%TO.C,SW60*%
X349281250Y-142438750D03*
%TO.C,SW74*%
X349281250Y-161488750D03*
%TO.C,SW80*%
X349281250Y-180538750D03*
M02*
