%TF.GenerationSoftware,KiCad,Pcbnew,9.0.7*%
%TF.CreationDate,2026-03-18T17:49:55+05:30*%
%TF.ProjectId,Split-KeyBoard,53706c69-742d-44b6-9579-426f6172642e,rev?*%
%TF.SameCoordinates,Original*%
%TF.FileFunction,Soldermask,Bot*%
%TF.FilePolarity,Negative*%
%FSLAX46Y46*%
G04 Gerber Fmt 4.6, Leading zero omitted, Abs format (unit mm)*
G04 Created by KiCad (PCBNEW 9.0.7) date 2026-03-18 17:49:55*
%MOMM*%
%LPD*%
G01*
G04 APERTURE LIST*
G04 Aperture macros list*
%AMRoundRect*
0 Rectangle with rounded corners*
0 $1 Rounding radius*
0 $2 $3 $4 $5 $6 $7 $8 $9 X,Y pos of 4 corners*
0 Add a 4 corners polygon primitive as box body*
4,1,4,$2,$3,$4,$5,$6,$7,$8,$9,$2,$3,0*
0 Add four circle primitives for the rounded corners*
1,1,$1+$1,$2,$3*
1,1,$1+$1,$4,$5*
1,1,$1+$1,$6,$7*
1,1,$1+$1,$8,$9*
0 Add four rect primitives between the rounded corners*
20,1,$1+$1,$2,$3,$4,$5,0*
20,1,$1+$1,$4,$5,$6,$7,0*
20,1,$1+$1,$6,$7,$8,$9,0*
20,1,$1+$1,$8,$9,$2,$3,0*%
%AMFreePoly0*
4,1,37,0.603843,0.796157,0.639018,0.796157,0.711114,0.766294,0.766294,0.711114,0.796157,0.639018,0.796157,0.603843,0.800000,0.600000,0.800000,-0.600000,0.796157,-0.603843,0.796157,-0.639018,0.766294,-0.711114,0.711114,-0.766294,0.639018,-0.796157,0.603843,-0.796157,0.600000,-0.800000,0.000000,-0.800000,0.000000,-0.796148,-0.078414,-0.796148,-0.232228,-0.765552,-0.377117,-0.705537,
-0.507515,-0.618408,-0.618408,-0.507515,-0.705537,-0.377117,-0.765552,-0.232228,-0.796148,-0.078414,-0.796148,0.078414,-0.765552,0.232228,-0.705537,0.377117,-0.618408,0.507515,-0.507515,0.618408,-0.377117,0.705537,-0.232228,0.765552,-0.078414,0.796148,0.000000,0.796148,0.000000,0.800000,0.600000,0.800000,0.603843,0.796157,0.603843,0.796157,$1*%
%AMFreePoly1*
4,1,37,0.000000,0.796148,0.078414,0.796148,0.232228,0.765552,0.377117,0.705537,0.507515,0.618408,0.618408,0.507515,0.705537,0.377117,0.765552,0.232228,0.796148,0.078414,0.796148,-0.078414,0.765552,-0.232228,0.705537,-0.377117,0.618408,-0.507515,0.507515,-0.618408,0.377117,-0.705537,0.232228,-0.765552,0.078414,-0.796148,0.000000,-0.796148,0.000000,-0.800000,-0.600000,-0.800000,
-0.603843,-0.796157,-0.639018,-0.796157,-0.711114,-0.766294,-0.766294,-0.711114,-0.796157,-0.639018,-0.796157,-0.603843,-0.800000,-0.600000,-0.800000,0.600000,-0.796157,0.603843,-0.796157,0.639018,-0.766294,0.711114,-0.711114,0.766294,-0.639018,0.796157,-0.603843,0.796157,-0.600000,0.800000,0.000000,0.800000,0.000000,0.796148,0.000000,0.796148,$1*%
G04 Aperture macros list end*
%ADD10RoundRect,0.082000X0.718000X-0.328000X0.718000X0.328000X-0.718000X0.328000X-0.718000X-0.328000X0*%
%ADD11C,1.750000*%
%ADD12C,3.050000*%
%ADD13C,4.000000*%
%ADD14RoundRect,0.250000X-1.025000X-1.000000X1.025000X-1.000000X1.025000X1.000000X-1.025000X1.000000X0*%
%ADD15C,2.000000*%
%ADD16RoundRect,0.500000X0.500000X0.500000X-0.500000X0.500000X-0.500000X-0.500000X0.500000X-0.500000X0*%
%ADD17RoundRect,0.550000X1.150000X0.550000X-1.150000X0.550000X-1.150000X-0.550000X1.150000X-0.550000X0*%
%ADD18RoundRect,0.330000X-0.770000X-0.770000X0.770000X-0.770000X0.770000X0.770000X-0.770000X0.770000X0*%
%ADD19C,3.048000*%
%ADD20C,3.987800*%
%ADD21RoundRect,0.250000X0.550000X-0.550000X0.550000X0.550000X-0.550000X0.550000X-0.550000X-0.550000X0*%
%ADD22C,1.600000*%
%ADD23RoundRect,0.200000X0.600000X0.600000X-0.600000X0.600000X-0.600000X-0.600000X0.600000X-0.600000X0*%
%ADD24FreePoly0,180.000000*%
%ADD25FreePoly1,180.000000*%
%ADD26RoundRect,0.102000X0.570000X0.570000X-0.570000X0.570000X-0.570000X-0.570000X0.570000X-0.570000X0*%
%ADD27C,1.344000*%
G04 APERTURE END LIST*
D10*
%TO.C,LED36*%
X151856250Y-129218750D03*
X151856250Y-127718750D03*
X146656250Y-127718750D03*
X146656250Y-129218750D03*
%TD*%
%TO.C,LED42*%
X266156250Y-129218750D03*
X266156250Y-127718750D03*
X260956250Y-127718750D03*
X260956250Y-129218750D03*
%TD*%
D11*
%TO.C,SW26*%
X248951250Y-104338750D03*
D12*
X250221250Y-101798750D03*
D13*
X254031250Y-104338750D03*
D12*
X256571250Y-99258750D03*
D11*
X259111250Y-104338750D03*
D14*
X246946250Y-101798750D03*
X259873250Y-99258750D03*
%TD*%
D10*
%TO.C,LED46*%
X351881250Y-129218750D03*
X351881250Y-127718750D03*
X346681250Y-127718750D03*
X346681250Y-129218750D03*
%TD*%
%TO.C,LED44*%
X304256250Y-129218750D03*
X304256250Y-127718750D03*
X299056250Y-127718750D03*
X299056250Y-129218750D03*
%TD*%
%TO.C,LED83*%
X332831250Y-186368750D03*
X332831250Y-184868750D03*
X327631250Y-184868750D03*
X327631250Y-186368750D03*
%TD*%
%TO.C,LED24*%
X199481250Y-110168750D03*
X199481250Y-108668750D03*
X194281250Y-108668750D03*
X194281250Y-110168750D03*
%TD*%
D11*
%TO.C,SW41*%
X258476250Y-123388750D03*
D12*
X259746250Y-120848750D03*
D13*
X263556250Y-123388750D03*
D12*
X266096250Y-118308750D03*
D11*
X268636250Y-123388750D03*
D14*
X256471250Y-120848750D03*
X269398250Y-118308750D03*
%TD*%
D10*
%TO.C,LED4*%
X123281250Y-91118750D03*
X123281250Y-89618750D03*
X118081250Y-89618750D03*
X118081250Y-91118750D03*
%TD*%
D11*
%TO.C,SW22*%
X172751250Y-104338750D03*
D12*
X174021250Y-101798750D03*
D13*
X177831250Y-104338750D03*
D12*
X180371250Y-99258750D03*
D11*
X182911250Y-104338750D03*
D14*
X170746250Y-101798750D03*
X183673250Y-99258750D03*
%TD*%
D11*
%TO.C,SW40*%
X239426250Y-123388750D03*
D12*
X240696250Y-120848750D03*
D13*
X244506250Y-123388750D03*
D12*
X247046250Y-118308750D03*
D11*
X249586250Y-123388750D03*
D14*
X237421250Y-120848750D03*
X250348250Y-118308750D03*
%TD*%
D11*
%TO.C,SW25*%
X229901250Y-104338750D03*
D12*
X231171250Y-101798750D03*
D13*
X234981250Y-104338750D03*
D12*
X237521250Y-99258750D03*
D11*
X240061250Y-104338750D03*
D14*
X227896250Y-101798750D03*
X240823250Y-99258750D03*
%TD*%
D11*
%TO.C,SW11*%
X268001250Y-85288750D03*
D12*
X269271250Y-82748750D03*
D13*
X273081250Y-85288750D03*
D12*
X275621250Y-80208750D03*
D11*
X278161250Y-85288750D03*
D14*
X265996250Y-82748750D03*
X278923250Y-80208750D03*
%TD*%
D11*
%TO.C,SW20*%
X134651250Y-104338750D03*
D12*
X135921250Y-101798750D03*
D13*
X139731250Y-104338750D03*
D12*
X142271250Y-99258750D03*
D11*
X144811250Y-104338750D03*
D14*
X132646250Y-101798750D03*
X145573250Y-99258750D03*
%TD*%
D10*
%TO.C,LED71*%
X280443750Y-167318750D03*
X280443750Y-165818750D03*
X275243750Y-165818750D03*
X275243750Y-167318750D03*
%TD*%
%TO.C,LED84*%
X351881250Y-186368750D03*
X351881250Y-184868750D03*
X346681250Y-184868750D03*
X346681250Y-186368750D03*
%TD*%
D15*
%TO.C,SW403*%
X383020000Y-185440000D03*
X383020000Y-180440000D03*
D16*
X383020000Y-182940000D03*
D17*
X375520000Y-188540000D03*
X375520000Y-177340000D03*
D15*
X368520000Y-180440000D03*
X368520000Y-185440000D03*
%TD*%
D11*
%TO.C,SW45*%
X320388750Y-123388750D03*
D12*
X321658750Y-120848750D03*
D13*
X325468750Y-123388750D03*
D12*
X328008750Y-118308750D03*
D11*
X330548750Y-123388750D03*
D14*
X318383750Y-120848750D03*
X331310750Y-118308750D03*
%TD*%
D10*
%TO.C,LED68*%
X223293750Y-167318750D03*
X223293750Y-165818750D03*
X218093750Y-165818750D03*
X218093750Y-167318750D03*
%TD*%
D11*
%TO.C,SW74*%
X344201250Y-161488750D03*
D12*
X345471250Y-158948750D03*
D13*
X349281250Y-161488750D03*
D12*
X351821250Y-156408750D03*
D11*
X354361250Y-161488750D03*
D14*
X342196250Y-158948750D03*
X355123250Y-156408750D03*
%TD*%
D10*
%TO.C,LED33*%
X94706250Y-129218750D03*
X94706250Y-127718750D03*
X89506250Y-127718750D03*
X89506250Y-129218750D03*
%TD*%
%TO.C,LED73*%
X332831250Y-167318750D03*
X332831250Y-165818750D03*
X327631250Y-165818750D03*
X327631250Y-167318750D03*
%TD*%
%TO.C,LED14*%
X313781250Y-91118750D03*
X313781250Y-89618750D03*
X308581250Y-89618750D03*
X308581250Y-91118750D03*
%TD*%
%TO.C,LED49*%
X118518750Y-148268750D03*
X118518750Y-146768750D03*
X113318750Y-146768750D03*
X113318750Y-148268750D03*
%TD*%
%TO.C,LED74*%
X351881250Y-167318750D03*
X351881250Y-165818750D03*
X346681250Y-165818750D03*
X346681250Y-167318750D03*
%TD*%
D11*
%TO.C,SW60*%
X344201250Y-142438750D03*
D12*
X345471250Y-139898750D03*
D13*
X349281250Y-142438750D03*
D12*
X351821250Y-137358750D03*
D11*
X354361250Y-142438750D03*
D14*
X342196250Y-139898750D03*
X355123250Y-137358750D03*
%TD*%
D11*
%TO.C,SW52*%
X167988750Y-142438750D03*
D12*
X169258750Y-139898750D03*
D13*
X173068750Y-142438750D03*
D12*
X175608750Y-137358750D03*
D11*
X178148750Y-142438750D03*
D14*
X165983750Y-139898750D03*
X178910750Y-137358750D03*
%TD*%
D11*
%TO.C,SW57*%
X263238750Y-142438750D03*
D12*
X264508750Y-139898750D03*
D13*
X268318750Y-142438750D03*
D12*
X270858750Y-137358750D03*
D11*
X273398750Y-142438750D03*
D14*
X261233750Y-139898750D03*
X274160750Y-137358750D03*
%TD*%
D11*
%TO.C,SW69*%
X234663750Y-161488750D03*
D12*
X235933750Y-158948750D03*
D13*
X239743750Y-161488750D03*
D12*
X242283750Y-156408750D03*
D11*
X244823750Y-161488750D03*
D14*
X232658750Y-158948750D03*
X245585750Y-156408750D03*
%TD*%
D11*
%TO.C,SW14*%
X325151250Y-85288750D03*
D12*
X326421250Y-82748750D03*
D13*
X330231250Y-85288750D03*
D12*
X332771250Y-80208750D03*
D11*
X335311250Y-85288750D03*
D14*
X323146250Y-82748750D03*
X336073250Y-80208750D03*
%TD*%
D11*
%TO.C,SW17*%
X77501250Y-104338750D03*
D12*
X78771250Y-101798750D03*
D13*
X82581250Y-104338750D03*
D12*
X85121250Y-99258750D03*
D11*
X87661250Y-104338750D03*
D14*
X75496250Y-101798750D03*
X88423250Y-99258750D03*
%TD*%
D10*
%TO.C,LED18*%
X85181250Y-110168750D03*
X85181250Y-108668750D03*
X79981250Y-108668750D03*
X79981250Y-110168750D03*
%TD*%
D11*
%TO.C,SW34*%
X125126250Y-123388750D03*
D12*
X126396250Y-120848750D03*
D13*
X130206250Y-123388750D03*
D12*
X132746250Y-118308750D03*
D11*
X135286250Y-123388750D03*
D14*
X123121250Y-120848750D03*
X136048250Y-118308750D03*
%TD*%
D11*
%TO.C,SW54*%
X206088750Y-142438750D03*
D12*
X207358750Y-139898750D03*
D13*
X211168750Y-142438750D03*
D12*
X213708750Y-137358750D03*
D11*
X216248750Y-142438750D03*
D14*
X204083750Y-139898750D03*
X217010750Y-137358750D03*
%TD*%
D11*
%TO.C,SW80*%
X344201250Y-180538750D03*
D12*
X345471250Y-177998750D03*
D13*
X349281250Y-180538750D03*
D12*
X351821250Y-175458750D03*
D11*
X354361250Y-180538750D03*
D14*
X342196250Y-177998750D03*
X355123250Y-175458750D03*
%TD*%
D11*
%TO.C,SW10*%
X248951250Y-85288750D03*
D12*
X250221250Y-82748750D03*
D13*
X254031250Y-85288750D03*
D12*
X256571250Y-80208750D03*
D11*
X259111250Y-85288750D03*
D14*
X246946250Y-82748750D03*
X259873250Y-80208750D03*
%TD*%
D11*
%TO.C,SW78*%
X306101250Y-180538750D03*
D12*
X307371250Y-177998750D03*
D13*
X311181250Y-180538750D03*
D12*
X313721250Y-175458750D03*
D11*
X316261250Y-180538750D03*
D14*
X304096250Y-177998750D03*
X317023250Y-175458750D03*
%TD*%
D10*
%TO.C,LED47*%
X73275000Y-148268750D03*
X73275000Y-146768750D03*
X68075000Y-146768750D03*
X68075000Y-148268750D03*
%TD*%
D11*
%TO.C,SW64*%
X139413750Y-161488750D03*
D12*
X140683750Y-158948750D03*
D13*
X144493750Y-161488750D03*
D12*
X147033750Y-156408750D03*
D11*
X149573750Y-161488750D03*
D14*
X137408750Y-158948750D03*
X150335750Y-156408750D03*
%TD*%
D11*
%TO.C,SW18*%
X96551250Y-104338750D03*
D12*
X97821250Y-101798750D03*
D13*
X101631250Y-104338750D03*
D12*
X104171250Y-99258750D03*
D11*
X106711250Y-104338750D03*
D14*
X94546250Y-101798750D03*
X107473250Y-99258750D03*
%TD*%
D11*
%TO.C,SW58*%
X282288750Y-142438750D03*
D12*
X283558750Y-139898750D03*
D13*
X287368750Y-142438750D03*
D12*
X289908750Y-137358750D03*
D11*
X292448750Y-142438750D03*
D14*
X280283750Y-139898750D03*
X293210750Y-137358750D03*
%TD*%
D10*
%TO.C,LED63*%
X128043750Y-167318750D03*
X128043750Y-165818750D03*
X122843750Y-165818750D03*
X122843750Y-167318750D03*
%TD*%
%TO.C,LED2*%
X85201350Y-91158150D03*
X85201350Y-89658150D03*
X80001350Y-89658150D03*
X80001350Y-91158150D03*
%TD*%
D11*
%TO.C,SW44*%
X296576250Y-123388750D03*
D12*
X297846250Y-120848750D03*
D13*
X301656250Y-123388750D03*
D12*
X304196250Y-118308750D03*
D11*
X306736250Y-123388750D03*
D14*
X294571250Y-120848750D03*
X307498250Y-118308750D03*
%TD*%
D10*
%TO.C,LED9*%
X218531250Y-91118750D03*
X218531250Y-89618750D03*
X213331250Y-89618750D03*
X213331250Y-91118750D03*
%TD*%
D11*
%TO.C,SW77*%
X287051250Y-180538750D03*
D12*
X288321250Y-177998750D03*
D13*
X292131250Y-180538750D03*
D12*
X294671250Y-175458750D03*
D11*
X297211250Y-180538750D03*
D14*
X285046250Y-177998750D03*
X297973250Y-175458750D03*
%TD*%
D18*
%TO.C,Pad2*%
X372400000Y-136800000D03*
%TD*%
D10*
%TO.C,LED39*%
X209006250Y-129218750D03*
X209006250Y-127718750D03*
X203806250Y-127718750D03*
X203806250Y-129218750D03*
%TD*%
D11*
%TO.C,SW29*%
X315626250Y-104338750D03*
D12*
X316896250Y-101798750D03*
D13*
X320706250Y-104338750D03*
D12*
X323246250Y-99258750D03*
D11*
X325786250Y-104338750D03*
D14*
X313621250Y-101798750D03*
X326548250Y-99258750D03*
%TD*%
D10*
%TO.C,LED8*%
X199481250Y-91118750D03*
X199481250Y-89618750D03*
X194281250Y-89618750D03*
X194281250Y-91118750D03*
%TD*%
%TO.C,LED13*%
X294731250Y-91118750D03*
X294731250Y-89618750D03*
X289531250Y-89618750D03*
X289531250Y-91118750D03*
%TD*%
%TO.C,LED5*%
X142331250Y-91118750D03*
X142331250Y-89618750D03*
X137131250Y-89618750D03*
X137131250Y-91118750D03*
%TD*%
D11*
%TO.C,SW3*%
X115601250Y-85288750D03*
D12*
X116871250Y-82748750D03*
D13*
X120681250Y-85288750D03*
D12*
X123221250Y-80208750D03*
D11*
X125761250Y-85288750D03*
D14*
X113596250Y-82748750D03*
X126523250Y-80208750D03*
%TD*%
D10*
%TO.C,LED32*%
X70893750Y-129218750D03*
X70893750Y-127718750D03*
X65693750Y-127718750D03*
X65693750Y-129218750D03*
%TD*%
%TO.C,LED59*%
X320925000Y-148268750D03*
X320925000Y-146768750D03*
X315725000Y-146768750D03*
X315725000Y-148268750D03*
%TD*%
D19*
%TO.C,S4*%
X63531250Y-154503750D03*
D20*
X63531250Y-169743750D03*
D19*
X87343750Y-154503750D03*
D20*
X87343750Y-169743750D03*
%TD*%
D10*
%TO.C,LED78*%
X187575000Y-186368750D03*
X187575000Y-184868750D03*
X182375000Y-184868750D03*
X182375000Y-186368750D03*
%TD*%
D11*
%TO.C,SW8*%
X210851250Y-85288750D03*
D12*
X212121250Y-82748750D03*
D13*
X215931250Y-85288750D03*
D12*
X218471250Y-80208750D03*
D11*
X221011250Y-85288750D03*
D14*
X208846250Y-82748750D03*
X221773250Y-80208750D03*
%TD*%
D11*
%TO.C,SW7*%
X191801250Y-85288750D03*
D12*
X193071250Y-82748750D03*
D13*
X196881250Y-85288750D03*
D12*
X199421250Y-80208750D03*
D11*
X201961250Y-85288750D03*
D14*
X189796250Y-82748750D03*
X202723250Y-80208750D03*
%TD*%
D10*
%TO.C,LED6*%
X161381250Y-91118750D03*
X161381250Y-89618750D03*
X156181250Y-89618750D03*
X156181250Y-91118750D03*
%TD*%
%TO.C,LED37*%
X170906250Y-129218750D03*
X170906250Y-127718750D03*
X165706250Y-127718750D03*
X165706250Y-129218750D03*
%TD*%
D11*
%TO.C,SW49*%
X110838750Y-142438750D03*
D12*
X112108750Y-139898750D03*
D13*
X115918750Y-142438750D03*
D12*
X118458750Y-137358750D03*
D11*
X120998750Y-142438750D03*
D14*
X108833750Y-139898750D03*
X121760750Y-137358750D03*
%TD*%
D11*
%TO.C,SW23*%
X191801250Y-104338750D03*
D12*
X193071250Y-101798750D03*
D13*
X196881250Y-104338750D03*
D12*
X199421250Y-99258750D03*
D11*
X201961250Y-104338750D03*
D14*
X189796250Y-101798750D03*
X202723250Y-99258750D03*
%TD*%
D10*
%TO.C,LED7*%
X180431250Y-91118750D03*
X180431250Y-89618750D03*
X175231250Y-89618750D03*
X175231250Y-91118750D03*
%TD*%
D11*
%TO.C,SW71*%
X272763750Y-161488750D03*
D12*
X274033750Y-158948750D03*
D13*
X277843750Y-161488750D03*
D12*
X280383750Y-156408750D03*
D11*
X282923750Y-161488750D03*
D14*
X270758750Y-158948750D03*
X283685750Y-156408750D03*
%TD*%
D11*
%TO.C,SW38*%
X201326250Y-123388750D03*
D12*
X202596250Y-120848750D03*
D13*
X206406250Y-123388750D03*
D12*
X208946250Y-118308750D03*
D11*
X211486250Y-123388750D03*
D14*
X199321250Y-120848750D03*
X212248250Y-118308750D03*
%TD*%
D11*
%TO.C,SW50*%
X129888750Y-142438750D03*
D12*
X131158750Y-139898750D03*
D13*
X134968750Y-142438750D03*
D12*
X137508750Y-137358750D03*
D11*
X140048750Y-142438750D03*
D14*
X127883750Y-139898750D03*
X140810750Y-137358750D03*
%TD*%
D10*
%TO.C,LED31*%
X351881250Y-110168750D03*
X351881250Y-108668750D03*
X346681250Y-108668750D03*
X346681250Y-110168750D03*
%TD*%
D11*
%TO.C,SW9*%
X229901250Y-85288750D03*
D12*
X231171250Y-82748750D03*
D13*
X234981250Y-85288750D03*
D12*
X237521250Y-80208750D03*
D11*
X240061250Y-85288750D03*
D14*
X227896250Y-82748750D03*
X240823250Y-80208750D03*
%TD*%
D11*
%TO.C,SW31*%
X63213750Y-123388750D03*
D12*
X64483750Y-120848750D03*
D13*
X68293750Y-123388750D03*
D12*
X70833750Y-118308750D03*
D11*
X73373750Y-123388750D03*
D14*
X61208750Y-120848750D03*
X74135750Y-118308750D03*
%TD*%
D11*
%TO.C,SW51*%
X148938750Y-142438750D03*
D12*
X150208750Y-139898750D03*
D13*
X154018750Y-142438750D03*
D12*
X156558750Y-137358750D03*
D11*
X159098750Y-142438750D03*
D14*
X146933750Y-139898750D03*
X159860750Y-137358750D03*
%TD*%
D10*
%TO.C,LED45*%
X328068750Y-129218750D03*
X328068750Y-127718750D03*
X322868750Y-127718750D03*
X322868750Y-129218750D03*
%TD*%
D11*
%TO.C,SW28*%
X287051250Y-104338750D03*
D12*
X288321250Y-101798750D03*
D13*
X292131250Y-104338750D03*
D12*
X294671250Y-99258750D03*
D11*
X297211250Y-104338750D03*
D14*
X285046250Y-101798750D03*
X297973250Y-99258750D03*
%TD*%
D10*
%TO.C,LED61*%
X78037500Y-167318750D03*
X78037500Y-165818750D03*
X72837500Y-165818750D03*
X72837500Y-167318750D03*
%TD*%
D11*
%TO.C,SW2*%
X96551250Y-85288750D03*
D12*
X97821250Y-82748750D03*
D13*
X101631250Y-85288750D03*
D12*
X104171250Y-80208750D03*
D11*
X106711250Y-85288750D03*
D14*
X94546250Y-82748750D03*
X107473250Y-80208750D03*
%TD*%
D10*
%TO.C,LED30*%
X323306250Y-110168750D03*
X323306250Y-108668750D03*
X318106250Y-108668750D03*
X318106250Y-110168750D03*
%TD*%
D11*
%TO.C,SW39*%
X220376250Y-123388750D03*
D12*
X221646250Y-120848750D03*
D13*
X225456250Y-123388750D03*
D12*
X227996250Y-118308750D03*
D11*
X230536250Y-123388750D03*
D14*
X218371250Y-120848750D03*
X231298250Y-118308750D03*
%TD*%
D10*
%TO.C,LED43*%
X285206250Y-129218750D03*
X285206250Y-127718750D03*
X280006250Y-127718750D03*
X280006250Y-129218750D03*
%TD*%
D11*
%TO.C,SW61*%
X70357500Y-161488750D03*
D12*
X71627500Y-158948750D03*
D13*
X75437500Y-161488750D03*
D12*
X77977500Y-156408750D03*
D11*
X80517500Y-161488750D03*
D14*
X68352500Y-158948750D03*
X81279500Y-156408750D03*
%TD*%
D11*
%TO.C,SW72*%
X298957500Y-161488750D03*
D12*
X300227500Y-158948750D03*
D13*
X304037500Y-161488750D03*
D12*
X306577500Y-156408750D03*
D11*
X309117500Y-161488750D03*
D14*
X296952500Y-158948750D03*
X309879500Y-156408750D03*
%TD*%
D18*
%TO.C,Pad1*%
X380000000Y-136800000D03*
%TD*%
D10*
%TO.C,LED28*%
X275681250Y-110168750D03*
X275681250Y-108668750D03*
X270481250Y-108668750D03*
X270481250Y-110168750D03*
%TD*%
D11*
%TO.C,SW75*%
X248951250Y-180538750D03*
D12*
X250221250Y-177998750D03*
D13*
X254031250Y-180538750D03*
D12*
X256571250Y-175458750D03*
D11*
X259111250Y-180538750D03*
D14*
X246946250Y-177998750D03*
X259873250Y-175458750D03*
%TD*%
D11*
%TO.C,SW16*%
X58451250Y-104338750D03*
D12*
X59721250Y-101798750D03*
D13*
X63531250Y-104338750D03*
D12*
X66071250Y-99258750D03*
D11*
X68611250Y-104338750D03*
D14*
X56446250Y-101798750D03*
X69373250Y-99258750D03*
%TD*%
D10*
%TO.C,LED79*%
X256631250Y-186368750D03*
X256631250Y-184868750D03*
X251431250Y-184868750D03*
X251431250Y-186368750D03*
%TD*%
D11*
%TO.C,SW35*%
X144176250Y-123388750D03*
D12*
X145446250Y-120848750D03*
D13*
X149256250Y-123388750D03*
D12*
X151796250Y-118308750D03*
D11*
X154336250Y-123388750D03*
D14*
X142171250Y-120848750D03*
X155098250Y-118308750D03*
%TD*%
D11*
%TO.C,SW48*%
X91788750Y-142438750D03*
D12*
X93058750Y-139898750D03*
D13*
X96868750Y-142438750D03*
D12*
X99408750Y-137358750D03*
D11*
X101948750Y-142438750D03*
D14*
X89783750Y-139898750D03*
X102710750Y-137358750D03*
%TD*%
D11*
%TO.C,SW46*%
X344201250Y-123388750D03*
D12*
X345471250Y-120848750D03*
D13*
X349281250Y-123388750D03*
D12*
X351821250Y-118308750D03*
D11*
X354361250Y-123388750D03*
D14*
X342196250Y-120848750D03*
X355123250Y-118308750D03*
%TD*%
D11*
%TO.C,SW79*%
X325151250Y-180538750D03*
D12*
X326421250Y-177998750D03*
D13*
X330231250Y-180538750D03*
D12*
X332771250Y-175458750D03*
D11*
X335311250Y-180538750D03*
D14*
X323146250Y-177998750D03*
X336073250Y-175458750D03*
%TD*%
D11*
%TO.C,SW56*%
X244188750Y-142438750D03*
D12*
X245458750Y-139898750D03*
D13*
X249268750Y-142438750D03*
D12*
X251808750Y-137358750D03*
D11*
X254348750Y-142438750D03*
D14*
X242183750Y-139898750D03*
X255110750Y-137358750D03*
%TD*%
D10*
%TO.C,LED50*%
X137568750Y-148268750D03*
X137568750Y-146768750D03*
X132368750Y-146768750D03*
X132368750Y-148268750D03*
%TD*%
%TO.C,LED17*%
X66131250Y-110168750D03*
X66131250Y-108668750D03*
X60931250Y-108668750D03*
X60931250Y-110168750D03*
%TD*%
D11*
%TO.C,SW24*%
X210851250Y-104338750D03*
D12*
X212121250Y-101798750D03*
D13*
X215931250Y-104338750D03*
D12*
X218471250Y-99258750D03*
D11*
X221011250Y-104338750D03*
D14*
X208846250Y-101798750D03*
X221773250Y-99258750D03*
%TD*%
D19*
%TO.C,S3*%
X306418750Y-135453750D03*
D20*
X306418750Y-150693750D03*
D19*
X330231250Y-135453750D03*
D20*
X330231250Y-150693750D03*
%TD*%
D10*
%TO.C,LED29*%
X294731250Y-110168750D03*
X294731250Y-108668750D03*
X289531250Y-108668750D03*
X289531250Y-110168750D03*
%TD*%
D11*
%TO.C,SW15*%
X344201250Y-85288750D03*
D12*
X345471250Y-82748750D03*
D13*
X349281250Y-85288750D03*
D12*
X351821250Y-80208750D03*
D11*
X354361250Y-85288750D03*
D14*
X342196250Y-82748750D03*
X355123250Y-80208750D03*
%TD*%
D10*
%TO.C,LED41*%
X247106250Y-129218750D03*
X247106250Y-127718750D03*
X241906250Y-127718750D03*
X241906250Y-129218750D03*
%TD*%
%TO.C,LED54*%
X213768750Y-148268750D03*
X213768750Y-146768750D03*
X208568750Y-146768750D03*
X208568750Y-148268750D03*
%TD*%
%TO.C,LED12*%
X275681250Y-91118750D03*
X275681250Y-89618750D03*
X270481250Y-89618750D03*
X270481250Y-91118750D03*
%TD*%
D11*
%TO.C,SW33*%
X106076250Y-123388750D03*
D12*
X107346250Y-120848750D03*
D13*
X111156250Y-123388750D03*
D12*
X113696250Y-118308750D03*
D11*
X116236250Y-123388750D03*
D14*
X104071250Y-120848750D03*
X116998250Y-118308750D03*
%TD*%
D10*
%TO.C,LED76*%
X92325000Y-186368750D03*
X92325000Y-184868750D03*
X87125000Y-184868750D03*
X87125000Y-186368750D03*
%TD*%
%TO.C,LED23*%
X180431250Y-110168750D03*
X180431250Y-108668750D03*
X175231250Y-108668750D03*
X175231250Y-110168750D03*
%TD*%
D11*
%TO.C,SW4*%
X134651250Y-85288750D03*
D12*
X135921250Y-82748750D03*
D13*
X139731250Y-85288750D03*
D12*
X142271250Y-80208750D03*
D11*
X144811250Y-85288750D03*
D14*
X132646250Y-82748750D03*
X145573250Y-80208750D03*
%TD*%
D11*
%TO.C,SW12*%
X287051250Y-85288750D03*
D12*
X288321250Y-82748750D03*
D13*
X292131250Y-85288750D03*
D12*
X294671250Y-80208750D03*
D11*
X297211250Y-85288750D03*
D14*
X285046250Y-82748750D03*
X297973250Y-80208750D03*
%TD*%
D11*
%TO.C,SW55*%
X225138750Y-142438750D03*
D12*
X226408750Y-139898750D03*
D13*
X230218750Y-142438750D03*
D12*
X232758750Y-137358750D03*
D11*
X235298750Y-142438750D03*
D14*
X223133750Y-139898750D03*
X236060750Y-137358750D03*
%TD*%
D10*
%TO.C,LED69*%
X242343750Y-167318750D03*
X242343750Y-165818750D03*
X237143750Y-165818750D03*
X237143750Y-167318750D03*
%TD*%
%TO.C,LED51*%
X156618750Y-148268750D03*
X156618750Y-146768750D03*
X151418750Y-146768750D03*
X151418750Y-148268750D03*
%TD*%
%TO.C,LED21*%
X142331250Y-110168750D03*
X142331250Y-108668750D03*
X137131250Y-108668750D03*
X137131250Y-110168750D03*
%TD*%
%TO.C,LED15*%
X332831250Y-91118750D03*
X332831250Y-89618750D03*
X327631250Y-89618750D03*
X327631250Y-91118750D03*
%TD*%
D11*
%TO.C,SW36*%
X163226250Y-123388750D03*
D12*
X164496250Y-120848750D03*
D13*
X168306250Y-123388750D03*
D12*
X170846250Y-118308750D03*
D11*
X173386250Y-123388750D03*
D14*
X161221250Y-120848750D03*
X174148250Y-118308750D03*
%TD*%
D11*
%TO.C,SW63*%
X120363750Y-161488750D03*
D12*
X121633750Y-158948750D03*
D13*
X125443750Y-161488750D03*
D12*
X127983750Y-156408750D03*
D11*
X130523750Y-161488750D03*
D14*
X118358750Y-158948750D03*
X131285750Y-156408750D03*
%TD*%
D10*
%TO.C,LED25*%
X218531250Y-110168750D03*
X218531250Y-108668750D03*
X213331250Y-108668750D03*
X213331250Y-110168750D03*
%TD*%
D11*
%TO.C,SW21*%
X153701250Y-104338750D03*
D12*
X154971250Y-101798750D03*
D13*
X158781250Y-104338750D03*
D12*
X161321250Y-99258750D03*
D11*
X163861250Y-104338750D03*
D14*
X151696250Y-101798750D03*
X164623250Y-99258750D03*
%TD*%
D11*
%TO.C,SW5*%
X153701250Y-85288750D03*
D12*
X154971250Y-82748750D03*
D13*
X158781250Y-85288750D03*
D12*
X161321250Y-80208750D03*
D11*
X163861250Y-85288750D03*
D14*
X151696250Y-82748750D03*
X164623250Y-80208750D03*
%TD*%
D19*
%TO.C,S2*%
X308800000Y-97353750D03*
D20*
X308800000Y-112593750D03*
D19*
X332612500Y-97353750D03*
D20*
X332612500Y-112593750D03*
%TD*%
D10*
%TO.C,LED1*%
X66156550Y-91158150D03*
X66156550Y-89658150D03*
X60956550Y-89658150D03*
X60956550Y-91158150D03*
%TD*%
D11*
%TO.C,SW76*%
X268001250Y-180538750D03*
D12*
X269271250Y-177998750D03*
D13*
X273081250Y-180538750D03*
D12*
X275621250Y-175458750D03*
D11*
X278161250Y-180538750D03*
D14*
X265996250Y-177998750D03*
X278923250Y-175458750D03*
%TD*%
D10*
%TO.C,LED3*%
X104246150Y-91158150D03*
X104246150Y-89658150D03*
X99046150Y-89658150D03*
X99046150Y-91158150D03*
%TD*%
%TO.C,LED20*%
X123281250Y-110168750D03*
X123281250Y-108668750D03*
X118081250Y-108668750D03*
X118081250Y-110168750D03*
%TD*%
%TO.C,LED66*%
X185193750Y-167318750D03*
X185193750Y-165818750D03*
X179993750Y-165818750D03*
X179993750Y-167318750D03*
%TD*%
%TO.C,LED77*%
X116137500Y-186368750D03*
X116137500Y-184868750D03*
X110937500Y-184868750D03*
X110937500Y-186368750D03*
%TD*%
%TO.C,LED53*%
X194718750Y-148268750D03*
X194718750Y-146768750D03*
X189518750Y-146768750D03*
X189518750Y-148268750D03*
%TD*%
%TO.C,LED62*%
X108993750Y-167318750D03*
X108993750Y-165818750D03*
X103793750Y-165818750D03*
X103793750Y-167318750D03*
%TD*%
D11*
%TO.C,SW73*%
X325151250Y-161488750D03*
D12*
X326421250Y-158948750D03*
D13*
X330231250Y-161488750D03*
D12*
X332771250Y-156408750D03*
D11*
X335311250Y-161488750D03*
D14*
X323146250Y-158948750D03*
X336073250Y-156408750D03*
%TD*%
D10*
%TO.C,LED67*%
X204243750Y-167318750D03*
X204243750Y-165818750D03*
X199043750Y-165818750D03*
X199043750Y-167318750D03*
%TD*%
%TO.C,LED10*%
X237581250Y-91118750D03*
X237581250Y-89618750D03*
X232381250Y-89618750D03*
X232381250Y-91118750D03*
%TD*%
%TO.C,LED72*%
X306637500Y-167318750D03*
X306637500Y-165818750D03*
X301437500Y-165818750D03*
X301437500Y-167318750D03*
%TD*%
D11*
%TO.C,SW42*%
X277526250Y-123388750D03*
D12*
X278796250Y-120848750D03*
D13*
X282606250Y-123388750D03*
D12*
X285146250Y-118308750D03*
D11*
X287686250Y-123388750D03*
D14*
X275521250Y-120848750D03*
X288448250Y-118308750D03*
%TD*%
D11*
%TO.C,SW1*%
X77501250Y-85288750D03*
D12*
X78771250Y-82748750D03*
D13*
X82581250Y-85288750D03*
D12*
X85121250Y-80208750D03*
D11*
X87661250Y-85288750D03*
D14*
X75496250Y-82748750D03*
X88423250Y-80208750D03*
%TD*%
D11*
%TO.C,SW13*%
X306101250Y-85288750D03*
D12*
X307371250Y-82748750D03*
D13*
X311181250Y-85288750D03*
D12*
X313721250Y-80208750D03*
D11*
X316261250Y-85288750D03*
D14*
X304096250Y-82748750D03*
X317023250Y-80208750D03*
%TD*%
D11*
%TO.C,SW27*%
X268001250Y-104338750D03*
D12*
X269271250Y-101798750D03*
D13*
X273081250Y-104338750D03*
D12*
X275621250Y-99258750D03*
D11*
X278161250Y-104338750D03*
D14*
X265996250Y-101798750D03*
X278923250Y-99258750D03*
%TD*%
D11*
%TO.C,SW70*%
X253713750Y-161488750D03*
D12*
X254983750Y-158948750D03*
D13*
X258793750Y-161488750D03*
D12*
X261333750Y-156408750D03*
D11*
X263873750Y-161488750D03*
D14*
X251708750Y-158948750D03*
X264635750Y-156408750D03*
%TD*%
D19*
%TO.C,S1*%
X134968750Y-173553750D03*
D20*
X134968750Y-188793750D03*
D19*
X234981250Y-173553750D03*
D20*
X234981250Y-188793750D03*
%TD*%
D11*
%TO.C,SW84*%
X179895000Y-180538750D03*
D12*
X181165000Y-177998750D03*
D13*
X184975000Y-180538750D03*
D12*
X187515000Y-175458750D03*
D11*
X190055000Y-180538750D03*
D14*
X177890000Y-177998750D03*
X190817000Y-175458750D03*
%TD*%
D11*
%TO.C,SW32*%
X87026250Y-123388750D03*
D12*
X88296250Y-120848750D03*
D13*
X92106250Y-123388750D03*
D12*
X94646250Y-118308750D03*
D11*
X97186250Y-123388750D03*
D14*
X85021250Y-120848750D03*
X97948250Y-118308750D03*
%TD*%
D10*
%TO.C,LED19*%
X104231250Y-110168750D03*
X104231250Y-108668750D03*
X99031250Y-108668750D03*
X99031250Y-110168750D03*
%TD*%
%TO.C,LED80*%
X275681250Y-186368750D03*
X275681250Y-184868750D03*
X270481250Y-184868750D03*
X270481250Y-186368750D03*
%TD*%
D11*
%TO.C,SW66*%
X177513750Y-161488750D03*
D12*
X178783750Y-158948750D03*
D13*
X182593750Y-161488750D03*
D12*
X185133750Y-156408750D03*
D11*
X187673750Y-161488750D03*
D14*
X175508750Y-158948750D03*
X188435750Y-156408750D03*
%TD*%
D10*
%TO.C,LED57*%
X270918750Y-148268750D03*
X270918750Y-146768750D03*
X265718750Y-146768750D03*
X265718750Y-148268750D03*
%TD*%
D11*
%TO.C,SW59*%
X313245000Y-142438750D03*
D12*
X314515000Y-139898750D03*
D13*
X318325000Y-142438750D03*
D12*
X320865000Y-137358750D03*
D11*
X323405000Y-142438750D03*
D14*
X311240000Y-139898750D03*
X324167000Y-137358750D03*
%TD*%
D10*
%TO.C,LED11*%
X256631250Y-91118750D03*
X256631250Y-89618750D03*
X251431250Y-89618750D03*
X251431250Y-91118750D03*
%TD*%
%TO.C,LED75*%
X68512500Y-186368750D03*
X68512500Y-184868750D03*
X63312500Y-184868750D03*
X63312500Y-186368750D03*
%TD*%
%TO.C,LED22*%
X161381250Y-110168750D03*
X161381250Y-108668750D03*
X156181250Y-108668750D03*
X156181250Y-110168750D03*
%TD*%
D11*
%TO.C,SW30*%
X344201250Y-104338750D03*
D12*
X345471250Y-101798750D03*
D13*
X349281250Y-104338750D03*
D12*
X351821250Y-99258750D03*
D11*
X354361250Y-104338750D03*
D14*
X342196250Y-101798750D03*
X355123250Y-99258750D03*
%TD*%
D10*
%TO.C,LED55*%
X232818750Y-148268750D03*
X232818750Y-146768750D03*
X227618750Y-146768750D03*
X227618750Y-148268750D03*
%TD*%
D11*
%TO.C,SW53*%
X187038750Y-142438750D03*
D12*
X188308750Y-139898750D03*
D13*
X192118750Y-142438750D03*
D12*
X194658750Y-137358750D03*
D11*
X197198750Y-142438750D03*
D14*
X185033750Y-139898750D03*
X197960750Y-137358750D03*
%TD*%
D11*
%TO.C,SW67*%
X196563750Y-161488750D03*
D12*
X197833750Y-158948750D03*
D13*
X201643750Y-161488750D03*
D12*
X204183750Y-156408750D03*
D11*
X206723750Y-161488750D03*
D14*
X194558750Y-158948750D03*
X207485750Y-156408750D03*
%TD*%
D11*
%TO.C,SW0*%
X58476550Y-85328150D03*
D12*
X59746550Y-82788150D03*
D13*
X63556550Y-85328150D03*
D12*
X66096550Y-80248150D03*
D11*
X68636550Y-85328150D03*
D14*
X56471550Y-82788150D03*
X69398550Y-80248150D03*
%TD*%
D11*
%TO.C,SW47*%
X65595000Y-142438750D03*
D12*
X66865000Y-139898750D03*
D13*
X70675000Y-142438750D03*
D12*
X73215000Y-137358750D03*
D11*
X75755000Y-142438750D03*
D14*
X63590000Y-139898750D03*
X76517000Y-137358750D03*
%TD*%
D10*
%TO.C,LED58*%
X289968750Y-148268750D03*
X289968750Y-146768750D03*
X284768750Y-146768750D03*
X284768750Y-148268750D03*
%TD*%
D11*
%TO.C,SW62*%
X101313750Y-161488750D03*
D12*
X102583750Y-158948750D03*
D13*
X106393750Y-161488750D03*
D12*
X108933750Y-156408750D03*
D11*
X111473750Y-161488750D03*
D14*
X99308750Y-158948750D03*
X112235750Y-156408750D03*
%TD*%
D10*
%TO.C,LED48*%
X99468750Y-148268750D03*
X99468750Y-146768750D03*
X94268750Y-146768750D03*
X94268750Y-148268750D03*
%TD*%
%TO.C,LED60*%
X351881250Y-148268750D03*
X351881250Y-146768750D03*
X346681250Y-146768750D03*
X346681250Y-148268750D03*
%TD*%
%TO.C,LED64*%
X147093750Y-167318750D03*
X147093750Y-165818750D03*
X141893750Y-165818750D03*
X141893750Y-167318750D03*
%TD*%
%TO.C,LED82*%
X313781250Y-186368750D03*
X313781250Y-184868750D03*
X308581250Y-184868750D03*
X308581250Y-186368750D03*
%TD*%
%TO.C,LED52*%
X175668750Y-148268750D03*
X175668750Y-146768750D03*
X170468750Y-146768750D03*
X170468750Y-148268750D03*
%TD*%
%TO.C,LED35*%
X132806250Y-129218750D03*
X132806250Y-127718750D03*
X127606250Y-127718750D03*
X127606250Y-129218750D03*
%TD*%
D11*
%TO.C,SW83*%
X108457500Y-180538750D03*
D12*
X109727500Y-177998750D03*
D13*
X113537500Y-180538750D03*
D12*
X116077500Y-175458750D03*
D11*
X118617500Y-180538750D03*
D14*
X106452500Y-177998750D03*
X119379500Y-175458750D03*
%TD*%
D10*
%TO.C,LED34*%
X113756250Y-129218750D03*
X113756250Y-127718750D03*
X108556250Y-127718750D03*
X108556250Y-129218750D03*
%TD*%
D11*
%TO.C,SW65*%
X158463750Y-161488750D03*
D12*
X159733750Y-158948750D03*
D13*
X163543750Y-161488750D03*
D12*
X166083750Y-156408750D03*
D11*
X168623750Y-161488750D03*
D14*
X156458750Y-158948750D03*
X169385750Y-156408750D03*
%TD*%
D10*
%TO.C,LED16*%
X351881250Y-91118750D03*
X351881250Y-89618750D03*
X346681250Y-89618750D03*
X346681250Y-91118750D03*
%TD*%
%TO.C,LED26*%
X237581250Y-110168750D03*
X237581250Y-108668750D03*
X232381250Y-108668750D03*
X232381250Y-110168750D03*
%TD*%
%TO.C,LED40*%
X228056250Y-129218750D03*
X228056250Y-127718750D03*
X222856250Y-127718750D03*
X222856250Y-129218750D03*
%TD*%
%TO.C,LED27*%
X256631250Y-110168750D03*
X256631250Y-108668750D03*
X251431250Y-108668750D03*
X251431250Y-110168750D03*
%TD*%
D11*
%TO.C,SW82*%
X84645000Y-180538750D03*
D12*
X85915000Y-177998750D03*
D13*
X89725000Y-180538750D03*
D12*
X92265000Y-175458750D03*
D11*
X94805000Y-180538750D03*
D14*
X82640000Y-177998750D03*
X95567000Y-175458750D03*
%TD*%
D11*
%TO.C,SW37*%
X182276250Y-123388750D03*
D12*
X183546250Y-120848750D03*
D13*
X187356250Y-123388750D03*
D12*
X189896250Y-118308750D03*
D11*
X192436250Y-123388750D03*
D14*
X180271250Y-120848750D03*
X193198250Y-118308750D03*
%TD*%
D11*
%TO.C,SW6*%
X172751250Y-85288750D03*
D12*
X174021250Y-82748750D03*
D13*
X177831250Y-85288750D03*
D12*
X180371250Y-80208750D03*
D11*
X182911250Y-85288750D03*
D14*
X170746250Y-82748750D03*
X183673250Y-80208750D03*
%TD*%
D11*
%TO.C,SW68*%
X215613750Y-161488750D03*
D12*
X216883750Y-158948750D03*
D13*
X220693750Y-161488750D03*
D12*
X223233750Y-156408750D03*
D11*
X225773750Y-161488750D03*
D14*
X213608750Y-158948750D03*
X226535750Y-156408750D03*
%TD*%
D10*
%TO.C,LED70*%
X261393750Y-167318750D03*
X261393750Y-165818750D03*
X256193750Y-165818750D03*
X256193750Y-167318750D03*
%TD*%
D11*
%TO.C,SW19*%
X115601250Y-104338750D03*
D12*
X116871250Y-101798750D03*
D13*
X120681250Y-104338750D03*
D12*
X123221250Y-99258750D03*
D11*
X125761250Y-104338750D03*
D14*
X113596250Y-101798750D03*
X126523250Y-99258750D03*
%TD*%
D10*
%TO.C,LED65*%
X166143750Y-167318750D03*
X166143750Y-165818750D03*
X160943750Y-165818750D03*
X160943750Y-167318750D03*
%TD*%
%TO.C,LED38*%
X189956250Y-129218750D03*
X189956250Y-127718750D03*
X184756250Y-127718750D03*
X184756250Y-129218750D03*
%TD*%
%TO.C,LED81*%
X294731250Y-186368750D03*
X294731250Y-184868750D03*
X289531250Y-184868750D03*
X289531250Y-186368750D03*
%TD*%
%TO.C,LED56*%
X251868750Y-148268750D03*
X251868750Y-146768750D03*
X246668750Y-146768750D03*
X246668750Y-148268750D03*
%TD*%
D11*
%TO.C,SW81*%
X60832500Y-180538750D03*
D12*
X62102500Y-177998750D03*
D13*
X65912500Y-180538750D03*
D12*
X68452500Y-175458750D03*
D11*
X70992500Y-180538750D03*
D14*
X58827500Y-177998750D03*
X71754500Y-175458750D03*
%TD*%
D21*
%TO.C,D52*%
X182374050Y-150890350D03*
D22*
X182374050Y-143270350D03*
%TD*%
D21*
%TO.C,D13*%
X301404050Y-93755950D03*
D22*
X301404050Y-86135950D03*
%TD*%
D21*
%TO.C,D69*%
X249030850Y-169935150D03*
D22*
X249030850Y-162315150D03*
%TD*%
D21*
%TO.C,D3*%
X110956050Y-93755950D03*
D22*
X110956050Y-86135950D03*
%TD*%
D21*
%TO.C,D14*%
X320448850Y-93755950D03*
D22*
X320448850Y-86135950D03*
%TD*%
D21*
%TO.C,D34*%
X139523250Y-131845550D03*
D22*
X139523250Y-124225550D03*
%TD*%
D21*
%TO.C,D66*%
X191896450Y-169935150D03*
D22*
X191896450Y-162315150D03*
%TD*%
D21*
%TO.C,D57*%
X277598050Y-150890350D03*
D22*
X277598050Y-143270350D03*
%TD*%
D21*
%TO.C,D73*%
X320448850Y-169935150D03*
D22*
X320448850Y-162315150D03*
%TD*%
D21*
%TO.C,D48*%
X106194850Y-150890350D03*
D22*
X106194850Y-143270350D03*
%TD*%
D21*
%TO.C,D83*%
X101433650Y-188979950D03*
D22*
X101433650Y-181359950D03*
%TD*%
D21*
%TO.C,D56*%
X258553250Y-150890350D03*
D22*
X258553250Y-143270350D03*
%TD*%
D21*
%TO.C,D81*%
X358538450Y-188740850D03*
D22*
X358538450Y-181120850D03*
%TD*%
D21*
%TO.C,D84*%
X125239650Y-188979950D03*
D22*
X125239650Y-181359950D03*
%TD*%
D21*
%TO.C,D54*%
X220463650Y-150890350D03*
D22*
X220463650Y-143270350D03*
%TD*%
D21*
%TO.C,D70*%
X365100000Y-187510000D03*
D22*
X365100000Y-179890000D03*
%TD*%
D21*
%TO.C,D77*%
X282359250Y-188979950D03*
D22*
X282359250Y-181359950D03*
%TD*%
D21*
%TO.C,D12*%
X282359250Y-93755950D03*
D22*
X282359250Y-86135950D03*
%TD*%
D21*
%TO.C,D72*%
X287120450Y-169910000D03*
D22*
X287120450Y-162290000D03*
%TD*%
D21*
%TO.C,D67*%
X210941250Y-169935150D03*
D22*
X210941250Y-162315150D03*
%TD*%
D23*
%TO.C,A2*%
X385380000Y-72400000D03*
D22*
X385380000Y-74940000D03*
D24*
X385380000Y-77480000D03*
D22*
X385380000Y-80020000D03*
X385380000Y-82560000D03*
X385380000Y-85100000D03*
X385380000Y-87640000D03*
D24*
X385380000Y-90180000D03*
D22*
X385380000Y-92720000D03*
X385380000Y-95260000D03*
X385380000Y-97800000D03*
X385380000Y-100340000D03*
D24*
X385380000Y-102880000D03*
D22*
X385380000Y-105420000D03*
X385380000Y-107960000D03*
X385380000Y-110500000D03*
X385380000Y-113040000D03*
D24*
X385380000Y-115580000D03*
D22*
X385380000Y-118120000D03*
X385380000Y-120660000D03*
X367600000Y-120660000D03*
X367600000Y-118120000D03*
D25*
X367600000Y-115580000D03*
D22*
X367600000Y-113040000D03*
X367600000Y-110500000D03*
X367600000Y-107960000D03*
X367600000Y-105420000D03*
D25*
X367600000Y-102880000D03*
D22*
X367600000Y-100340000D03*
X367600000Y-97800000D03*
X367600000Y-95260000D03*
X367600000Y-92720000D03*
D25*
X367600000Y-90180000D03*
D22*
X367600000Y-87640000D03*
X367600000Y-85100000D03*
X367600000Y-82560000D03*
X367600000Y-80020000D03*
D25*
X367600000Y-77480000D03*
D22*
X367600000Y-74940000D03*
X367600000Y-72400000D03*
%TD*%
D21*
%TO.C,D27*%
X282359250Y-112800750D03*
D22*
X282359250Y-105180750D03*
%TD*%
D21*
%TO.C,D20*%
X149045650Y-112800750D03*
D22*
X149045650Y-105180750D03*
%TD*%
D21*
%TO.C,D17*%
X91911250Y-112800750D03*
D22*
X91911250Y-105180750D03*
%TD*%
D21*
%TO.C,D68*%
X229986050Y-169935150D03*
D22*
X229986050Y-162315150D03*
%TD*%
D21*
%TO.C,D4*%
X130000850Y-93755950D03*
D22*
X130000850Y-86135950D03*
%TD*%
D21*
%TO.C,D47*%
X87150050Y-150890350D03*
D22*
X87150050Y-143270350D03*
%TD*%
D21*
%TO.C,D35*%
X158568050Y-131845550D03*
D22*
X158568050Y-124225550D03*
%TD*%
D21*
%TO.C,D62*%
X115717250Y-169935150D03*
D22*
X115717250Y-162315150D03*
%TD*%
D21*
%TO.C,D8*%
X206180050Y-93755950D03*
D22*
X206180050Y-86135950D03*
%TD*%
D21*
%TO.C,D44*%
X310926450Y-131845550D03*
D22*
X310926450Y-124225550D03*
%TD*%
D21*
%TO.C,D51*%
X163329250Y-150890350D03*
D22*
X163329250Y-143270350D03*
%TD*%
D21*
%TO.C,D28*%
X301404050Y-112561650D03*
D22*
X301404050Y-104941650D03*
%TD*%
D21*
%TO.C,D26*%
X263314450Y-112800750D03*
D22*
X263314450Y-105180750D03*
%TD*%
D21*
%TO.C,D38*%
X215702450Y-131845550D03*
D22*
X215702450Y-124225550D03*
%TD*%
D21*
%TO.C,D7*%
X187135250Y-93755950D03*
D22*
X187135250Y-86135950D03*
%TD*%
D21*
%TO.C,D24*%
X225224850Y-112800750D03*
D22*
X225224850Y-105180750D03*
%TD*%
D21*
%TO.C,D15*%
X339493650Y-93755950D03*
D22*
X339493650Y-86135950D03*
%TD*%
D21*
%TO.C,D22*%
X187135250Y-112800750D03*
D22*
X187135250Y-105180750D03*
%TD*%
D21*
%TO.C,D82*%
X77627650Y-188979950D03*
D22*
X77627650Y-181359950D03*
%TD*%
D21*
%TO.C,D18*%
X110956050Y-112800750D03*
D22*
X110956050Y-105180750D03*
%TD*%
D21*
%TO.C,D49*%
X125239650Y-150890350D03*
D22*
X125239650Y-143270350D03*
%TD*%
D26*
%TO.C,U1*%
X379820000Y-152900000D03*
D27*
X379820000Y-155440000D03*
X379820000Y-157980000D03*
X379820000Y-160520000D03*
X379820000Y-163060000D03*
X379820000Y-165600000D03*
X379820000Y-168140000D03*
X371880000Y-168140000D03*
X371880000Y-165600000D03*
X371880000Y-163060000D03*
X371880000Y-160520000D03*
X371880000Y-157980000D03*
X371880000Y-155440000D03*
X371880000Y-152900000D03*
%TD*%
D21*
%TO.C,D6*%
X168090450Y-93755950D03*
D22*
X168090450Y-86135950D03*
%TD*%
D21*
%TO.C,D30*%
X358538450Y-112800750D03*
D22*
X358538450Y-105180750D03*
%TD*%
D21*
%TO.C,D32*%
X101433650Y-131845550D03*
D22*
X101433650Y-124225550D03*
%TD*%
D21*
%TO.C,D10*%
X244269650Y-93755950D03*
D22*
X244269650Y-86135950D03*
%TD*%
D21*
%TO.C,D11*%
X263314450Y-93755950D03*
D22*
X263314450Y-86135950D03*
%TD*%
D21*
%TO.C,D40*%
X253792050Y-131845550D03*
D22*
X253792050Y-124225550D03*
%TD*%
D21*
%TO.C,D55*%
X239508450Y-150890350D03*
D22*
X239508450Y-143270350D03*
%TD*%
D21*
%TO.C,D58*%
X296642850Y-150651250D03*
D22*
X296642850Y-143031250D03*
%TD*%
D21*
%TO.C,D31*%
X82388850Y-131845550D03*
D22*
X82388850Y-124225550D03*
%TD*%
D21*
%TO.C,D78*%
X301404050Y-188979950D03*
D22*
X301404050Y-181359950D03*
%TD*%
D21*
%TO.C,D23*%
X206180050Y-112800750D03*
D22*
X206180050Y-105180750D03*
%TD*%
D21*
%TO.C,D85*%
X244269650Y-188979950D03*
D22*
X244269650Y-181359950D03*
%TD*%
D21*
%TO.C,D74*%
X339493650Y-169935150D03*
D22*
X339493650Y-162315150D03*
%TD*%
D21*
%TO.C,D36*%
X177612850Y-131845550D03*
D22*
X177612850Y-124225550D03*
%TD*%
D21*
%TO.C,D63*%
X134762050Y-169935150D03*
D22*
X134762050Y-162315150D03*
%TD*%
D21*
%TO.C,D75*%
X358538450Y-169935150D03*
D22*
X358538450Y-162315150D03*
%TD*%
D21*
%TO.C,D37*%
X196657650Y-131845550D03*
D22*
X196657650Y-124225550D03*
%TD*%
D21*
%TO.C,D50*%
X144284450Y-150890350D03*
D22*
X144284450Y-143270350D03*
%TD*%
D21*
%TO.C,D46*%
X358538450Y-131845550D03*
D22*
X358538450Y-124225550D03*
%TD*%
D21*
%TO.C,D25*%
X244269650Y-112561650D03*
D22*
X244269650Y-104941650D03*
%TD*%
D21*
%TO.C,D76*%
X263314450Y-188979950D03*
D22*
X263314450Y-181359950D03*
%TD*%
D21*
%TO.C,D21*%
X168090450Y-112800750D03*
D22*
X168090450Y-105180750D03*
%TD*%
D21*
%TO.C,D60*%
X358538450Y-150890350D03*
D22*
X358538450Y-143270350D03*
%TD*%
D21*
%TO.C,D65*%
X172851650Y-169935150D03*
D22*
X172851650Y-162315150D03*
%TD*%
D21*
%TO.C,D59*%
X339493650Y-150651250D03*
D22*
X339493650Y-143031250D03*
%TD*%
D21*
%TO.C,D19*%
X130000850Y-112800750D03*
D22*
X130000850Y-105180750D03*
%TD*%
D21*
%TO.C,D29*%
X339493650Y-112800750D03*
D22*
X339493650Y-105180750D03*
%TD*%
D21*
%TO.C,D9*%
X225224850Y-93755950D03*
D22*
X225224850Y-86135950D03*
%TD*%
D21*
%TO.C,D64*%
X153806850Y-169935150D03*
D22*
X153806850Y-162315150D03*
%TD*%
D21*
%TO.C,D33*%
X120478450Y-131845550D03*
D22*
X120478450Y-124225550D03*
%TD*%
D21*
%TO.C,D41*%
X272836850Y-131845550D03*
D22*
X272836850Y-124225550D03*
%TD*%
D21*
%TO.C,D5*%
X149045650Y-93755950D03*
D22*
X149045650Y-86135950D03*
%TD*%
D21*
%TO.C,D79*%
X320448850Y-188979950D03*
D22*
X320448850Y-181359950D03*
%TD*%
D21*
%TO.C,D43*%
X358538450Y-93755950D03*
D22*
X358538450Y-86135950D03*
%TD*%
D21*
%TO.C,D61*%
X96672450Y-169935150D03*
D22*
X96672450Y-162315150D03*
%TD*%
D21*
%TO.C,D2*%
X91911250Y-93755950D03*
D22*
X91911250Y-86135950D03*
%TD*%
D21*
%TO.C,D1*%
X72866450Y-93755950D03*
D22*
X72866450Y-86135950D03*
%TD*%
D21*
%TO.C,D42*%
X291944350Y-131845550D03*
D22*
X291944350Y-124225550D03*
%TD*%
D21*
%TO.C,D71*%
X268075650Y-169935150D03*
D22*
X268075650Y-162315150D03*
%TD*%
D21*
%TO.C,D80*%
X339493650Y-188979950D03*
D22*
X339493650Y-181359950D03*
%TD*%
D21*
%TO.C,D45*%
X339490000Y-131830000D03*
D22*
X339490000Y-124210000D03*
%TD*%
D21*
%TO.C,D16*%
X72866450Y-112800750D03*
D22*
X72866450Y-105180750D03*
%TD*%
D21*
%TO.C,D39*%
X234747250Y-131845550D03*
D22*
X234747250Y-124225550D03*
%TD*%
D21*
%TO.C,D53*%
X201418850Y-150890350D03*
D22*
X201418850Y-143270350D03*
%TD*%
M02*
