%TF.GenerationSoftware,KiCad,Pcbnew,9.0.7*%
%TF.CreationDate,2026-03-18T17:49:55+05:30*%
%TF.ProjectId,Split-KeyBoard,53706c69-742d-44b6-9579-426f6172642e,rev?*%
%TF.SameCoordinates,Original*%
%TF.FileFunction,Paste,Bot*%
%TF.FilePolarity,Positive*%
%FSLAX46Y46*%
G04 Gerber Fmt 4.6, Leading zero omitted, Abs format (unit mm)*
G04 Created by KiCad (PCBNEW 9.0.7) date 2026-03-18 17:49:55*
%MOMM*%
%LPD*%
G01*
G04 APERTURE LIST*
G04 Aperture macros list*
%AMRoundRect*
0 Rectangle with rounded corners*
0 $1 Rounding radius*
0 $2 $3 $4 $5 $6 $7 $8 $9 X,Y pos of 4 corners*
0 Add a 4 corners polygon primitive as box body*
4,1,4,$2,$3,$4,$5,$6,$7,$8,$9,$2,$3,0*
0 Add four circle primitives for the rounded corners*
1,1,$1+$1,$2,$3*
1,1,$1+$1,$4,$5*
1,1,$1+$1,$6,$7*
1,1,$1+$1,$8,$9*
0 Add four rect primitives between the rounded corners*
20,1,$1+$1,$2,$3,$4,$5,0*
20,1,$1+$1,$4,$5,$6,$7,0*
20,1,$1+$1,$6,$7,$8,$9,0*
20,1,$1+$1,$8,$9,$2,$3,0*%
G04 Aperture macros list end*
%ADD10RoundRect,0.082000X0.718000X-0.328000X0.718000X0.328000X-0.718000X0.328000X-0.718000X-0.328000X0*%
%ADD11RoundRect,0.250000X-1.025000X-1.000000X1.025000X-1.000000X1.025000X1.000000X-1.025000X1.000000X0*%
G04 APERTURE END LIST*
D10*
%TO.C,LED36*%
X151856250Y-129218750D03*
X151856250Y-127718750D03*
X146656250Y-127718750D03*
X146656250Y-129218750D03*
%TD*%
%TO.C,LED42*%
X266156250Y-129218750D03*
X266156250Y-127718750D03*
X260956250Y-127718750D03*
X260956250Y-129218750D03*
%TD*%
D11*
%TO.C,SW26*%
X246946250Y-101798750D03*
X259873250Y-99258750D03*
%TD*%
D10*
%TO.C,LED46*%
X351881250Y-129218750D03*
X351881250Y-127718750D03*
X346681250Y-127718750D03*
X346681250Y-129218750D03*
%TD*%
%TO.C,LED44*%
X304256250Y-129218750D03*
X304256250Y-127718750D03*
X299056250Y-127718750D03*
X299056250Y-129218750D03*
%TD*%
%TO.C,LED83*%
X332831250Y-186368750D03*
X332831250Y-184868750D03*
X327631250Y-184868750D03*
X327631250Y-186368750D03*
%TD*%
%TO.C,LED24*%
X199481250Y-110168750D03*
X199481250Y-108668750D03*
X194281250Y-108668750D03*
X194281250Y-110168750D03*
%TD*%
D11*
%TO.C,SW41*%
X256471250Y-120848750D03*
X269398250Y-118308750D03*
%TD*%
D10*
%TO.C,LED4*%
X123281250Y-91118750D03*
X123281250Y-89618750D03*
X118081250Y-89618750D03*
X118081250Y-91118750D03*
%TD*%
D11*
%TO.C,SW22*%
X170746250Y-101798750D03*
X183673250Y-99258750D03*
%TD*%
%TO.C,SW40*%
X237421250Y-120848750D03*
X250348250Y-118308750D03*
%TD*%
%TO.C,SW25*%
X227896250Y-101798750D03*
X240823250Y-99258750D03*
%TD*%
%TO.C,SW11*%
X265996250Y-82748750D03*
X278923250Y-80208750D03*
%TD*%
%TO.C,SW20*%
X132646250Y-101798750D03*
X145573250Y-99258750D03*
%TD*%
D10*
%TO.C,LED71*%
X280443750Y-167318750D03*
X280443750Y-165818750D03*
X275243750Y-165818750D03*
X275243750Y-167318750D03*
%TD*%
%TO.C,LED84*%
X351881250Y-186368750D03*
X351881250Y-184868750D03*
X346681250Y-184868750D03*
X346681250Y-186368750D03*
%TD*%
D11*
%TO.C,SW45*%
X318383750Y-120848750D03*
X331310750Y-118308750D03*
%TD*%
D10*
%TO.C,LED68*%
X223293750Y-167318750D03*
X223293750Y-165818750D03*
X218093750Y-165818750D03*
X218093750Y-167318750D03*
%TD*%
D11*
%TO.C,SW74*%
X342196250Y-158948750D03*
X355123250Y-156408750D03*
%TD*%
D10*
%TO.C,LED33*%
X94706250Y-129218750D03*
X94706250Y-127718750D03*
X89506250Y-127718750D03*
X89506250Y-129218750D03*
%TD*%
%TO.C,LED73*%
X332831250Y-167318750D03*
X332831250Y-165818750D03*
X327631250Y-165818750D03*
X327631250Y-167318750D03*
%TD*%
%TO.C,LED14*%
X313781250Y-91118750D03*
X313781250Y-89618750D03*
X308581250Y-89618750D03*
X308581250Y-91118750D03*
%TD*%
%TO.C,LED49*%
X118518750Y-148268750D03*
X118518750Y-146768750D03*
X113318750Y-146768750D03*
X113318750Y-148268750D03*
%TD*%
%TO.C,LED74*%
X351881250Y-167318750D03*
X351881250Y-165818750D03*
X346681250Y-165818750D03*
X346681250Y-167318750D03*
%TD*%
D11*
%TO.C,SW60*%
X342196250Y-139898750D03*
X355123250Y-137358750D03*
%TD*%
%TO.C,SW52*%
X165983750Y-139898750D03*
X178910750Y-137358750D03*
%TD*%
%TO.C,SW57*%
X261233750Y-139898750D03*
X274160750Y-137358750D03*
%TD*%
%TO.C,SW69*%
X232658750Y-158948750D03*
X245585750Y-156408750D03*
%TD*%
%TO.C,SW14*%
X323146250Y-82748750D03*
X336073250Y-80208750D03*
%TD*%
%TO.C,SW17*%
X75496250Y-101798750D03*
X88423250Y-99258750D03*
%TD*%
D10*
%TO.C,LED18*%
X85181250Y-110168750D03*
X85181250Y-108668750D03*
X79981250Y-108668750D03*
X79981250Y-110168750D03*
%TD*%
D11*
%TO.C,SW34*%
X123121250Y-120848750D03*
X136048250Y-118308750D03*
%TD*%
%TO.C,SW54*%
X204083750Y-139898750D03*
X217010750Y-137358750D03*
%TD*%
%TO.C,SW80*%
X342196250Y-177998750D03*
X355123250Y-175458750D03*
%TD*%
%TO.C,SW10*%
X246946250Y-82748750D03*
X259873250Y-80208750D03*
%TD*%
%TO.C,SW78*%
X304096250Y-177998750D03*
X317023250Y-175458750D03*
%TD*%
D10*
%TO.C,LED47*%
X73275000Y-148268750D03*
X73275000Y-146768750D03*
X68075000Y-146768750D03*
X68075000Y-148268750D03*
%TD*%
D11*
%TO.C,SW64*%
X137408750Y-158948750D03*
X150335750Y-156408750D03*
%TD*%
%TO.C,SW18*%
X94546250Y-101798750D03*
X107473250Y-99258750D03*
%TD*%
%TO.C,SW58*%
X280283750Y-139898750D03*
X293210750Y-137358750D03*
%TD*%
D10*
%TO.C,LED63*%
X128043750Y-167318750D03*
X128043750Y-165818750D03*
X122843750Y-165818750D03*
X122843750Y-167318750D03*
%TD*%
%TO.C,LED2*%
X85201350Y-91158150D03*
X85201350Y-89658150D03*
X80001350Y-89658150D03*
X80001350Y-91158150D03*
%TD*%
D11*
%TO.C,SW44*%
X294571250Y-120848750D03*
X307498250Y-118308750D03*
%TD*%
D10*
%TO.C,LED9*%
X218531250Y-91118750D03*
X218531250Y-89618750D03*
X213331250Y-89618750D03*
X213331250Y-91118750D03*
%TD*%
D11*
%TO.C,SW77*%
X285046250Y-177998750D03*
X297973250Y-175458750D03*
%TD*%
D10*
%TO.C,LED39*%
X209006250Y-129218750D03*
X209006250Y-127718750D03*
X203806250Y-127718750D03*
X203806250Y-129218750D03*
%TD*%
D11*
%TO.C,SW29*%
X313621250Y-101798750D03*
X326548250Y-99258750D03*
%TD*%
D10*
%TO.C,LED8*%
X199481250Y-91118750D03*
X199481250Y-89618750D03*
X194281250Y-89618750D03*
X194281250Y-91118750D03*
%TD*%
%TO.C,LED13*%
X294731250Y-91118750D03*
X294731250Y-89618750D03*
X289531250Y-89618750D03*
X289531250Y-91118750D03*
%TD*%
%TO.C,LED5*%
X142331250Y-91118750D03*
X142331250Y-89618750D03*
X137131250Y-89618750D03*
X137131250Y-91118750D03*
%TD*%
D11*
%TO.C,SW3*%
X113596250Y-82748750D03*
X126523250Y-80208750D03*
%TD*%
D10*
%TO.C,LED32*%
X70893750Y-129218750D03*
X70893750Y-127718750D03*
X65693750Y-127718750D03*
X65693750Y-129218750D03*
%TD*%
%TO.C,LED59*%
X320925000Y-148268750D03*
X320925000Y-146768750D03*
X315725000Y-146768750D03*
X315725000Y-148268750D03*
%TD*%
%TO.C,LED78*%
X187575000Y-186368750D03*
X187575000Y-184868750D03*
X182375000Y-184868750D03*
X182375000Y-186368750D03*
%TD*%
D11*
%TO.C,SW8*%
X208846250Y-82748750D03*
X221773250Y-80208750D03*
%TD*%
%TO.C,SW7*%
X189796250Y-82748750D03*
X202723250Y-80208750D03*
%TD*%
D10*
%TO.C,LED6*%
X161381250Y-91118750D03*
X161381250Y-89618750D03*
X156181250Y-89618750D03*
X156181250Y-91118750D03*
%TD*%
%TO.C,LED37*%
X170906250Y-129218750D03*
X170906250Y-127718750D03*
X165706250Y-127718750D03*
X165706250Y-129218750D03*
%TD*%
D11*
%TO.C,SW49*%
X108833750Y-139898750D03*
X121760750Y-137358750D03*
%TD*%
%TO.C,SW23*%
X189796250Y-101798750D03*
X202723250Y-99258750D03*
%TD*%
D10*
%TO.C,LED7*%
X180431250Y-91118750D03*
X180431250Y-89618750D03*
X175231250Y-89618750D03*
X175231250Y-91118750D03*
%TD*%
D11*
%TO.C,SW71*%
X270758750Y-158948750D03*
X283685750Y-156408750D03*
%TD*%
%TO.C,SW38*%
X199321250Y-120848750D03*
X212248250Y-118308750D03*
%TD*%
%TO.C,SW50*%
X127883750Y-139898750D03*
X140810750Y-137358750D03*
%TD*%
D10*
%TO.C,LED31*%
X351881250Y-110168750D03*
X351881250Y-108668750D03*
X346681250Y-108668750D03*
X346681250Y-110168750D03*
%TD*%
D11*
%TO.C,SW9*%
X227896250Y-82748750D03*
X240823250Y-80208750D03*
%TD*%
%TO.C,SW31*%
X61208750Y-120848750D03*
X74135750Y-118308750D03*
%TD*%
%TO.C,SW51*%
X146933750Y-139898750D03*
X159860750Y-137358750D03*
%TD*%
D10*
%TO.C,LED45*%
X328068750Y-129218750D03*
X328068750Y-127718750D03*
X322868750Y-127718750D03*
X322868750Y-129218750D03*
%TD*%
D11*
%TO.C,SW28*%
X285046250Y-101798750D03*
X297973250Y-99258750D03*
%TD*%
D10*
%TO.C,LED61*%
X78037500Y-167318750D03*
X78037500Y-165818750D03*
X72837500Y-165818750D03*
X72837500Y-167318750D03*
%TD*%
D11*
%TO.C,SW2*%
X94546250Y-82748750D03*
X107473250Y-80208750D03*
%TD*%
D10*
%TO.C,LED30*%
X323306250Y-110168750D03*
X323306250Y-108668750D03*
X318106250Y-108668750D03*
X318106250Y-110168750D03*
%TD*%
D11*
%TO.C,SW39*%
X218371250Y-120848750D03*
X231298250Y-118308750D03*
%TD*%
D10*
%TO.C,LED43*%
X285206250Y-129218750D03*
X285206250Y-127718750D03*
X280006250Y-127718750D03*
X280006250Y-129218750D03*
%TD*%
D11*
%TO.C,SW61*%
X68352500Y-158948750D03*
X81279500Y-156408750D03*
%TD*%
%TO.C,SW72*%
X296952500Y-158948750D03*
X309879500Y-156408750D03*
%TD*%
D10*
%TO.C,LED28*%
X275681250Y-110168750D03*
X275681250Y-108668750D03*
X270481250Y-108668750D03*
X270481250Y-110168750D03*
%TD*%
D11*
%TO.C,SW75*%
X246946250Y-177998750D03*
X259873250Y-175458750D03*
%TD*%
%TO.C,SW16*%
X56446250Y-101798750D03*
X69373250Y-99258750D03*
%TD*%
D10*
%TO.C,LED79*%
X256631250Y-186368750D03*
X256631250Y-184868750D03*
X251431250Y-184868750D03*
X251431250Y-186368750D03*
%TD*%
D11*
%TO.C,SW35*%
X142171250Y-120848750D03*
X155098250Y-118308750D03*
%TD*%
%TO.C,SW48*%
X89783750Y-139898750D03*
X102710750Y-137358750D03*
%TD*%
%TO.C,SW46*%
X342196250Y-120848750D03*
X355123250Y-118308750D03*
%TD*%
%TO.C,SW79*%
X323146250Y-177998750D03*
X336073250Y-175458750D03*
%TD*%
%TO.C,SW56*%
X242183750Y-139898750D03*
X255110750Y-137358750D03*
%TD*%
D10*
%TO.C,LED50*%
X137568750Y-148268750D03*
X137568750Y-146768750D03*
X132368750Y-146768750D03*
X132368750Y-148268750D03*
%TD*%
%TO.C,LED17*%
X66131250Y-110168750D03*
X66131250Y-108668750D03*
X60931250Y-108668750D03*
X60931250Y-110168750D03*
%TD*%
D11*
%TO.C,SW24*%
X208846250Y-101798750D03*
X221773250Y-99258750D03*
%TD*%
D10*
%TO.C,LED29*%
X294731250Y-110168750D03*
X294731250Y-108668750D03*
X289531250Y-108668750D03*
X289531250Y-110168750D03*
%TD*%
D11*
%TO.C,SW15*%
X342196250Y-82748750D03*
X355123250Y-80208750D03*
%TD*%
D10*
%TO.C,LED41*%
X247106250Y-129218750D03*
X247106250Y-127718750D03*
X241906250Y-127718750D03*
X241906250Y-129218750D03*
%TD*%
%TO.C,LED54*%
X213768750Y-148268750D03*
X213768750Y-146768750D03*
X208568750Y-146768750D03*
X208568750Y-148268750D03*
%TD*%
%TO.C,LED12*%
X275681250Y-91118750D03*
X275681250Y-89618750D03*
X270481250Y-89618750D03*
X270481250Y-91118750D03*
%TD*%
D11*
%TO.C,SW33*%
X104071250Y-120848750D03*
X116998250Y-118308750D03*
%TD*%
D10*
%TO.C,LED76*%
X92325000Y-186368750D03*
X92325000Y-184868750D03*
X87125000Y-184868750D03*
X87125000Y-186368750D03*
%TD*%
%TO.C,LED23*%
X180431250Y-110168750D03*
X180431250Y-108668750D03*
X175231250Y-108668750D03*
X175231250Y-110168750D03*
%TD*%
D11*
%TO.C,SW4*%
X132646250Y-82748750D03*
X145573250Y-80208750D03*
%TD*%
%TO.C,SW12*%
X285046250Y-82748750D03*
X297973250Y-80208750D03*
%TD*%
%TO.C,SW55*%
X223133750Y-139898750D03*
X236060750Y-137358750D03*
%TD*%
D10*
%TO.C,LED69*%
X242343750Y-167318750D03*
X242343750Y-165818750D03*
X237143750Y-165818750D03*
X237143750Y-167318750D03*
%TD*%
%TO.C,LED51*%
X156618750Y-148268750D03*
X156618750Y-146768750D03*
X151418750Y-146768750D03*
X151418750Y-148268750D03*
%TD*%
%TO.C,LED21*%
X142331250Y-110168750D03*
X142331250Y-108668750D03*
X137131250Y-108668750D03*
X137131250Y-110168750D03*
%TD*%
%TO.C,LED15*%
X332831250Y-91118750D03*
X332831250Y-89618750D03*
X327631250Y-89618750D03*
X327631250Y-91118750D03*
%TD*%
D11*
%TO.C,SW36*%
X161221250Y-120848750D03*
X174148250Y-118308750D03*
%TD*%
%TO.C,SW63*%
X118358750Y-158948750D03*
X131285750Y-156408750D03*
%TD*%
D10*
%TO.C,LED25*%
X218531250Y-110168750D03*
X218531250Y-108668750D03*
X213331250Y-108668750D03*
X213331250Y-110168750D03*
%TD*%
D11*
%TO.C,SW21*%
X151696250Y-101798750D03*
X164623250Y-99258750D03*
%TD*%
%TO.C,SW5*%
X151696250Y-82748750D03*
X164623250Y-80208750D03*
%TD*%
D10*
%TO.C,LED1*%
X66156550Y-91158150D03*
X66156550Y-89658150D03*
X60956550Y-89658150D03*
X60956550Y-91158150D03*
%TD*%
D11*
%TO.C,SW76*%
X265996250Y-177998750D03*
X278923250Y-175458750D03*
%TD*%
D10*
%TO.C,LED3*%
X104246150Y-91158150D03*
X104246150Y-89658150D03*
X99046150Y-89658150D03*
X99046150Y-91158150D03*
%TD*%
%TO.C,LED20*%
X123281250Y-110168750D03*
X123281250Y-108668750D03*
X118081250Y-108668750D03*
X118081250Y-110168750D03*
%TD*%
%TO.C,LED66*%
X185193750Y-167318750D03*
X185193750Y-165818750D03*
X179993750Y-165818750D03*
X179993750Y-167318750D03*
%TD*%
%TO.C,LED77*%
X116137500Y-186368750D03*
X116137500Y-184868750D03*
X110937500Y-184868750D03*
X110937500Y-186368750D03*
%TD*%
%TO.C,LED53*%
X194718750Y-148268750D03*
X194718750Y-146768750D03*
X189518750Y-146768750D03*
X189518750Y-148268750D03*
%TD*%
%TO.C,LED62*%
X108993750Y-167318750D03*
X108993750Y-165818750D03*
X103793750Y-165818750D03*
X103793750Y-167318750D03*
%TD*%
D11*
%TO.C,SW73*%
X323146250Y-158948750D03*
X336073250Y-156408750D03*
%TD*%
D10*
%TO.C,LED67*%
X204243750Y-167318750D03*
X204243750Y-165818750D03*
X199043750Y-165818750D03*
X199043750Y-167318750D03*
%TD*%
%TO.C,LED10*%
X237581250Y-91118750D03*
X237581250Y-89618750D03*
X232381250Y-89618750D03*
X232381250Y-91118750D03*
%TD*%
%TO.C,LED72*%
X306637500Y-167318750D03*
X306637500Y-165818750D03*
X301437500Y-165818750D03*
X301437500Y-167318750D03*
%TD*%
D11*
%TO.C,SW42*%
X275521250Y-120848750D03*
X288448250Y-118308750D03*
%TD*%
%TO.C,SW1*%
X75496250Y-82748750D03*
X88423250Y-80208750D03*
%TD*%
%TO.C,SW13*%
X304096250Y-82748750D03*
X317023250Y-80208750D03*
%TD*%
%TO.C,SW27*%
X265996250Y-101798750D03*
X278923250Y-99258750D03*
%TD*%
%TO.C,SW70*%
X251708750Y-158948750D03*
X264635750Y-156408750D03*
%TD*%
%TO.C,SW84*%
X177890000Y-177998750D03*
X190817000Y-175458750D03*
%TD*%
%TO.C,SW32*%
X85021250Y-120848750D03*
X97948250Y-118308750D03*
%TD*%
D10*
%TO.C,LED19*%
X104231250Y-110168750D03*
X104231250Y-108668750D03*
X99031250Y-108668750D03*
X99031250Y-110168750D03*
%TD*%
%TO.C,LED80*%
X275681250Y-186368750D03*
X275681250Y-184868750D03*
X270481250Y-184868750D03*
X270481250Y-186368750D03*
%TD*%
D11*
%TO.C,SW66*%
X175508750Y-158948750D03*
X188435750Y-156408750D03*
%TD*%
D10*
%TO.C,LED57*%
X270918750Y-148268750D03*
X270918750Y-146768750D03*
X265718750Y-146768750D03*
X265718750Y-148268750D03*
%TD*%
D11*
%TO.C,SW59*%
X311240000Y-139898750D03*
X324167000Y-137358750D03*
%TD*%
D10*
%TO.C,LED11*%
X256631250Y-91118750D03*
X256631250Y-89618750D03*
X251431250Y-89618750D03*
X251431250Y-91118750D03*
%TD*%
%TO.C,LED75*%
X68512500Y-186368750D03*
X68512500Y-184868750D03*
X63312500Y-184868750D03*
X63312500Y-186368750D03*
%TD*%
%TO.C,LED22*%
X161381250Y-110168750D03*
X161381250Y-108668750D03*
X156181250Y-108668750D03*
X156181250Y-110168750D03*
%TD*%
D11*
%TO.C,SW30*%
X342196250Y-101798750D03*
X355123250Y-99258750D03*
%TD*%
D10*
%TO.C,LED55*%
X232818750Y-148268750D03*
X232818750Y-146768750D03*
X227618750Y-146768750D03*
X227618750Y-148268750D03*
%TD*%
D11*
%TO.C,SW53*%
X185033750Y-139898750D03*
X197960750Y-137358750D03*
%TD*%
%TO.C,SW67*%
X194558750Y-158948750D03*
X207485750Y-156408750D03*
%TD*%
%TO.C,SW0*%
X56471550Y-82788150D03*
X69398550Y-80248150D03*
%TD*%
%TO.C,SW47*%
X63590000Y-139898750D03*
X76517000Y-137358750D03*
%TD*%
D10*
%TO.C,LED58*%
X289968750Y-148268750D03*
X289968750Y-146768750D03*
X284768750Y-146768750D03*
X284768750Y-148268750D03*
%TD*%
D11*
%TO.C,SW62*%
X99308750Y-158948750D03*
X112235750Y-156408750D03*
%TD*%
D10*
%TO.C,LED48*%
X99468750Y-148268750D03*
X99468750Y-146768750D03*
X94268750Y-146768750D03*
X94268750Y-148268750D03*
%TD*%
%TO.C,LED60*%
X351881250Y-148268750D03*
X351881250Y-146768750D03*
X346681250Y-146768750D03*
X346681250Y-148268750D03*
%TD*%
%TO.C,LED64*%
X147093750Y-167318750D03*
X147093750Y-165818750D03*
X141893750Y-165818750D03*
X141893750Y-167318750D03*
%TD*%
%TO.C,LED82*%
X313781250Y-186368750D03*
X313781250Y-184868750D03*
X308581250Y-184868750D03*
X308581250Y-186368750D03*
%TD*%
%TO.C,LED52*%
X175668750Y-148268750D03*
X175668750Y-146768750D03*
X170468750Y-146768750D03*
X170468750Y-148268750D03*
%TD*%
%TO.C,LED35*%
X132806250Y-129218750D03*
X132806250Y-127718750D03*
X127606250Y-127718750D03*
X127606250Y-129218750D03*
%TD*%
D11*
%TO.C,SW83*%
X106452500Y-177998750D03*
X119379500Y-175458750D03*
%TD*%
D10*
%TO.C,LED34*%
X113756250Y-129218750D03*
X113756250Y-127718750D03*
X108556250Y-127718750D03*
X108556250Y-129218750D03*
%TD*%
D11*
%TO.C,SW65*%
X156458750Y-158948750D03*
X169385750Y-156408750D03*
%TD*%
D10*
%TO.C,LED16*%
X351881250Y-91118750D03*
X351881250Y-89618750D03*
X346681250Y-89618750D03*
X346681250Y-91118750D03*
%TD*%
%TO.C,LED26*%
X237581250Y-110168750D03*
X237581250Y-108668750D03*
X232381250Y-108668750D03*
X232381250Y-110168750D03*
%TD*%
%TO.C,LED40*%
X228056250Y-129218750D03*
X228056250Y-127718750D03*
X222856250Y-127718750D03*
X222856250Y-129218750D03*
%TD*%
%TO.C,LED27*%
X256631250Y-110168750D03*
X256631250Y-108668750D03*
X251431250Y-108668750D03*
X251431250Y-110168750D03*
%TD*%
D11*
%TO.C,SW82*%
X82640000Y-177998750D03*
X95567000Y-175458750D03*
%TD*%
%TO.C,SW37*%
X180271250Y-120848750D03*
X193198250Y-118308750D03*
%TD*%
%TO.C,SW6*%
X170746250Y-82748750D03*
X183673250Y-80208750D03*
%TD*%
%TO.C,SW68*%
X213608750Y-158948750D03*
X226535750Y-156408750D03*
%TD*%
D10*
%TO.C,LED70*%
X261393750Y-167318750D03*
X261393750Y-165818750D03*
X256193750Y-165818750D03*
X256193750Y-167318750D03*
%TD*%
D11*
%TO.C,SW19*%
X113596250Y-101798750D03*
X126523250Y-99258750D03*
%TD*%
D10*
%TO.C,LED65*%
X166143750Y-167318750D03*
X166143750Y-165818750D03*
X160943750Y-165818750D03*
X160943750Y-167318750D03*
%TD*%
%TO.C,LED38*%
X189956250Y-129218750D03*
X189956250Y-127718750D03*
X184756250Y-127718750D03*
X184756250Y-129218750D03*
%TD*%
%TO.C,LED81*%
X294731250Y-186368750D03*
X294731250Y-184868750D03*
X289531250Y-184868750D03*
X289531250Y-186368750D03*
%TD*%
%TO.C,LED56*%
X251868750Y-148268750D03*
X251868750Y-146768750D03*
X246668750Y-146768750D03*
X246668750Y-148268750D03*
%TD*%
D11*
%TO.C,SW81*%
X58827500Y-177998750D03*
X71754500Y-175458750D03*
%TD*%
M02*
